<svg xmlns="http://www.w3.org/2000/svg" fill="none" viewBox="0 0 232 231">
  <path fill="#F59E0B" d="M212.748 208.254h-19.029c2.537 0 5.048-.509 7.384-1.497 2.265-.957 4.324-2.345 6.061-4.086 1.741-1.737 3.129-3.795 4.087-6.06.993-2.348 1.502-4.872 1.497-7.421v-83.883c.005-2.549-.504-5.073-1.497-7.42-.958-2.2653-2.345-4.3234-4.087-6.06-1.769-1.7729-3.871-3.1789-6.184-4.1372-2.314-.9583-4.795-1.45-7.299-1.4468h19.067c2.55-.005 5.074.504 7.422 1.497 2.265.9575 4.323 2.3451 6.06 4.086 1.741 1.7368 3.129 3.7948 4.087 6.06.994 2.348 1.503 4.872 1.498 7.421v83.883c.005 2.549-.505 5.072-1.498 7.419-.957 2.266-2.345 4.324-4.087 6.06-1.769 1.773-3.87 3.179-6.184 4.137-2.314.959-4.794 1.451-7.298 1.448Z"/>
  <path fill="#FBBF24" d="M153.628 230.989c-1.211-.076-2.375-.5-3.35-1.222l-29.49-21.513h-11.002c-2.549.003-5.072-.506-7.42-1.497-2.264-.96-4.3223-2.347-6.061-4.086-1.7731-1.768-3.1792-3.87-4.1377-6.183-.9584-2.314-1.4503-4.794-1.4473-7.298v-83.883c-.0035-2.549.5056-5.072 1.497-7.42.9597-2.2642 2.3474-4.3218 4.087-6.06 1.7688-1.773 3.871-3.1791 6.184-4.1375 2.314-.9585 4.795-1.4504 7.299-1.4475l83.894.001c2.549-.0032 5.073.5053 7.421 1.497 4.571 1.9366 8.211 5.575 10.148 10.146.992 2.348 1.501 4.872 1.498 7.421v83.883c.003 2.504-.488 4.984-1.447 7.297-.958 2.313-2.364 4.414-4.137 6.182-1.769 1.773-3.87 3.179-6.184 4.138-2.314.958-4.795 1.45-7.299 1.447h-33.303v16.381c.009 1.215-.334 2.407-.988 3.432-.617.953-1.476 1.726-2.489 2.238-.899.458-1.894.698-2.903.7-.124-.001-.247-.006-.37-.016Z"/>
  <path fill="#1E293B" fill-rule="evenodd" d="M162.232 115.671c1.695.027 3.189 1.121 3.727 2.729l11.617 34.708c.004.01.007.019.011.028l5.987 16.596c.75 2.078-.326 4.371-2.404 5.12-2.078.75-4.37-.326-5.12-2.404l-5.037-13.954h-19.012l-5.463 14.694c-.769 2.07-3.072 3.125-5.143 2.355-2.07-.769-3.125-3.072-2.355-5.143l6.398-17.212c.02-.059.042-.117.065-.174l12.914-34.738c.591-1.589 2.119-2.633 3.815-2.605Zm-7.258 34.823 6.994-18.813 6.297 18.813h-13.291Z" clip-rule="evenodd"/>
  <path fill="#EF4444" d="M19.67 144.61c-5.0558-.001-9.90413-2.01-13.47919-5.585-3.57507-3.575-5.584239-8.423-5.58583-13.479V42.282c-.000131-2.5036.49292-4.9828 1.45099-7.2959.95807-2.313 2.3624-4.4147 4.13279-6.185 1.77039-1.7703 3.87214-3.1745 6.18524-4.1325 2.3132-.9579 4.7923-1.4509 7.296-1.4506h52.892L71.335 6.844c-.0905-1.19989.1616-2.40081.7269-3.46304s1.4206-1.9421 2.4665-2.537237c1.0458-.59514 2.2391-.8810834 3.441-.8245618C79.1714.0756828 80.3326.472345 81.318 1.163l31.501 22.055h9.131c5.056-.0003 9.906 2.0081 13.482 5.5832 3.575 3.5752 5.584 8.4244 5.585 13.4808v83.264c-.001 5.056-2.01 9.905-5.586 13.48-3.575 3.576-8.425 5.584-13.481 5.584H19.67Z"/>
  <path fill="#F87171" d="M19.67 144.609c-5.056-.001-9.90445-2.01-13.47955-5.585-3.57509-3.576-5.584144-8.424-5.585469-13.48V42.281c-.000263-2.5037.492689-4.983 1.450699-7.2962.95802-2.3132 2.36232-4.415 4.13272-6.1854 1.77041-1.7704 3.8722-3.1747 6.1854-4.1327 2.3132-.958 4.7925-1.451 7.2962-1.4507h52.007l-.31-16.113 24.718 16.113h6.797c2.504-.0001 4.983.4929 7.296 1.4509 2.314.9581 4.415 2.3623 6.186 4.1327 1.771 1.7703 3.175 3.8721 4.133 6.1852.959 2.3132 1.452 4.7924 1.452 7.2962v83.263c0 2.504-.493 4.983-1.451 7.297-.958 2.313-2.363 4.415-4.133 6.185-1.771 1.771-3.873 3.175-6.186 4.133-2.314.958-4.793 1.451-7.297 1.45H19.67Z"/>
  <path fill="#1E293B" fill-rule="evenodd" d="M37.32 70.754c0-2.2091 1.7909-4 4-4h58.473c2.209 0 4 1.7909 4 4 0 2.2091-1.791 4-4 4H41.32c-2.2091 0-4-1.7909-4-4Z" clip-rule="evenodd"/>
  <path fill="#1E293B" fill-rule="evenodd" d="M70.557 50.23c2.2091 0 4 1.7909 4 4v16.524c0 2.2091-1.7909 4-4 4-2.2091 0-4-1.7909-4-4V54.23c0-2.2091 1.7909-4 4-4ZM57.6602 71.6121c.0002.0004.0004.0008.0006.0013l.0118.0251c.0105.0222.0274.0581.0506.1071.0466.0978.1185.2477.2148.4447.1926.3941.4823.9757.861 1.7051.7584 1.4606 1.8686 3.5039 3.2657 5.8148 2.8181 4.6614 6.6732 10.1919 11.0301 14.2685 5.8648 5.2027 12.7911 9.0673 20.2988 11.3273 2.1154.636 3.3143 2.867 2.6777 4.983-.6366 2.115-2.8675 3.314-4.9829 2.677-8.6367-2.599-16.6031-7.049-23.3446-13.0401l-.0364-.0324-.0356-.0332c-5.1616-4.8173-9.4778-11.0895-12.4533-16.0112-1.5036-2.4871-2.6982-4.6855-3.5195-6.2673-.4111-.7917-.7299-1.4314-.9484-1.8784-.1092-.2235-.1935-.399-.2517-.5215-.0291-.0612-.0518-.1092-.0678-.1433l-.019-.0406-.0084-.0181c-.0003-.0007-.0006-.0013 3.6283-1.6839l-3.6289 1.6826c-.9293-2.0041-.0579-4.3822 1.9462-5.3115 2.0038-.9291 4.3812-.0583 5.3109 1.945Z" clip-rule="evenodd"/>
  <path fill="#1E293B" fill-rule="evenodd" d="M87.5666 69.6671c2.0042.9293 2.8756 3.3074 1.9463 5.3115L85.884 73.296c3.6289 1.6826 3.6286 1.6832 3.6283 1.6839l-.0027.0057-.0057.0124-.0191.0406c-.016.0341-.0386.0821-.0677.1433-.0583.1225-.1425.298-.2518.5215-.2184.447-.5373 1.0867-.9484 1.8785-.8213 1.5817-2.0159 3.7801-3.5195 6.2672-2.9754 4.9217-7.2916 11.1939-12.4532 16.0112l-.0356.0332-.0364.0324c-6.7415 5.9911-14.7079 10.4411-23.3446 13.0401-2.1154.637-4.3464-.562-4.9829-2.677-.6366-2.116.5623-4.347 2.6777-4.983 7.5077-2.26 14.434-6.1246 20.2987-11.3273 4.3569-4.0766 8.2121-9.6071 11.0302-14.2685 1.3971-2.3109 2.5073-4.3542 3.2656-5.8148.3788-.7294.6685-1.311.8611-1.7051.0963-.197.1682-.3469.2147-.4447.0233-.049.0402-.0849.0507-.1071l.0117-.0251c.9296-2.0036 3.3077-2.8754 5.3115-1.9463Z" clip-rule="evenodd"/>
</svg>
