<svg xmlns="http://www.w3.org/2000/svg" fill="none" viewBox="0 0 1419 231">
  <path fill="#1E293B" d="M389.687 36.574c-.669-.0064-1.333.1207-1.953.3739-.62.2533-1.183.6275-1.656 1.1009-.474.4734-.848 1.0364-1.101 1.6561-.253.6197-.38 1.2837-.374 1.9531v70.36c-7.322-12.608-22.169-21.149-39.66-21.149-27.659 0-48.811 22.165-48.811 51.245 0 28.876 21.355 51.041 48.811 51.041 17.695 0 32.541-8.541 39.66-21.352v16.268c-.007.67.119 1.334.372 1.954.254.62.628 1.183 1.102 1.656.474.473 1.037.847 1.657 1.1.62.253 1.284.38 1.953.374.67.008 1.334-.119 1.955-.372.62-.253 1.183-.627 1.657-1.1.474-.474.848-1.037 1.101-1.658.253-.62.379-1.284.372-1.954V41.658c.011-1.0087-.281-1.9975-.84-2.8375-.558-.8401-1.357-1.4926-2.291-1.8725-.62-.2533-1.284-.3805-1.954-.374ZM345.96 183.597c-22.372 0-39.252-17.691-39.252-41.687 0-23.792 16.677-41.483 39.252-41.483 23.186 0 38.643 16.674 38.643 41.687 0 24.809-15.457 41.483-38.643 41.483Zm128.334-92.728c-27.457 0-49.218 22.369-49.218 51.245 0 28.672 22.168 51.041 51.048 51.041 6.66.07 13.265-1.209 19.417-3.76 6.152-2.551 11.723-6.322 16.378-11.085 1.831-1.83 2.441-3.05 2.441-4.677.032-.606-.059-1.211-.27-1.78-.21-.569-.535-1.088-.954-1.527-.42-.438-.925-.785-1.483-1.021-.559-.235-1.161-.354-1.767-.349-1.424 0-2.441.61-3.865 2.034-3.88 4.002-8.528 7.182-13.664 9.348-5.137 2.166-10.658 3.274-16.233 3.259-22.575 0-39.252-16.471-40.472-39.043h76.674c4.271 0 6.305-2.44 6.305-6.711v-2.44c0-25.826-18.508-44.534-44.337-44.534Zm0 9.354c20.338 0 34.168 14.845 33.965 34.977h-72.201c2.848-20.132 18.305-34.977 38.236-34.977Zm147.248-9.354c-1.094.0101-2.161.3438-3.066.9589-.905.6152-1.607 1.4844-2.019 2.4981l-36.812 82.561-36.812-82.561c-.435-.9974-1.143-1.8514-2.042-2.4632-.9-.6118-1.955-.9563-3.042-.9938-1.342.0209-2.623.5632-3.572 1.5121-.949.9489-1.492 2.23-1.513 3.5719.009.85.218 1.686.611 2.44l41.489 91.508c.401.964 1.079 1.787 1.948 2.366.868.579 1.889.888 2.933.888 1.011-.031 1.992-.354 2.822-.932.831-.578 1.476-1.385 1.856-2.322l41.693-91.711c.415-.6712.627-1.448.611-2.237-.021-1.3419-.564-2.623-1.513-3.5719-.949-.9489-2.23-1.4912-3.572-1.5121Zm76.675 91.915c-2.237 0-5.288 1.017-10.373 1.017-14.44 0-21.355-6.711-21.355-20.539v-61.005h27.457c.628.014 1.252-.095 1.837-.323.586-.228 1.12-.569 1.573-1.004.454-.434.817-.9536 1.069-1.5284.253-.5749.389-1.1939.402-1.8216-.027-1.2675-.556-2.4723-1.471-3.35-.453-.4345-.988-.7753-1.573-1.003-.585-.2277-1.209-.3378-1.837-.324h-27.457V68.907c.021-1.3736-.502-2.6998-1.454-3.69-.952-.9902-2.257-1.5642-3.63-1.597-1.048-.0072-2.074.2992-2.947.8798-.872.5806-1.551 1.4088-1.949 2.3782-.264.6437-.397 1.3334-.392 2.029v23.996h-12.813c-1.268-.0278-2.495.4492-3.411 1.326-.915.8777-1.443 2.0827-1.47 3.35.026 1.2677.555 2.473 1.47 3.351.453.435.988.776 1.573 1.003.586.228 1.21.338 1.838.324h12.813v61.412c0 18.912 10.779 29.486 30.1 29.486 4.18.064 8.35-.414 12.407-1.423 2.847-.611 4.27-2.237 4.27-4.678.002-.596-.121-1.186-.361-1.732s-.592-1.036-1.033-1.437c-.44-.402-.96-.708-1.525-.898-.566-.189-1.164-.258-1.758-.203Zm72.403-90.695c-15.253 0-27.253 6.507-34.371 17.488V95.953c.006-.6694-.121-1.3333-.374-1.953-.253-.6196-.628-1.1826-1.101-1.6559-.473-.4734-1.036-.8476-1.656-1.1009-.62-.2533-1.284-.3805-1.953-.3742-.669-.0063-1.333.1209-1.953.3742-.62.2533-1.183.6275-1.656 1.1008-.474.4734-.848 1.0363-1.101 1.656-.254.6196-.381 1.2836-.375 1.953v92.118c-.006.669.121 1.333.374 1.953.253.62.627 1.183 1.1 1.657.474.473 1.037.847 1.657 1.1.62.253 1.284.38 1.954.374.669.006 1.333-.121 1.953-.374.62-.253 1.183-.627 1.657-1.1.473-.474.847-1.037 1.1-1.657.253-.62.38-1.284.374-1.953V134.59c0-18.912 14.643-32.74 34.371-32.74.673.05 1.349-.038 1.987-.26.637-.222 1.222-.573 1.718-1.031.496-.457.892-1.0121 1.165-1.6296.272-.6176.414-1.2845.418-1.9594 0-3.05-2.237-4.88-5.288-4.88v-.001Zm57.557-1.22c-6.554-.1178-13.05 1.2476-19.002 3.9943-5.952 2.7466-11.206 6.8037-15.369 11.8667-1.315 1.217-2.116 2.89-2.237 4.678.1 1.17.636 2.259 1.503 3.05.867.791 2 1.227 3.174 1.22.817-.011 1.621-.198 2.359-.549.737-.351 1.39-.858 1.913-1.485 7.931-8.947 16.677-13.217 27.049-13.217 17.084 0 27.05 10.574 27.05 28.672v11.185h-34.168c-20.745 0-34.168 10.167-34.168 26.232 0 15.861 13.626 26.639 33.761 26.639 15.05 0 27.457-6.304 34.575-16.675v11.591c.033 1.373.608 2.678 1.598 3.63.99.952 2.316 1.475 3.69 1.454 1.008.009 1.996-.285 2.836-.843.84-.558 1.493-1.355 1.875-2.288.253-.619.38-1.283.373-1.953v-58.565c0-24.199-13.83-38.637-36.812-38.637Zm-7.118 93.339c-14.643 0-24.202-7.118-24.202-17.895 0-10.981 8.745-17.285 24.609-17.285h33.151v5.49c0 16.472-14.847 29.69-33.558 29.69Zm121.215-93.339c-13.423 0-24.202 5.49-30.914 14.641v-9.557c.01-1.0085-.282-1.9968-.841-2.8367-.558-.8399-1.356-1.4926-2.29-1.8733-.62-.2532-1.284-.3804-1.953-.374-.669-.0063-1.333.1209-1.953.3742-.62.2533-1.183.6275-1.656 1.1008-.474.4734-.848 1.0363-1.101 1.656-.254.6196-.381 1.2836-.375 1.953v92.118c-.006.67.121 1.334.374 1.953.254.62.628 1.183 1.101 1.657s1.036.848 1.656 1.101c.62.253 1.284.38 1.954.373 1.008.009 1.996-.285 2.836-.843.84-.558 1.493-1.355 1.875-2.288.253-.619.38-1.283.373-1.953v-58.362c0-17.081 12.407-29.282 29.287-29.282 16.474 0 27.457 11.591 27.457 29.282v58.362c-.007.67.119 1.334.372 1.954.253.62.628 1.183 1.102 1.656.474.473 1.037.847 1.657 1.1.62.253 1.284.38 1.953.374.67.008 1.334-.119 1.955-.372.62-.253 1.183-.627 1.657-1.1.474-.474.848-1.037 1.101-1.658.253-.62.379-1.284.372-1.954v-58.972c0-23.385-14.034-38.23-35.999-38.23Zm100.466 102.286c17.09 0 32.75-9.151 32.75-27.249 0-14.641-10.37-21.759-25.42-28.266l-9.16-4.067c-11.39-4.881-18.5-8.541-18.5-17.692 0-10.777 9.56-15.454 19.93-15.454 4.41-.032 8.78.877 12.81 2.665 4.03 1.789 7.64 4.416 10.58 7.706 1.83 1.626 3.05 2.236 4.47 2.236 1.24-.07 2.39-.619 3.23-1.531.84-.912 1.28-2.113 1.25-3.349-.14-1.406-.79-2.711-1.84-3.66-3.67-4.328-8.26-7.7929-13.42-10.1479-5.17-2.3549-10.79-3.5421-16.47-3.4771-16.48 0-31.32 9.151-31.32 25.622 0 14.032 10.98 20.539 24.2 26.233l8.95 3.863c10.98 4.881 20.13 8.745 20.13 19.726 0 11.591-10.37 17.284-22.17 17.284-11.79 0-20.94-5.897-28.67-15.658-.47-.571-1.06-1.032-1.73-1.348-.67-.317-1.4-.481-2.14-.482-1.33.055-2.59.609-3.53 1.551-.94.94-1.5 2.202-1.55 3.533.08 1.277.58 2.493 1.42 3.457 4.12 5.745 9.56 10.422 15.86 13.64 6.29 3.219 13.27 4.887 20.34 4.865Zm69.56 0c.68.024 1.35-.091 1.97-.338.63-.246 1.2-.62 1.68-1.097s.85-1.048 1.1-1.676c.24-.627.36-1.299.34-1.973V41.658c0-.67-.12-1.334-.38-1.953-.38-.9333-1.03-1.7305-1.87-2.2885-.84-.5581-1.83-.8512-2.84-.8415-.67-.008-1.33.12-1.95.373-.62.2517-1.19.6254-1.66 1.0989-.47.4736-.85 1.0374-1.1 1.6581-.25.62-.38 1.284-.37 1.953V188.07c-.01 1.009.28 1.998.84 2.838.56.84 1.36 1.492 2.29 1.872.62.254 1.28.381 1.95.374v.001Zm75.86-102.286c-6.55-.1179-13.05 1.2475-19 3.9942-5.95 2.7466-11.21 6.8038-15.37 11.8668-1.31 1.22-2.11 2.892-2.24 4.678.1 1.17.64 2.259 1.51 3.049.86.791 2 1.227 3.17 1.221.82-.011 1.62-.199 2.36-.55.74-.349 1.39-.856 1.91-1.484 7.93-8.947 16.68-13.217 27.05-13.217 17.09 0 27.05 10.574 27.05 28.672v11.185h-34.17c-20.74 0-34.16 10.167-34.16 26.232 0 15.861 13.62 26.639 33.76 26.639 15.05 0 27.45-6.304 34.57-16.675v11.591c.04 1.373.61 2.676 1.6 3.63.99.951 2.32 1.474 3.69 1.454.67.007 1.33-.12 1.95-.374.93-.379 1.73-1.031 2.29-1.872.56-.84.85-1.829.84-2.838v-58.565c0-24.199-13.83-38.637-36.81-38.637Zm-7.12 93.339c-14.64 0-24.2-7.118-24.2-17.895 0-10.981 8.75-17.285 24.61-17.285h33.15v5.49c0 16.472-14.85 29.69-33.56 29.69Zm126.1-1.424c-2.24 0-5.29 1.017-10.37 1.017-14.44 0-21.36-6.711-21.36-20.539v-61.005h27.46c.63.014 1.25-.096 1.84-.324 1.18-.462 2.13-1.372 2.64-2.532.25-.575.39-1.194.4-1.821-.01-.6277-.15-1.2468-.4-1.8218-.25-.5749-.62-1.0942-1.07-1.5282-.45-.4344-.99-.7755-1.57-1.004-.59-.2271-1.21-.3369-1.84-.323h-27.46V68.907c.02-1.373-.5-2.7-1.45-3.69-.95-.9897-2.26-1.5636-3.63-1.597-.7-.005-1.39.128-2.03.392-.64.2643-1.23.6537-1.72 1.1456s-.88 1.0767-1.15 1.7204c-.26.645-.39 1.3339-.39 2.029v23.996h-12.81c-.63-.0139-1.25.0959-1.84.323-.59.228-1.12.569-1.57 1.003-.46.435-.82.954-1.07 1.53-.25.5744-.39 1.1929-.4 1.82.01.6279.15 1.2472.4 1.8223s.62 1.0947 1.07 1.5287c.45.434.98.775 1.57 1.003.59.228 1.21.338 1.84.324h12.81v61.412c0 18.912 10.78 29.486 30.1 29.486 4.18.064 8.35-.414 12.41-1.423 2.84-.611 4.27-2.237 4.27-4.678 0-.596-.12-1.186-.36-1.732s-.6-1.035-1.04-1.437c-.44-.401-.96-.707-1.52-.898-.57-.188-1.17-.258-1.76-.203Zm67.52-91.915c-27.45 0-49.22 22.369-49.22 51.245 0 28.672 22.17 51.041 51.05 51.041 6.66.07 13.27-1.209 19.42-3.76 6.15-2.553 11.72-6.323 16.38-11.085 1.83-1.83 2.44-3.05 2.44-4.677.03-.605-.06-1.211-.27-1.78-.21-.569-.54-1.089-.96-1.527-.42-.44-.92-.789-1.48-1.022-.56-.236-1.16-.354-1.77-.348-1.42 0-2.44.61-3.86 2.034-3.88 4.001-8.53 7.18-13.66 9.348-5.14 2.166-10.66 3.274-16.24 3.259-22.57 0-39.25-16.471-40.47-39.043h76.68c4.27 0 6.3-2.44 6.3-6.711v-2.44c0-25.826-18.51-44.534-44.34-44.534Zm0 9.354c20.34 0 34.17 14.845 33.97 34.977h-72.2c2.84-20.132 18.3-34.977 38.23-34.977Z"/>
  <path fill="#F59E0B" d="M212.748 208.254h-19.029c2.537 0 5.048-.509 7.384-1.497 2.265-.957 4.324-2.345 6.061-4.086 1.741-1.737 3.129-3.795 4.087-6.06.993-2.348 1.502-4.872 1.497-7.421v-83.883c.005-2.549-.504-5.073-1.497-7.42-.958-2.2653-2.345-4.3234-4.087-6.06-1.769-1.7729-3.871-3.1789-6.184-4.1372-2.314-.9583-4.795-1.45-7.299-1.4468h19.067c2.55-.005 5.074.504 7.422 1.497 2.265.9575 4.323 2.3451 6.06 4.086 1.741 1.7368 3.129 3.7948 4.087 6.06.994 2.348 1.503 4.872 1.498 7.421v83.883c.005 2.549-.505 5.072-1.498 7.419-.957 2.266-2.345 4.324-4.087 6.06-1.769 1.773-3.87 3.179-6.184 4.137-2.314.959-4.794 1.451-7.298 1.448Z"/>
  <path fill="#FBBF24" d="M153.628 230.989c-1.211-.076-2.375-.5-3.35-1.222l-29.49-21.513h-11.002c-2.549.003-5.072-.506-7.42-1.497-2.264-.96-4.3223-2.347-6.061-4.086-1.7731-1.768-3.1792-3.87-4.1377-6.183-.9584-2.314-1.4503-4.794-1.4473-7.298v-83.883c-.0035-2.549.5056-5.072 1.497-7.42.9597-2.2642 2.3474-4.3218 4.087-6.06 1.7688-1.773 3.871-3.1791 6.184-4.1375 2.314-.9584 4.795-1.4504 7.299-1.4475l83.894.001c2.549-.0032 5.073.5053 7.421 1.497 4.571 1.9366 8.211 5.575 10.148 10.146.992 2.348 1.501 4.872 1.498 7.421v83.883c.003 2.504-.488 4.984-1.447 7.297-.958 2.313-2.364 4.414-4.137 6.182-1.769 1.773-3.87 3.179-6.184 4.138-2.314.958-4.795 1.45-7.299 1.447h-33.303v16.381c.009 1.215-.334 2.407-.988 3.432-.617.953-1.476 1.726-2.489 2.238-.899.458-1.894.698-2.903.7-.123-.001-.247-.006-.37-.016Z"/>
  <path fill="#1E293B" fill-rule="evenodd" d="M162.232 115.671c1.695.027 3.189 1.121 3.727 2.729l11.617 34.708c.004.01.007.019.011.028l5.987 16.596c.75 2.078-.326 4.371-2.404 5.12-2.078.75-4.37-.326-5.12-2.404l-5.037-13.954h-19.012l-5.463 14.694c-.769 2.07-3.072 3.125-5.143 2.355-2.07-.769-3.125-3.072-2.355-5.143l6.398-17.212c.02-.059.042-.117.065-.174l12.914-34.738c.591-1.589 2.119-2.633 3.815-2.605Zm-7.258 34.823 6.994-18.813 6.297 18.813h-13.291Z" clip-rule="evenodd"/>
  <path fill="#EF4444" d="M19.67 144.61c-5.0558-.001-9.90413-2.01-13.47919-5.585-3.57507-3.575-5.584239-8.423-5.58583-13.479V42.282c-.000131-2.5036.49292-4.9828 1.45099-7.2959.95807-2.313 2.3624-4.4147 4.13279-6.185 1.77039-1.7703 3.87214-3.1745 6.18524-4.1325 2.3132-.9579 4.7923-1.4509 7.296-1.4506h52.892L71.335 6.844c-.0905-1.19989.1616-2.40081.7269-3.46304s1.4206-1.9421 2.4665-2.537237c1.0458-.59514 2.2391-.8810834 3.441-.8245618C79.1714.0756828 80.3326.472345 81.318 1.163l31.501 22.055h9.131c5.056-.0003 9.906 2.0081 13.482 5.5832 3.575 3.5752 5.584 8.4244 5.585 13.4808v83.264c-.001 5.056-2.01 9.905-5.586 13.48-3.575 3.576-8.425 5.584-13.481 5.584H19.67Z"/>
  <path fill="#F87171" d="M19.67 144.609c-5.056-.001-9.90445-2.01-13.47955-5.585-3.57509-3.576-5.584144-8.424-5.585469-13.48V42.281c-.000263-2.5037.492689-4.983 1.450699-7.2962.95802-2.3132 2.36232-4.415 4.13272-6.1854 1.7704-1.7704 3.8722-3.1747 6.1854-4.1327 2.3132-.958 4.7925-1.451 7.2962-1.4507h52.007l-.31-16.113 24.718 16.113h6.797c2.504-.0001 4.983.4929 7.296 1.4509 2.314.9581 4.415 2.3623 6.186 4.1327 1.771 1.7703 3.175 3.8721 4.133 6.1852.959 2.3132 1.452 4.7924 1.452 7.2962v83.263c0 2.504-.493 4.983-1.451 7.297-.958 2.313-2.363 4.415-4.133 6.185-1.771 1.771-3.873 3.175-6.186 4.133-2.314.958-4.793 1.451-7.297 1.45H19.67Z"/>
  <path fill="#1E293B" fill-rule="evenodd" d="M37.32 70.754c0-2.2091 1.7909-4 4-4h58.473c2.209 0 4 1.7909 4 4 0 2.2091-1.791 4-4 4H41.32c-2.2091 0-4-1.7909-4-4Z" clip-rule="evenodd"/>
  <path fill="#1E293B" fill-rule="evenodd" d="M70.557 50.23c2.2091 0 4 1.7909 4 4v16.524c0 2.2091-1.7909 4-4 4-2.2091 0-4-1.7909-4-4V54.23c0-2.2091 1.7909-4 4-4ZM57.6602 71.6121c.0002.0004.0004.0008.0006.0013l.0118.0251c.0105.0222.0274.0581.0506.1071.0466.0978.1185.2477.2148.4447.1926.3941.4823.9757.861 1.7051.7584 1.4606 1.8686 3.5039 3.2657 5.8148 2.8181 4.6614 6.6732 10.1919 11.0301 14.2685 5.8648 5.2027 12.7911 9.0673 20.2988 11.3273 2.1154.636 3.3143 2.867 2.6777 4.983-.6366 2.115-2.8675 3.314-4.9829 2.677-8.6367-2.599-16.6031-7.049-23.3446-13.0401l-.0364-.0324-.0356-.0332c-5.1616-4.8173-9.4778-11.0895-12.4533-16.0112-1.5036-2.4871-2.6982-4.6855-3.5195-6.2673-.4111-.7917-.7299-1.4314-.9484-1.8784-.1092-.2235-.1935-.399-.2517-.5215-.0291-.0612-.0518-.1092-.0678-.1433l-.019-.0406-.0084-.0181c-.0003-.0007-.0006-.0013 3.6283-1.6839l-3.6289 1.6826c-.9293-2.0041-.0579-4.3822 1.9462-5.3115 2.0038-.9291 4.3812-.0583 5.3109 1.945Z" clip-rule="evenodd"/>
  <path fill="#1E293B" fill-rule="evenodd" d="M87.5666 69.6671c2.0042.9293 2.8756 3.3074 1.9463 5.3115L85.884 73.296c3.6289 1.6826 3.6286 1.6832 3.6283 1.6839l-.0027.0057-.0057.0124-.0191.0406c-.016.0341-.0386.0821-.0677.1433-.0583.1225-.1425.298-.2518.5215-.2184.447-.5373 1.0867-.9484 1.8785-.8213 1.5817-2.0159 3.7801-3.5195 6.2672-2.9754 4.9217-7.2916 11.1939-12.4532 16.0112l-.0356.0332-.0364.0324c-6.7415 5.9911-14.7079 10.4411-23.3446 13.0401-2.1154.637-4.3464-.562-4.9829-2.677-.6366-2.116.5623-4.347 2.6777-4.983 7.5077-2.26 14.434-6.1246 20.2987-11.3273 4.3569-4.0766 8.2121-9.6071 11.0302-14.2685 1.3971-2.3109 2.5073-4.3542 3.2656-5.8148.3788-.7294.6685-1.311.8611-1.7051.0963-.197.1682-.3469.2147-.4447.0233-.049.0402-.0849.0507-.1071l.0117-.0251c.9296-2.0036 3.3077-2.8754 5.3115-1.9463Z" clip-rule="evenodd"/>
</svg>
