<svg xmlns="http://www.w3.org/2000/svg" fill="none" viewBox="0 0 1123 158">
  <path fill="#1E293B" d="M93.687.574003c-.6694-.006412-1.3334.120711-1.9531.373935-.6197.253222-1.1827.627462-1.6561 1.100842-.4734.47338-.8476 1.03638-1.1009 1.6561-.2532.61971-.3803 1.2837-.3739 1.95312v70.36c-7.322-12.608-22.169-21.149-39.66-21.149-27.659 0-48.811011 22.165-48.811011 51.245 0 28.876 21.355011 51.041 48.811011 51.041 17.695 0 32.541-8.541 39.66-21.352v16.268c-.0073.67.1193 1.334.3724 1.954.2531.62.6277 1.183 1.1016 1.656.4738.473 1.037.847 1.6568 1.1.6198.253 1.2838.38 1.9532.374.6698.008 1.3343-.119 1.9545-.372.6203-.253 1.1838-.627 1.6575-1.1.4737-.474.848-1.037 1.1009-1.658.253-.62.3795-1.284.3721-1.954V5.658c.0114-1.0087-.2811-1.99746-.8396-2.83754-.5584-.84008-1.3569-1.49255-2.2914-1.872457-.62-.253309-1.2843-.380455-1.954-.374ZM49.96 147.597c-22.372 0-39.252-17.691-39.252-41.687 0-23.792 16.677-41.483 39.252-41.483 23.186 0 38.643 16.674 38.643 41.687 0 24.809-15.457 41.483-38.643 41.483Zm128.334-92.728c-27.457 0-49.218 22.369-49.218 51.245 0 28.672 22.168 51.041 51.048 51.041 6.66.07 13.265-1.209 19.417-3.76 6.152-2.551 11.723-6.322 16.378-11.085 1.831-1.83 2.441-3.05 2.441-4.677.032-.606-.059-1.211-.27-1.78-.21-.569-.535-1.088-.954-1.527-.42-.438-.925-.785-1.483-1.021-.559-.235-1.161-.354-1.767-.349-1.424 0-2.441.61-3.865 2.034-3.88 4.002-8.528 7.182-13.664 9.348-5.137 2.166-10.658 3.274-16.233 3.259-22.575 0-39.252-16.471-40.472-39.043h76.674c4.271 0 6.305-2.44 6.305-6.711v-2.44c0-25.826-18.508-44.534-44.337-44.534Zm0 9.354c20.338 0 34.168 14.845 33.965 34.977h-72.201c2.848-20.132 18.305-34.977 38.236-34.977Zm147.248-9.354c-1.094.0101-2.161.3438-3.066.9589-.905.6152-1.607 1.4844-2.019 2.4981l-36.812 82.561-36.812-82.561c-.435-.9974-1.143-1.8514-2.042-2.4632-.9-.6118-1.955-.9563-3.042-.9938-1.342.0209-2.623.5632-3.572 1.5121-.949.9489-1.492 2.23-1.513 3.5719.009.85.218 1.686.611 2.44l41.489 91.508c.401.964 1.079 1.787 1.948 2.366.868.579 1.889.888 2.933.888 1.011-.031 1.992-.354 2.822-.932.831-.578 1.476-1.385 1.856-2.322l41.693-91.711c.415-.6712.627-1.448.611-2.237-.021-1.3419-.564-2.623-1.513-3.5719-.949-.9489-2.23-1.4912-3.572-1.5121Zm76.675 91.915c-2.237 0-5.288 1.017-10.373 1.017-14.44 0-21.355-6.711-21.355-20.539V66.257h27.457c.628.0144 1.252-.0954 1.837-.3231.586-.2278 1.12-.5689 1.573-1.0039.454-.4342.817-.9536 1.069-1.5284.253-.5749.389-1.1939.402-1.8216-.027-1.2675-.556-2.4723-1.471-3.35-.453-.4345-.988-.7753-1.573-1.003-.585-.2277-1.209-.3378-1.837-.324h-27.457V32.907c.021-1.3736-.502-2.6998-1.454-3.69-.952-.9902-2.257-1.5642-3.63-1.597-1.048-.0072-2.074.2992-2.947.8798-.872.5806-1.551 1.4088-1.949 2.3782-.264.6437-.397 1.3334-.392 2.029v23.996h-12.813c-1.268-.0278-2.495.4492-3.411 1.326-.915.8777-1.443 2.0827-1.47 3.35.026 1.2677.555 2.473 1.47 3.351.453.4347.988.7757 1.573 1.0034.586.2278 1.21.3377 1.838.3236h12.813v61.412c0 18.912 10.779 29.486 30.1 29.486 4.18.064 8.35-.414 12.407-1.423 2.847-.611 4.27-2.237 4.27-4.678.002-.596-.121-1.186-.361-1.732s-.592-1.036-1.033-1.437c-.44-.402-.96-.708-1.525-.898-.566-.189-1.164-.258-1.758-.203Zm72.403-90.695c-15.253 0-27.253 6.507-34.371 17.488V59.953c.006-.6694-.121-1.3333-.374-1.953-.253-.6196-.628-1.1826-1.101-1.6559-.473-.4734-1.036-.8476-1.656-1.1009-.62-.2533-1.284-.3805-1.953-.3742-.669-.0063-1.333.1209-1.953.3742-.62.2533-1.183.6275-1.656 1.1008-.474.4734-.848 1.0363-1.101 1.656-.254.6196-.381 1.2836-.375 1.953v92.118c-.006.669.121 1.333.374 1.953.253.62.627 1.183 1.1 1.657.474.473 1.037.847 1.657 1.1.62.253 1.284.38 1.954.374.669.006 1.333-.121 1.953-.374.62-.253 1.183-.627 1.657-1.1.473-.474.847-1.037 1.1-1.657.253-.62.38-1.284.374-1.953V98.59c0-18.912 14.643-32.74 34.371-32.74.673.0505 1.349-.038 1.987-.26.637-.2221 1.222-.5728 1.718-1.0306.496-.4577.892-1.0125 1.165-1.63.272-.6176.414-1.2845.418-1.9594 0-3.05-2.237-4.88-5.288-4.88v-.001Zm57.557-1.22c-6.554-.1178-13.05 1.2476-19.002 3.9943-5.952 2.7466-11.206 6.8033-15.369 11.8667-1.315 1.2167-2.116 2.8903-2.237 4.678.1 1.1695.636 2.2586 1.503 3.05.867.7914 2 1.227 3.174 1.22.817-.0107 1.621-.1981 2.359-.5492.737-.3511 1.39-.8576 1.913-1.4848 7.931-8.947 16.677-13.217 27.049-13.217 17.084 0 27.05 10.574 27.05 28.672v11.185h-34.168c-20.745 0-34.168 10.167-34.168 26.232 0 15.861 13.626 26.639 33.761 26.639 15.05 0 27.457-6.304 34.575-16.675v11.591c.033 1.373.608 2.678 1.598 3.63.99.952 2.316 1.475 3.69 1.454 1.008.009 1.996-.285 2.836-.843.84-.558 1.493-1.355 1.875-2.288.253-.619.38-1.283.373-1.953V93.506c0-24.199-13.83-38.637-36.812-38.637Zm-7.118 93.339c-14.643 0-24.202-7.118-24.202-17.895 0-10.981 8.745-17.285 24.609-17.285h33.151v5.49c0 16.472-14.847 29.69-33.558 29.69Zm121.215-93.339c-13.423 0-24.202 5.49-30.914 14.641v-9.557c.01-1.0085-.282-1.9968-.841-2.8367-.558-.8399-1.356-1.4926-2.29-1.8733-.62-.2532-1.284-.3804-1.953-.374-.669-.0063-1.333.1209-1.953.3742-.62.2533-1.183.6275-1.656 1.1008-.474.4734-.848 1.0363-1.101 1.656-.254.6196-.381 1.2836-.375 1.953v92.118c-.006.67.121 1.334.374 1.953.254.62.628 1.183 1.101 1.657s1.036.848 1.656 1.101c.62.253 1.284.38 1.954.373 1.008.009 1.996-.285 2.836-.843.84-.558 1.493-1.355 1.875-2.288.253-.619.38-1.283.373-1.953V93.709c0-17.081 12.407-29.282 29.287-29.282 16.474 0 27.457 11.591 27.457 29.282v58.362c-.007.67.119 1.334.372 1.954.253.62.628 1.183 1.102 1.656.474.473 1.037.847 1.657 1.1.62.253 1.284.38 1.953.374.67.008 1.334-.119 1.955-.372.62-.253 1.183-.627 1.657-1.1.474-.474.848-1.037 1.101-1.658.253-.62.379-1.284.372-1.954V93.099c0-23.385-14.034-38.23-35.999-38.23ZM746.74 157.155c17.09 0 32.75-9.151 32.75-27.249 0-14.641-10.37-21.759-25.42-28.266l-9.16-4.067c-11.39-4.881-18.5-8.541-18.5-17.692 0-10.777 9.56-15.454 19.93-15.454 4.41-.032 8.78.877 12.81 2.665 4.033 1.7892 7.64 4.416 10.58 7.706 1.83 1.626 3.05 2.236 4.47 2.236 1.235-.0697 2.394-.6191 3.23-1.531.836-.9115 1.284-2.1127 1.25-3.349-.137-1.4062-.793-2.7108-1.84-3.66-3.675-4.3281-8.258-7.7929-13.425-10.1479-5.166-2.3549-10.788-3.5421-16.465-3.4771-16.48 0-31.32 9.151-31.32 25.622 0 14.032 10.98 20.539 24.2 26.233l8.95 3.863c10.98 4.881 20.13 8.745 20.13 19.726 0 11.591-10.37 17.284-22.17 17.284-11.79 0-20.94-5.897-28.67-15.658-.47-.571-1.061-1.032-1.73-1.348-.669-.317-1.4-.481-2.14-.482-1.33.055-2.59.609-3.53 1.551-.943.94-1.497 2.202-1.55 3.533.08 1.277.579 2.493 1.42 3.457 4.124 5.745 9.56 10.422 15.857 13.64 6.297 3.219 13.271 4.887 20.343 4.865Zm69.56 0c.68.024 1.35-.091 1.97-.338.629-.246 1.201-.62 1.679-1.097s.853-1.048 1.101-1.676c.24-.627.36-1.299.34-1.973V5.658c0-.67-.12-1.334-.38-1.953-.382-.93326-1.034-1.73051-1.874-2.28854-.84-.558042-1.828-.851173-2.836-.841458-.67-.008-1.33.120001-1.95.373001-.621.251717-1.185.625397-1.659 1.098947-.474.47355-.849 1.03735-1.101 1.65805-.25.62-.38 1.284-.37 1.953V152.07c-.012 1.009.28 1.998.839 2.838.558.84 1.356 1.492 2.291 1.872.62.254 1.28.381 1.95.374v.001Zm75.86-102.286c-6.554-.1179-13.05 1.2475-19.002 3.9942-5.951 2.7466-11.205 6.8033-15.368 11.8668-1.311 1.2202-2.111 2.8916-2.24 4.678.101 1.1703.64 2.2593 1.51 3.049.86.791 2 1.227 3.17 1.221.817-.0111 1.622-.1987 2.36-.55.737-.3494 1.389-.8559 1.91-1.484 7.93-8.947 16.68-13.217 27.05-13.217 17.09 0 27.05 10.574 27.05 28.672v11.185h-34.17c-20.74 0-34.16 10.167-34.16 26.232 0 15.861 13.62 26.639 33.76 26.639 15.05 0 27.45-6.304 34.57-16.675v11.591c.037 1.373.612 2.676 1.6 3.63.991.951 2.317 1.474 3.69 1.454.67.007 1.33-.12 1.95-.374.935-.379 1.734-1.031 2.292-1.872.559-.84.851-1.829.838-2.838V93.506c0-24.199-13.83-38.637-36.81-38.637Zm-7.12 93.339c-14.64 0-24.2-7.118-24.2-17.895 0-10.981 8.75-17.285 24.61-17.285h33.15v5.49c0 16.472-14.85 29.69-33.56 29.69Zm126.1-1.424c-2.24 0-5.29 1.017-10.37 1.017-14.44 0-21.36-6.711-21.36-20.539V66.257h27.46c.63.0138 1.25-.0963 1.84-.324 1.18-.462 2.13-1.3723 2.64-2.532.25-.575.39-1.194.4-1.821-.01-.6277-.15-1.2468-.4-1.8218-.25-.5749-.62-1.0942-1.07-1.5282-.45-.4344-.99-.7755-1.57-1.004-.59-.2271-1.21-.3369-1.84-.323h-27.46V32.907c.02-1.373-.5-2.7-1.45-3.69-.952-.9897-2.257-1.5636-3.63-1.597-.7-.005-1.39.128-2.03.392-.644.2643-1.229.6537-1.722 1.1456-.493.4919-.883 1.0767-1.148 1.7204-.259.645-.391 1.3339-.39 2.029v23.996h-12.81c-.629-.0139-1.254.0959-1.84.323-.59.228-1.12.569-1.57 1.003-.46.435-.82.954-1.07 1.53-.252.5744-.388 1.1929-.4 1.82.012.6279.148 1.2472.4 1.8223.253.5751.616 1.0946 1.07 1.5287.45.434.98.775 1.57 1.003.586.2277 1.211.3378 1.84.324h12.81v61.412c0 18.912 10.78 29.486 30.1 29.486 4.18.064 8.35-.414 12.41-1.423 2.84-.611 4.27-2.237 4.27-4.678 0-.596-.12-1.186-.36-1.732s-.6-1.035-1.04-1.437c-.44-.401-.96-.707-1.52-.898-.57-.188-1.17-.258-1.76-.203Zm67.52-91.915c-27.45 0-49.22 22.369-49.22 51.245 0 28.672 22.17 51.041 51.05 51.041 6.66.07 13.27-1.209 19.42-3.76 6.15-2.553 11.72-6.323 16.38-11.085 1.83-1.83 2.44-3.05 2.44-4.677.03-.605-.06-1.211-.27-1.78-.21-.569-.54-1.089-.96-1.527-.42-.44-.92-.789-1.48-1.022-.56-.236-1.16-.354-1.77-.348-1.42 0-2.44.61-3.86 2.034-3.88 4.001-8.53 7.18-13.66 9.348-5.14 2.166-10.66 3.274-16.24 3.259-22.57 0-39.25-16.471-40.47-39.043h76.68c4.27 0 6.3-2.44 6.3-6.711v-2.44c0-25.826-18.51-44.534-44.34-44.534Zm0 9.354c20.34 0 34.17 14.845 33.97 34.977h-72.2c2.84-20.132 18.3-34.977 38.23-34.977Z"/>
</svg>
