<svg xmlns="http://www.w3.org/2000/svg" fill="none" viewBox="0 0 493 394">
  <g filter="url(#a)">
    <ellipse cx="362.8" cy="185.013" fill="#BFDBFE" rx="24.1786" ry="23.9187"/>
  </g>
  <g filter="url(#b)">
    <ellipse cx="99.1786" cy="99.736" fill="#BFDBFE" rx="24.1786" ry="23.9187"/>
  </g>
  <g filter="url(#c)">
    <ellipse cx="340.9" cy="130.261" fill="#FECACA" rx="21.0588" ry="50.3595" transform="rotate(-46.85 340.9 130.261)"/>
  </g>
  <g filter="url(#d)">
    <circle cx="155.222" cy="145.12" r="34.3444" fill="#FECACA" transform="rotate(-90.24 155.222 145.12)"/>
  </g>
  <g filter="url(#e)">
    <ellipse cx="386.98" cy="278.336" fill="#FED7AA" rx="30.1583" ry="29.8983"/>
  </g>
  <path fill="#FBBF24" d="M231.715 280.522c0 34.699-18.911 60.174-45.999 71.043-8.959 3.58-18.781 5.566-29.125 5.775-.548.026-1.123.026-1.672.026-42.42 0-76.8218-34.411-76.8218-76.818 0-14.972 3.6047-28.95 10.3962-40.787 1.7501-3.083 3.7353-6.035 5.9556-8.779l2.6382-3.135.1045-.131c13.2693-14.789 32.9653-23.986 57.7273-23.986 42.421-.078 76.796 34.333 76.796 76.792Z"/>
  <path fill="#F87171" d="m377.265 139.797-11.728 11.706-51.615-51.6823c1.985-3.4751 4.232-6.7934 6.713-9.9027l2.978-3.5535.13-.1306 53.522 53.5631ZM149.507 167.067c-2.639-2.874-5.146-5.852-7.445-9.014-.757-1.045-2.534-.026-1.75 1.019 2.377 3.318 4.989 6.428 7.758 9.433.888.992 2.325-.471 1.437-1.438ZM167.804 124.908v5.434c0 1.307 2.037 1.307 2.037 0v-5.434c0-1.333-2.037-1.333-2.037 0Z"/>
  <path fill="#FBBF24" d="m392.335 262.039 11.206-3.449-3.239 11.575-7.967-8.126Z"/>
  <path fill="#60A5FA" d="m362.978 176.099-8.594 6.663 8.594 7.185 7.732-7.185-7.732-6.663Z"/>
  <path fill="#FBBF24" d="M375.112 296.173c-1.985-1.829-4.153-3.422-5.955-5.434-.888-.993-2.325.47-1.437 1.437 1.802 2.012 3.997 3.605 5.956 5.434.966.915 2.403-.548 1.436-1.437Z"/>
  <path fill="#60A5FA" d="M99.7266 82.5747v14.4491l14.8624-11.0263-14.8624-3.4228Z"/>
  <path fill="#27272A" d="M407.936 127.497c-11.206 0-20.322-9.119-20.322-20.328 0-11.9671 8.359-20.3282 20.322-20.3282 11.206 0 20.322 9.1189 20.322 20.3282 0 11.784-8.541 20.328-20.322 20.328Zm0-38.6182c-10.762 0-18.285 7.5251-18.285 18.2902 0 10.085 8.202 18.29 18.285 18.29 10.605 0 18.285-7.682 18.285-18.29 0-10.0858-8.202-18.2902-18.285-18.2902ZM393.454 242.082c-.287 0-.574-.131-.757-.34-3.291-3.71-5.12-8.518-5.12-13.482 0-11.967 8.359-20.328 20.322-20.328 11.206 0 20.322 9.118 20.322 20.328 0 2.299-.313 4.52-.966 6.61-.078.288-.313.523-.601.653-10.318 4.129-21.497 6.323-33.2 6.559.027 0 0 0 0 0Zm14.471-32.112c-10.761 0-18.284 7.525-18.284 18.29 0 4.311 1.515 8.491 4.284 11.784 11.101-.262 21.706-2.352 31.554-6.245.496-1.751.731-3.606.731-5.539 0-10.086-8.202-18.29-18.285-18.29ZM413.862 194.964c-11.076 0-21.08-6.114-26.122-15.991-.261-.496-.052-1.123.445-1.385.496-.261 1.123-.052 1.384.445 4.702 9.171 14.001 14.867 24.293 14.867 15.803 0 27.27-11.471 27.27-27.279 0-15.05-12.225-27.278-27.27-27.278-16.065 0-27.271 11.209-27.271 27.278 0 .575-.444 1.019-1.019 1.019-.574 0-1.018-.444-1.018-1.019 0-17.271 12.041-29.316 29.308-29.316 16.168 0 29.307 13.143 29.307 29.316 0 17.01-12.329 29.343-29.307 29.343Z"/>
  <path fill="#27272A" d="M416.639 96.5656c-3.605 5.2514-7.68 10.6864-9.691 16.8004-2.168-2.586-4.206-5.278-6.374-7.864-.862-.993-2.299.444-1.437 1.437 2.56 3.031 4.911 6.244 7.523 9.249.497.575 1.515.261 1.698-.444 1.672-6.715 6.217-12.568 10.057-18.1593.731-1.0713-1.045-2.0903-1.776-1.0191ZM412.891 223.634c-2.403 3.58-4.545 7.343-7.262 10.713-1.619-1.385-2.821-3.161-4.414-4.599-.967-.888-2.403.549-1.437 1.438 1.933 1.75 3.37 3.945 5.485 5.487.34.235.967.156 1.228-.157 3.109-3.684 5.486-7.865 8.15-11.863.731-1.097-1.019-2.116-1.75-1.019ZM411.736 145.847v26.234c0 1.306 2.038 1.306 2.038 0v-26.234c0-1.306-2.038-1.306-2.038 0ZM413.498 181.17c.209-.967.392-1.96.523-2.926.183-1.281-1.803-1.725-1.985-.418-.131.992-.314 1.959-.523 2.926-.287 1.28 1.698 1.724 1.985.418ZM367.029 212.773h-40.383c-.574 0-1.019-.444-1.019-1.019 0-.574.445-1.019 1.019-1.019h40.383c.575 0 1.019.445 1.019 1.019 0 .575-.444 1.019-1.019 1.019ZM367.037 109.277h-27.192c-.575 0-1.019-.444-1.019-1.019s.444-1.019 1.019-1.019h27.192c.575 0 1.019.444 1.019 1.019 0 .549-.444 1.019-1.019 1.019ZM370.689 166.341H305.622c.156.68.287 1.359.391 2.038h64.702c.575 0 1.019-.444 1.019-1.019-.026-.548-.496-1.019-1.045-1.019Z"/>
  <path fill="#27272A" d="M391.609 253.864c-12.12 0-23.927-2.143-35.107-6.402-7.993-2.978-15.646-7.08-22.751-12.149-26.017-18.656-41.559-48.887-41.559-80.868 0-58.5539 40.879-99.445 99.417-99.445C446.411 55 491 99.6013 491 154.445c0 57.613-41.82 99.419-99.391 99.419Zm0-196.826c-57.336 0-97.38 40.055-97.38 97.407 0 31.328 15.229 60.932 40.723 79.222 6.948 4.964 14.445 8.962 22.281 11.914 10.945 4.155 22.517 6.245 34.376 6.245 56.421 0 97.353-40.943 97.353-97.381 0-53.72-43.674-97.407-97.353-97.407Z"/>
  <path fill="#27272A" d="M391.606 242.093c-48.324 0-87.636-39.324-87.636-87.635 0-16.932 4.101-33.001 11.859-46.483 1.985-3.475 4.257-6.872 6.791-10.0336l3.004-3.5796s.131-.1568.157-.1568c16.064-17.9242 38.842-27.3827 65.825-27.3827 48.298 0 87.61 39.3237 87.61 87.6617 0 37.573-19.617 67.856-52.477 81.024-10.344 4.155-21.524 6.35-33.2 6.585h-1.933Zm0-173.2588c-26.408 0-48.638 9.2234-64.31 26.7034l-3.082 3.658c-2.456 3.0834-4.676 6.3754-6.609 9.7724-7.575 13.195-11.598 28.924-11.598 45.49 0 47.188 38.398 85.597 85.599 85.597.627 0 1.254 0 1.854-.026 11.442-.209 22.386-2.378 32.495-6.428 32.051-12.855 51.197-42.433 51.197-79.143 0-47.215-38.371-85.6238-85.546-85.6238ZM268.039 393.777c-.183 0-.366-.052-.523-.157l-15.725-9.641c-.47-.287-.627-.888-.365-1.359l15.829-28.532c.261-.496.888-.679 1.384-.392.497.261.68.889.392 1.385l-15.359 27.67 14.001 8.596 19.173-31.563c.287-.47.914-.627 1.41-.34.47.288.627.915.34 1.411l-19.695 32.452c-.131.235-.366.392-.627.47h-.235ZM306.755 330.019c-.183 0-.366-.052-.523-.156-.47-.288-.627-.915-.339-1.411l50.1-82.488c.287-.47.914-.627 1.41-.34.471.288.627.915.34 1.411l-50.1 82.488c-.209.313-.549.496-.888.496ZM288.845 317.946c-.156 0-.339-.052-.496-.131-.496-.261-.679-.888-.392-1.384l45.477-82.462c.261-.496.888-.679 1.385-.392.496.261.679.888.391 1.385l-45.476 82.462c-.183.339-.549.522-.889.522Z"/>
  <path fill="#27272A" d="M306.765 330.02c-.182 0-.365-.052-.522-.157-.47-.287-.627-.914-.34-1.411l37.223-61.323c-6.739-3.449-13.505-6.794-20.139-9.955l-30.928 56.045c-.261.497-.888.68-1.384.392-.496-.261-.679-.888-.392-1.385l31.398-56.881c.261-.471.835-.654 1.332-.418 7.261 3.422 14.68 7.08 22.046 10.895.261.131.444.366.522.627.079.261.026.575-.104.81l-37.823 62.264c-.209.314-.549.497-.889.497ZM272.834 385.886c-.183 0-.34-.053-.497-.131l-16.299-9.406c-.47-.288-.653-.889-.392-1.385l11.624-20.877c.261-.496.888-.679 1.384-.392.497.261.679.889.392 1.385l-11.128 20.014 14.55 8.388 14.393-23.699c.287-.47.914-.627 1.41-.34.47.288.627.915.34 1.411l-14.915 24.561c-.183.288-.523.471-.862.471ZM368.318 161.097c-.262 0-.523-.104-.732-.287l-51.615-51.683c-.313-.313-.392-.836-.157-1.228 1.986-3.475 4.258-6.871 6.792-10.0329l3.004-3.5796c.183-.2091.522-.4181.81-.4442.287 0 .626.0261.835.2351l53.549 53.5636c.182.183.287.444.287.732 0 .261-.105.522-.287.731l-11.729 11.706c-.235.183-.496.287-.757.287Zm-50.362-52.858 50.362 50.376 10.291-10.269-52.033-52.0215-2.377 2.848c-2.298 2.8485-4.388 5.9055-6.243 9.0665Z"/>
  <path fill="#27272A" d="m385.559 165.605-6.138-16.356-10.213 10.216 16.351 6.14Z"/>
  <path fill="#27272A" d="M385.56 166.628c-.13 0-.235-.026-.365-.052l-16.352-6.14c-.314-.131-.575-.392-.627-.732-.052-.34.026-.679.287-.941l10.214-10.216c.235-.235.6-.339.94-.287.34.078.627.313.731.627l6.139 16.356c.13.366.052.784-.235 1.072-.209.209-.47.313-.732.313Zm-14.523-7.551 12.773 4.782-4.78-12.777-7.993 7.995ZM287.024 361.319c-5.25 0-12.46-2.116-22.151-8.674-10.631-7.186-14.262-6.95-29.542-6.01-9.117.575-21.603 1.333-41.69.993-65.59-1.176-98.4763-19.231-100.4876-55.21-2.2986-41.283 30.5356-62.578 55.4556-75.015 24.606-12.28 68.332-13.169 68.75-13.169.601 0 1.019.445 1.045.993 0 .575-.444 1.019-.993 1.045-.444 0-43.7.889-67.888 12.96-24.397 12.176-56.5524 33.001-54.3321 73.082 1.9329 34.699 34.1661 52.126 98.4761 53.276 20.035.366 32.469-.418 41.533-.993 15.072-.941 19.617-1.228 30.823 6.349 18.023 12.176 26.513 8.335 29.961 4.965.392-.392 1.045-.392 1.436.026.392.392.392 1.045-.026 1.437-1.907 1.881-5.198 3.945-10.37 3.945Z"/>
  <path fill="#27272A" d="M293.253 307.333c-.183 0-.366-.053-.549-.157-6.713-4.233-38.006-4.938-68.254-5.592-23.822-.522-48.429-1.071-62.247-3.344-12.068-1.986-18.572-7.865-17.396-15.756 1.332-9.014 13.295-18.525 26.147-16.8.522.078.888.496.888 1.019 0 .548-.209 13.351-11.18 22.81-.418.366-1.071.313-1.436-.105-.366-.418-.314-1.071.104-1.437 8.646-7.472 10.161-17.349 10.422-20.38-11.414-.993-21.732 7.29-22.908 15.181-.992 6.715 4.728 11.627 15.725 13.43 13.661 2.247 38.215 2.796 61.959 3.318 31.92.706 62.09 1.359 69.3 5.905.47.314.626.941.313 1.411-.235.34-.549.497-.888.497Z"/>
  <path fill="#27272A" d="M147.35 278.008c-.418 0-.784-.262-.941-.654-4.048-10.556-23.979-24.769-42.185-22.052-.549.078-1.071-.314-1.15-.862-.078-.549.314-1.072.862-1.15 19.435-2.9 40.018 11.915 44.38 23.333.209.522-.052 1.123-.575 1.306-.156.052-.287.079-.391.079ZM307.01 327.088c-.679 1.541-1.672 1.672-2.064 1.698-4.675.523-14.131-9.171-16.378-14.658-.208-.523-.809-.758-1.332-.549-.522.209-.757.81-.548 1.333 2.246 5.487 11.728 15.938 17.919 15.938.183 0 .392 0 .574-.026 1.594-.183 3.631-1.202 4.31-5.016-.835.365-1.671.783-2.481 1.28Z"/>
  <path fill="#27272A" d="M303.884 340.052c-3.997 0-8.907-1.306-14.654-4.938-.47-.287-.627-.941-.314-1.411.288-.47.915-.627 1.411-.313 15.803 9.928 22.751 1.149 23.509.104 2.116-2.952 1.149-9.249-1.907-12.463-.392-.418-.366-1.045.026-1.437.418-.392 1.045-.366 1.437.026 3.761 3.971 4.78 11.287 2.09 15.05-1.855 2.587-5.747 5.382-11.598 5.382Z"/>
  <path fill="#27272A" d="M300.936 348.928c-4.388 0-10.031-2.43-17.527-5.957-.523-.236-.732-.837-.497-1.359.235-.497.836-.732 1.359-.497 10.291 4.834 16.822 7.526 20.818 4.442 3.892-3.031 3.448-6.192 3.422-6.323-.078-.548.287-1.071.836-1.176.548-.104 1.071.288 1.175.837.026.182.706 4.468-4.179 8.282-1.567 1.202-3.344 1.751-5.407 1.751Z"/>
  <path fill="#27272A" d="M295.451 357.038c-4.389 0-10.031-2.43-17.528-5.958-.522-.235-.731-.836-.496-1.358.235-.497.836-.732 1.358-.497 10.292 4.834 16.822 7.525 20.819 4.442 3.892-3.031 3.448-6.192 3.422-6.323-.079-.549.287-1.071.836-1.176.548-.104 1.071.261 1.175.836.026.183.705 4.468-4.179 8.283-1.568 1.228-3.344 1.751-5.407 1.751ZM159.13 297.591h-.104c-.549-.053-.967-.575-.915-1.124l3.239-29.368c.053-.549.549-.967 1.124-.915.548.052.966.575.914 1.124l-3.239 29.368c-.079.523-.497.915-1.019.915Z"/>
  <path fill="#27272A" d="m171.457 266.494-9.116.68-1.358 20.327 7.105-8.596 3.369-12.411ZM244.146 232.393c-1.41 0-2.977-.131-4.675-.418-10.266-1.725-20.427-10.817-23.927-18.29-1.672-3.553-1.855-6.663-.523-8.962.288-.497.915-.653 1.385-.366.496.288.653.915.366 1.385-1.228 2.142-.34 5.017.626 7.055 3.292 7.002 12.8 15.52 22.438 17.14 5.277.888 8.908.34 10.788-1.646 1.646-1.725 2.064-4.651 1.254-8.701-.104-.549.235-1.097.784-1.202.548-.104 1.097.235 1.201.784.967 4.755.366 8.309-1.776 10.53-1.724 1.803-4.388 2.691-7.941 2.691ZM287.651 305.35c-.575 0-1.019-.444-1.019-1.019 0-55.523-8.15-77.393-31.267-89.334-.496-.261-.705-.862-.444-1.384.261-.497.862-.706 1.385-.445 23.953 12.359 32.364 34.673 32.364 91.137 0 .601-.47 1.045-1.019 1.045Z"/>
  <path fill="#27272A" d="M272.111 303.353h-.079c-.548-.053-.992-.523-.94-1.098l2.168-29.76c.052-.575.549-.993 1.097-.941.549.052.993.523.941 1.098l-2.168 29.76c-.053.523-.497.941-1.019.941Z"/>
  <path fill="#27272A" d="M278.484 295.188c-1.75 0-3.709-.157-5.956-.601-.548-.105-.914-.653-.809-1.202.104-.549.653-.915 1.201-.81 9.404 1.803 13.923-1.359 13.975-1.385.444-.34 1.097-.235 1.41.235.34.444.235 1.098-.209 1.411-.156.105-3.265 2.352-9.612 2.352ZM273.156 163.157c-.418 0-.81-.262-.967-.68-.183-.522.105-1.123.627-1.306 2.011-.706 3.605-1.934 4.049-3.11.209-.548.156-1.071-.131-1.619-.783-1.438-4.467-1.098-6.112-.706-.549.131-1.097-.209-1.228-.758-.13-.548.209-1.097.758-1.228.679-.156 6.634-1.463 8.385 1.699.574 1.071.679 2.221.261 3.318-.679 1.777-2.638 3.397-5.277 4.311-.13.079-.261.079-.365.079ZM256.666 147.859l.679 1.908c.862 2.482 4.728 1.123 3.84-1.359l-.679-1.907c-.888-2.483-4.728-1.124-3.84 1.358ZM256.342 135.279c-1.019.732-1.907 1.646-2.978 2.273-1.123.68-.287 2.535.836 1.856 1.228-.732 2.246-1.725 3.422-2.561 1.097-.758-.209-2.325-1.28-1.568Z"/>
  <path fill="#27272A" d="M252.034 206.261c-.522 0-.966-.392-1.019-.914-.052-.549.34-1.072.889-1.124.156-.026 15.62-1.829 21.915-9.171 5.12-5.983 4.702-14.188-1.593-32.556-.183-.523.104-1.124.627-1.307.548-.182 1.123.105 1.306.628 5.72 16.643 7.601 27.069 1.227 34.542-6.817 7.969-22.568 9.798-23.247 9.876-.026.026-.079.026-.105.026Z"/>
  <path fill="#27272A" d="m257.621 204.037-3.735 10.294c-4.441-1.646-6.687-6.532-7.445-10.921 3.683.574 7.445.784 11.18.627Z"/>
  <path fill="#27272A" d="M252.018 206.242c-8.28 0-15.49-17.846-21.289-32.164-2.246-5.566-4.78-11.837-5.929-12.751-5.564 1.672-9.273 3.971-10.605 6.584-.653 1.28-.732 2.613-.262 3.972.288.836 1.071 2.351 3.004 3.214 2.142.966 4.989.783 8.281-.523.261-.105.548-.105.783.026.262.105.444.314.549.575 2.716 7.185 3.03 12.698.94 15.938-1.149 1.803-3.056 2.848-5.328 3.005-7.314.444-11.076-4.154-18.207-22.392l-5.433-15.416c-3.97-11.287-2.455-26.938 27.375-37.468 18.938-6.689 31.371-2.43 36.987 12.646 1.332 3.58 2.534 6.741 3.631 9.72 1.75 4.651 3.317 8.779 4.911 13.247.183.523-.079 1.124-.627 1.306-.523.183-1.123-.078-1.306-.627-1.594-4.442-3.135-8.57-4.885-13.195-1.123-2.952-2.325-6.114-3.657-9.719-5.198-14.031-16.456-17.768-34.401-11.445-15.594 5.513-32.782 16.017-26.147 34.882l5.433 15.39c7.209 18.42 10.37 21.425 16.195 21.085 1.149-.078 2.717-.496 3.761-2.064 1.62-2.508 1.359-7.159-.783-13.169-4.258 1.464-7.157.889-8.881.105-1.933-.888-3.396-2.456-4.075-4.39-.47-1.306-.784-3.344.365-5.565 1.62-3.188 5.721-5.774 12.147-7.682 2.22-.313 3.813 3.371 8.123 14.005 4.963 12.307 12.486 30.884 19.408 30.91.575 0 1.019.444 1.019 1.019-.078.47-.549.941-1.097.941ZM250.658 226.774c-.104 0-.209-.026-.339-.052-.523-.183-.81-.758-.627-1.281l6.948-20.537c.183-.522.758-.81 1.28-.627.522.183.81.758.627 1.281l-6.948 20.537c-.131.392-.523.679-.941.679Z"/>
  <path fill="#27272A" d="M243.984 171.387c-4.415 0-6.923-8.831-10.109-20.014-1.097-3.867-2.247-7.839-3.474-11.471-.758-2.194-.706-4.128.156-5.774 1.829-3.527 6.87-4.964 12.173-6.48 5.119-1.463 10.422-2.979 11.754-6.349.209-.523.81-.784 1.332-.575.523.209.784.81.575 1.333-1.698 4.285-7.497 5.957-13.087 7.551-4.675 1.332-9.482 2.717-10.918 5.461-.601 1.149-.601 2.508-.026 4.18 1.254 3.684 2.403 7.682 3.5 11.575 2.481 8.701 5.276 18.525 8.15 18.525h.026c1.567-.052 4.884-1.62 8.385-3.318 7.131-3.423 16.012-7.708 21.288-4.782.497.262.679.889.392 1.385-.261.497-.888.679-1.384.392-4.363-2.43-13.061 1.777-19.408 4.834-4.023 1.933-7.184 3.475-9.195 3.527h-.13ZM215.886 211.656c-.079 0-.183 0-.261-.026-.549-.157-.862-.705-.706-1.254l4.78-17.558c.157-.549.706-.863 1.254-.706.549.157.862.706.705 1.254l-4.78 17.559c-.13.418-.548.731-.992.731ZM266.709 171.286c-.679.418-1.384.784-2.116 1.123-1.175.549-1.881-1.358-.679-1.907.575-.261 1.123-.575 1.646-.889 1.097-.679 2.272.967 1.149 1.673Z"/>
  <defs>
    <filter id="a" width="198.357" height="197.837" x="263.621" y="86.0942" color-interpolation-filters="sRGB" filterUnits="userSpaceOnUse">
      <feFlood flood-opacity="0" result="BackgroundImageFix"/>
      <feBlend in="SourceGraphic" in2="BackgroundImageFix" result="shape"/>
      <feGaussianBlur result="effect1_foregroundBlur_805_1170" stdDeviation="37.5"/>
    </filter>
    <filter id="b" width="198.357" height="197.837" x="0" y=".817383" color-interpolation-filters="sRGB" filterUnits="userSpaceOnUse">
      <feFlood flood-opacity="0" result="BackgroundImageFix"/>
      <feBlend in="SourceGraphic" in2="BackgroundImageFix" result="shape"/>
      <feGaussianBlur result="effect1_foregroundBlur_805_1170" stdDeviation="37.5"/>
    </filter>
    <filter id="c" width="228.947" height="225.444" x="226.427" y="17.5391" color-interpolation-filters="sRGB" filterUnits="userSpaceOnUse">
      <feFlood flood-opacity="0" result="BackgroundImageFix"/>
      <feBlend in="SourceGraphic" in2="BackgroundImageFix" result="shape"/>
      <feGaussianBlur result="effect1_foregroundBlur_805_1170" stdDeviation="37.5"/>
    </filter>
    <filter id="d" width="218.689" height="218.688" x="45.8774" y="35.7759" color-interpolation-filters="sRGB" filterUnits="userSpaceOnUse">
      <feFlood flood-opacity="0" result="BackgroundImageFix"/>
      <feBlend in="SourceGraphic" in2="BackgroundImageFix" result="shape"/>
      <feGaussianBlur result="effect1_foregroundBlur_805_1170" stdDeviation="37.5"/>
    </filter>
    <filter id="e" width="210.317" height="209.796" x="281.822" y="173.438" color-interpolation-filters="sRGB" filterUnits="userSpaceOnUse">
      <feFlood flood-opacity="0" result="BackgroundImageFix"/>
      <feBlend in="SourceGraphic" in2="BackgroundImageFix" result="shape"/>
      <feGaussianBlur result="effect1_foregroundBlur_805_1170" stdDeviation="37.5"/>
    </filter>
  </defs>
</svg>
