<svg width="432" height="339" viewBox="0 0 432 339" fill="none" xmlns="http://www.w3.org/2000/svg">
<g opacity="0.3" filter="url(#filter0_f_805_1170)">
<ellipse cx="303.799" cy="130.015" rx="24.1786" ry="23.9187" fill="#BFDBFE"/>
</g>
<g opacity="0.3" filter="url(#filter1_f_805_1170)">
<ellipse cx="40.1786" cy="44.738" rx="24.1786" ry="23.9187" fill="#BFDBFE"/>
</g>
<g opacity="0.3" filter="url(#filter2_f_805_1170)">
<ellipse cx="281.901" cy="75.2573" rx="21.0588" ry="50.3596" transform="rotate(-46.8506 281.901 75.2573)" fill="#FECACA"/>
</g>
<g opacity="0.3" filter="url(#filter3_f_805_1170)">
<circle cx="96.2226" cy="90.1211" r="34.3444" transform="rotate(-90.2406 96.2226 90.1211)" fill="#FECACA"/>
</g>
<g opacity="0.3" filter="url(#filter4_f_805_1170)">
<ellipse cx="327.98" cy="223.339" rx="30.1583" ry="29.8983" fill="#FED7AA"/>
</g>
<path d="M172.713 225.524C172.713 260.223 153.801 285.698 126.713 296.568C117.754 300.147 107.932 302.133 97.5884 302.342C97.0399 302.368 96.4652 302.368 95.9166 302.368C53.496 302.368 19.0945 267.957 19.0945 225.55C19.0945 210.579 22.6992 196.6 29.4907 184.764C31.2408 181.681 33.226 178.728 35.4463 175.985L38.0845 172.849L38.189 172.719C51.4585 157.93 71.1538 148.733 95.9166 148.733C138.337 148.654 172.713 183.065 172.713 225.524Z" fill="#FBBF24"/>
<path d="M318.263 84.7979L306.534 96.5035L254.919 44.8212C256.904 41.3461 259.151 38.0278 261.632 34.9185L264.61 31.365L264.741 31.2344L318.263 84.7979Z" fill="#F87171"/>
<path d="M90.5026 112.071C87.8643 109.197 85.3567 106.218 83.0581 103.057C82.3006 102.011 80.5243 103.03 81.3079 104.076C83.685 107.394 86.2971 110.503 89.0659 113.508C89.954 114.501 91.3907 113.038 90.5026 112.071Z" fill="#F87171"/>
<path d="M108.802 69.9091V75.3439C108.802 76.6503 110.84 76.6503 110.84 75.3439V69.9091C110.84 68.5765 108.802 68.5765 108.802 69.9091Z" fill="#F87171"/>
<path d="M333.333 207.036L344.538 203.587L341.299 215.162L333.333 207.036Z" fill="#FBBF24"/>
<path d="M303.976 121.102L295.382 127.764L303.976 134.95L311.707 127.764L303.976 121.102Z" fill="#60A5FA"/>
<path d="M316.11 241.175C314.125 239.346 311.957 237.752 310.154 235.741C309.266 234.748 307.83 236.211 308.718 237.178C310.52 239.19 312.714 240.783 314.673 242.612C315.64 243.527 317.076 242.064 316.11 241.175Z" fill="#FBBF24"/>
<path d="M40.7239 27.5747V42.0238L55.5868 30.9975L40.7239 27.5747Z" fill="#60A5FA"/>
<path d="M348.937 72.4973C337.731 72.4973 328.615 63.3784 328.615 52.1693C328.615 40.2024 336.973 31.8413 348.937 31.8413C360.143 31.8413 369.259 40.9602 369.259 52.1693C369.259 63.9533 360.717 72.4973 348.937 72.4973ZM348.937 33.8793C338.175 33.8793 330.652 41.4043 330.652 52.1693C330.652 62.2549 338.854 70.4593 348.937 70.4593C359.542 70.4593 367.221 62.7775 367.221 52.1693C367.221 42.0837 359.019 33.8793 348.937 33.8793Z" fill="#27272A"/>
<path d="M334.453 187.084C334.166 187.084 333.878 186.953 333.695 186.744C330.404 183.034 328.576 178.226 328.576 173.262C328.576 161.295 336.934 152.934 348.898 152.934C360.104 152.934 369.22 162.052 369.22 173.262C369.22 175.561 368.907 177.782 368.254 179.872C368.175 180.16 367.94 180.395 367.653 180.525C357.335 184.654 346.155 186.848 334.453 187.084C334.479 187.084 334.453 187.084 334.453 187.084ZM348.924 154.972C338.162 154.972 330.639 162.497 330.639 173.262C330.639 177.573 332.154 181.753 334.923 185.046C346.025 184.784 356.63 182.694 366.477 178.801C366.974 177.05 367.209 175.195 367.209 173.262C367.209 163.176 359.007 154.972 348.924 154.972Z" fill="#27272A"/>
<path d="M354.861 139.962C343.786 139.962 333.782 133.848 328.74 123.972C328.479 123.475 328.688 122.848 329.184 122.587C329.681 122.326 330.307 122.535 330.569 123.031C335.27 132.202 344.57 137.898 354.861 137.898C370.665 137.898 382.132 126.428 382.132 110.62C382.132 95.5699 369.907 83.3417 354.861 83.3417C338.797 83.3417 327.591 94.5509 327.591 110.62C327.591 111.195 327.147 111.639 326.572 111.639C325.998 111.639 325.553 111.195 325.553 110.62C325.553 93.349 337.595 81.3037 354.861 81.3037C371.03 81.3037 384.169 94.4464 384.169 110.62C384.169 127.63 371.84 139.962 354.861 139.962Z" fill="#27272A"/>
<path d="M357.638 41.5622C354.034 46.8141 349.959 52.2488 347.947 58.3629C345.779 55.7761 343.742 53.0849 341.574 50.4982C340.712 49.5053 339.275 50.9424 340.137 51.9353C342.697 54.9662 345.048 58.18 347.66 61.1848C348.156 61.7596 349.175 61.446 349.358 60.7406C351.03 54.0255 355.575 48.1727 359.415 42.5812C360.146 41.51 358.37 40.4909 357.638 41.5622Z" fill="#27272A"/>
<path d="M353.889 168.636C351.486 172.216 349.344 175.978 346.628 179.349C345.008 177.964 343.807 176.188 342.213 174.75C341.247 173.862 339.81 175.299 340.777 176.188C342.71 177.938 344.146 180.133 346.262 181.675C346.602 181.91 347.228 181.831 347.49 181.518C350.598 177.834 352.975 173.653 355.639 169.655C356.371 168.558 354.621 167.539 353.889 168.636Z" fill="#27272A"/>
<path d="M352.734 90.8446V117.078C352.734 118.384 354.772 118.384 354.772 117.078V90.8446C354.772 89.5381 352.734 89.5381 352.734 90.8446Z" fill="#27272A"/>
<path d="M354.499 126.171C354.708 125.204 354.891 124.211 355.022 123.245C355.204 121.964 353.219 121.52 353.036 122.826C352.906 123.819 352.723 124.786 352.514 125.753C352.227 127.033 354.212 127.477 354.499 126.171Z" fill="#27272A"/>
<path d="M308.029 157.77H267.646C267.072 157.77 266.627 157.326 266.627 156.751C266.627 156.177 267.072 155.732 267.646 155.732H308.029C308.604 155.732 309.048 156.177 309.048 156.751C309.048 157.326 308.604 157.77 308.029 157.77Z" fill="#27272A"/>
<path d="M308.037 54.2783H280.845C280.27 54.2783 279.826 53.8341 279.826 53.2593C279.826 52.6844 280.27 52.2402 280.845 52.2402H308.037C308.611 52.2402 309.055 52.6844 309.055 53.2593C309.055 53.808 308.611 54.2783 308.037 54.2783Z" fill="#27272A"/>
<path d="M311.689 111.342H246.7C246.674 111.342 246.648 111.342 246.622 111.342C246.778 112.021 246.909 112.7 247.013 113.38H311.715C312.29 113.38 312.734 112.936 312.734 112.361C312.708 111.812 312.238 111.342 311.689 111.342Z" fill="#27272A"/>
<path d="M332.609 198.864C320.489 198.864 308.682 196.721 297.503 192.463C289.509 189.484 281.856 185.382 274.751 180.313C248.734 161.657 233.192 131.426 233.192 99.445C233.192 40.8911 274.072 0 332.609 0C387.411 0 432 44.6013 432 99.445C432 157.058 390.18 198.864 332.609 198.864ZM332.609 2.03802C275.273 2.03802 235.23 42.093 235.23 99.445C235.23 130.773 250.458 160.377 275.953 178.667C282.901 183.631 290.398 187.629 298.234 190.581C309.179 194.736 320.75 196.826 332.609 196.826C389.031 196.826 429.963 155.883 429.963 99.445C429.963 45.7249 386.288 2.03802 332.609 2.03802Z" fill="#27272A"/>
<path d="M332.607 187.095C284.283 187.095 244.971 147.771 244.971 99.4595C244.971 82.5282 249.072 66.4591 256.83 52.9767C258.815 49.5016 261.088 46.1049 263.621 42.9434L266.625 39.3637C266.625 39.3637 266.756 39.207 266.782 39.207C282.847 21.2828 305.624 11.8242 332.607 11.8242C380.905 11.8242 420.217 51.1477 420.217 99.4856C420.217 137.059 400.6 167.342 367.74 180.51C357.396 184.665 346.216 186.86 334.54 187.095C333.887 187.095 333.234 187.095 332.607 187.095ZM332.607 13.8361C306.199 13.8361 283.97 23.0595 268.297 40.5395L265.215 44.1975C262.759 47.2807 260.539 50.5729 258.606 53.9696C251.031 67.1646 247.008 82.894 247.008 99.4595C247.008 146.648 285.406 185.057 332.607 185.057C333.234 185.057 333.861 185.057 334.462 185.031C345.903 184.822 356.848 182.653 366.956 178.603C399.007 165.748 418.154 136.17 418.154 99.4595C418.154 52.2451 379.782 13.8361 332.607 13.8361Z" fill="#27272A"/>
<path d="M209.039 338.776C208.856 338.776 208.673 338.724 208.517 338.619L192.792 328.978C192.322 328.69 192.165 328.089 192.426 327.619L208.255 299.087C208.517 298.59 209.144 298.407 209.64 298.695C210.136 298.956 210.319 299.583 210.032 300.079L194.673 327.75L208.673 336.346L227.846 304.783C228.134 304.312 228.761 304.156 229.257 304.443C229.727 304.73 229.884 305.357 229.596 305.854L209.901 338.306C209.771 338.541 209.535 338.697 209.274 338.776C209.222 338.776 209.117 338.776 209.039 338.776Z" fill="#27272A"/>
<path d="M247.756 275.017C247.573 275.017 247.39 274.965 247.233 274.86C246.763 274.573 246.606 273.946 246.894 273.449L296.994 190.961C297.281 190.491 297.908 190.334 298.404 190.622C298.875 190.909 299.031 191.536 298.744 192.033L248.644 274.521C248.435 274.834 248.095 275.017 247.756 275.017Z" fill="#27272A"/>
<path d="M229.846 262.948C229.689 262.948 229.507 262.895 229.35 262.817C228.854 262.556 228.671 261.929 228.958 261.432L274.435 178.97C274.696 178.474 275.323 178.291 275.819 178.578C276.316 178.84 276.498 179.467 276.211 179.963L230.734 262.425C230.551 262.765 230.186 262.948 229.846 262.948Z" fill="#27272A"/>
<path d="M247.766 275.018C247.584 275.018 247.401 274.965 247.244 274.861C246.774 274.573 246.617 273.946 246.904 273.45L284.127 212.126C277.388 208.677 270.622 205.333 263.988 202.171L233.06 258.217C232.799 258.713 232.172 258.896 231.676 258.609C231.18 258.347 230.997 257.72 231.284 257.224L262.682 200.342C262.943 199.872 263.517 199.689 264.014 199.924C271.275 203.347 278.694 207.005 286.06 210.82C286.321 210.95 286.504 211.185 286.582 211.447C286.661 211.708 286.608 212.022 286.478 212.257L248.655 274.521C248.446 274.835 248.106 275.018 247.766 275.018Z" fill="#27272A"/>
<path d="M213.835 330.884C213.652 330.884 213.495 330.832 213.338 330.753L197.039 321.347C196.569 321.06 196.386 320.459 196.647 319.962L208.271 299.086C208.532 298.589 209.159 298.406 209.655 298.694C210.152 298.955 210.334 299.582 210.047 300.079L198.919 320.093L213.469 328.48L227.862 304.782C228.149 304.311 228.776 304.155 229.272 304.442C229.742 304.729 229.899 305.357 229.612 305.853L214.697 330.414C214.514 330.701 214.174 330.884 213.835 330.884Z" fill="#27272A"/>
<path d="M309.318 106.099C309.057 106.099 308.796 105.994 308.587 105.811L256.972 54.1289C256.658 53.8154 256.58 53.2928 256.815 52.9009C258.8 49.4258 261.073 46.0291 263.607 42.8676L266.611 39.2879C266.793 39.0789 267.133 38.8699 267.42 38.8438C267.708 38.8438 268.047 38.8699 268.256 39.0789L321.804 92.6424C321.987 92.8253 322.092 93.0866 322.092 93.374C322.092 93.6353 321.987 93.8966 321.804 94.1056L310.076 105.811C309.841 105.994 309.58 106.099 309.318 106.099ZM258.957 53.2406L309.318 103.616L319.61 93.3479L267.577 41.326L265.2 44.174C262.901 47.022 260.812 50.079 258.957 53.2406Z" fill="#27272A"/>
<path d="M326.561 110.605L320.422 94.248L310.209 104.464L326.561 110.605Z" fill="#27272A"/>
<path d="M326.562 111.628C326.431 111.628 326.327 111.602 326.196 111.576L309.845 105.436C309.531 105.305 309.27 105.044 309.218 104.704C309.165 104.364 309.244 104.025 309.505 103.763L319.718 93.5472C319.953 93.312 320.319 93.2075 320.659 93.2598C320.998 93.3382 321.286 93.5733 321.39 93.8869L327.529 110.243C327.659 110.609 327.581 111.027 327.293 111.315C327.084 111.524 326.823 111.628 326.562 111.628ZM312.039 104.077L324.812 108.859L320.032 96.0816L312.039 104.077Z" fill="#27272A"/>
<path d="M228.027 306.32C222.777 306.32 215.568 304.204 205.877 297.645C195.245 290.46 191.615 290.695 176.334 291.636C167.217 292.211 154.732 292.968 134.644 292.629C69.0544 291.453 36.1679 273.398 34.1566 237.419C31.8579 196.136 64.6921 174.841 89.6117 162.404C114.218 150.123 157.944 149.235 158.362 149.235C158.963 149.235 159.381 149.679 159.407 150.228C159.407 150.803 158.963 151.247 158.415 151.273C157.971 151.273 114.714 152.161 90.5259 164.233C66.1288 176.409 33.9737 197.233 36.194 237.314C38.127 272.013 70.3604 289.441 134.671 290.591C154.705 290.956 167.139 290.173 176.203 289.598C191.275 288.657 195.82 288.37 207.026 295.947C225.05 308.123 233.539 304.282 236.987 300.911C237.379 300.519 238.032 300.519 238.424 300.938C238.815 301.329 238.815 301.983 238.397 302.375C236.491 304.256 233.199 306.32 228.027 306.32Z" fill="#27272A"/>
<path d="M234.258 252.332C234.075 252.332 233.892 252.279 233.71 252.175C226.996 247.942 195.703 247.237 165.455 246.583C141.633 246.061 117.027 245.512 103.209 243.239C91.1406 241.253 84.6365 235.374 85.8119 227.483C87.1441 218.469 99.1076 208.958 111.959 210.683C112.482 210.761 112.847 211.179 112.847 211.702C112.847 212.25 112.638 225.053 101.667 234.512C101.249 234.878 100.596 234.825 100.231 234.407C99.8651 233.989 99.9173 233.336 100.335 232.97C108.981 225.498 110.496 215.621 110.758 212.59C99.3426 211.597 89.0248 219.88 87.8494 227.771C86.8568 234.486 92.5773 239.398 103.574 241.201C117.236 243.448 141.789 243.997 165.533 244.519C197.453 245.225 227.623 245.878 234.833 250.424C235.303 250.738 235.46 251.365 235.146 251.835C234.911 252.175 234.598 252.332 234.258 252.332Z" fill="#27272A"/>
<path d="M88.3518 223.005C87.9339 223.005 87.5682 222.744 87.4115 222.352C83.3627 211.796 63.4323 197.582 45.226 200.299C44.6774 200.378 44.155 199.986 44.0766 199.437C43.9983 198.889 44.3901 198.366 44.9386 198.288C64.3727 195.387 84.9561 210.202 89.3183 221.62C89.5273 222.143 89.2661 222.744 88.7437 222.927C88.5869 222.979 88.4563 223.005 88.3518 223.005Z" fill="#27272A"/>
<path d="M248.013 272.088C247.334 273.629 246.342 273.76 245.95 273.786C241.274 274.309 231.818 264.615 229.572 259.128C229.363 258.605 228.762 258.37 228.24 258.579C227.717 258.788 227.482 259.389 227.691 259.912C229.938 265.399 239.42 275.85 245.61 275.85C245.793 275.85 246.002 275.85 246.185 275.824C247.778 275.641 249.816 274.622 250.495 270.808C249.659 271.173 248.823 271.591 248.013 272.088Z" fill="#27272A"/>
<path d="M244.887 285.052C240.891 285.052 235.98 283.745 230.233 280.114C229.763 279.826 229.606 279.173 229.92 278.703C230.207 278.232 230.834 278.076 231.33 278.389C247.134 288.318 254.082 279.539 254.839 278.494C256.955 275.541 255.989 269.244 252.933 266.03C252.541 265.612 252.567 264.985 252.959 264.593C253.377 264.201 254.004 264.227 254.395 264.619C258.157 268.591 259.176 275.907 256.485 279.669C254.63 282.256 250.738 285.052 244.887 285.052Z" fill="#27272A"/>
<path d="M241.938 293.925C237.55 293.925 231.908 291.496 224.411 287.968C223.889 287.733 223.68 287.132 223.915 286.609C224.15 286.113 224.751 285.878 225.273 286.113C235.565 290.947 242.095 293.638 246.092 290.555C249.984 287.524 249.54 284.362 249.513 284.232C249.435 283.683 249.801 283.16 250.349 283.056C250.898 282.951 251.42 283.343 251.525 283.892C251.551 284.075 252.23 288.36 247.345 292.175C245.778 293.377 244.002 293.925 241.938 293.925Z" fill="#27272A"/>
<path d="M236.453 302.035C232.064 302.035 226.422 299.605 218.925 296.078C218.403 295.843 218.194 295.242 218.429 294.719C218.664 294.223 219.265 293.988 219.787 294.223C230.079 299.057 236.609 301.748 240.606 298.665C244.498 295.634 244.054 292.472 244.028 292.342C243.95 291.793 244.315 291.27 244.864 291.166C245.412 291.061 245.935 291.427 246.039 292.002C246.065 292.185 246.744 296.47 241.86 300.285C240.293 301.513 238.516 302.035 236.453 302.035Z" fill="#27272A"/>
<path d="M100.132 242.591C100.106 242.591 100.054 242.591 100.028 242.591C99.4792 242.539 99.0613 242.016 99.1135 241.468L102.353 212.099C102.405 211.55 102.901 211.132 103.476 211.185C104.024 211.237 104.442 211.759 104.39 212.308L101.151 241.677C101.073 242.199 100.655 242.591 100.132 242.591Z" fill="#27272A"/>
<path d="M112.461 211.493L103.344 212.172L101.986 232.5L109.091 223.904L112.461 211.493Z" fill="#27272A"/>
<path d="M185.148 177.391C183.737 177.391 182.17 177.26 180.472 176.973C170.206 175.249 160.045 166.156 156.545 158.683C154.873 155.13 154.69 152.02 156.023 149.721C156.31 149.225 156.937 149.068 157.407 149.355C157.903 149.643 158.06 150.27 157.773 150.74C156.545 152.883 157.433 155.757 158.4 157.795C161.691 164.797 171.199 173.315 180.838 174.935C186.114 175.823 189.745 175.275 191.626 173.289C193.271 171.564 193.689 168.638 192.879 164.588C192.775 164.039 193.115 163.491 193.663 163.386C194.212 163.282 194.76 163.621 194.865 164.17C195.831 168.925 195.23 172.479 193.088 174.7C191.364 176.503 188.7 177.391 185.148 177.391Z" fill="#27272A"/>
<path d="M228.654 250.344C228.079 250.344 227.635 249.9 227.635 249.325C227.635 193.802 219.486 171.932 196.368 159.991C195.872 159.73 195.663 159.129 195.924 158.607C196.186 158.11 196.786 157.901 197.309 158.162C221.262 170.521 229.673 192.835 229.673 249.299C229.673 249.9 229.203 250.344 228.654 250.344Z" fill="#27272A"/>
<path d="M213.111 248.35C213.084 248.35 213.058 248.35 213.032 248.35C212.484 248.298 212.04 247.828 212.092 247.253L214.26 217.492C214.312 216.918 214.808 216.5 215.357 216.552C215.906 216.604 216.35 217.074 216.297 217.649L214.129 247.41C214.077 247.932 213.633 248.35 213.111 248.35Z" fill="#27272A"/>
<path d="M219.484 240.188C217.734 240.188 215.775 240.031 213.528 239.587C212.98 239.482 212.614 238.934 212.719 238.385C212.823 237.836 213.372 237.47 213.92 237.575C223.324 239.378 227.843 236.216 227.895 236.19C228.339 235.85 228.992 235.955 229.305 236.425C229.645 236.869 229.54 237.523 229.096 237.836C228.94 237.941 225.831 240.188 219.484 240.188Z" fill="#27272A"/>
<path d="M214.16 108.152C213.742 108.152 213.35 107.89 213.193 107.472C213.01 106.95 213.297 106.349 213.82 106.166C215.831 105.46 217.425 104.232 217.869 103.057C218.078 102.508 218.025 101.985 217.738 101.437C216.954 99.9996 213.271 100.339 211.626 100.731C211.077 100.862 210.529 100.522 210.398 99.9734C210.267 99.4247 210.607 98.876 211.156 98.7454C211.835 98.5886 217.79 97.2822 219.54 100.444C220.115 101.515 220.22 102.665 219.802 103.762C219.122 105.539 217.163 107.159 214.525 108.073C214.395 108.152 214.264 108.152 214.16 108.152Z" fill="#27272A"/>
<path d="M197.668 92.8524L198.347 94.7598C199.209 97.242 203.075 95.8833 202.187 93.4011L201.508 91.4937C200.62 89.0115 196.78 90.3702 197.668 92.8524Z" fill="#27272A"/>
<path d="M197.345 80.2749C196.326 81.0065 195.438 81.921 194.367 82.5481C193.244 83.2274 194.08 85.0825 195.203 84.4032C196.431 83.6716 197.449 82.6787 198.625 81.8426C199.722 81.0849 198.416 79.5171 197.345 80.2749Z" fill="#27272A"/>
<path d="M193.036 151.258C192.513 151.258 192.069 150.866 192.017 150.343C191.965 149.795 192.356 149.272 192.905 149.22C193.062 149.194 208.525 147.391 214.821 140.049C219.94 134.065 219.522 125.861 213.227 107.493C213.044 106.97 213.332 106.369 213.854 106.186C214.403 106.003 214.977 106.291 215.16 106.813C220.881 123.457 222.761 133.882 216.388 141.355C209.57 149.324 193.819 151.153 193.14 151.232C193.114 151.258 193.062 151.258 193.036 151.258Z" fill="#27272A"/>
<path d="M198.622 149.032L194.887 159.327C190.447 157.681 188.2 152.795 187.443 148.405C191.126 148.98 194.887 149.189 198.622 149.032Z" fill="#27272A"/>
<path d="M193.02 151.237C184.74 151.237 177.531 133.391 171.732 119.073C169.485 113.507 166.952 107.236 165.802 106.322C160.238 107.994 156.529 110.293 155.197 112.906C154.544 114.187 154.466 115.519 154.936 116.878C155.223 117.714 156.007 119.229 157.94 120.092C160.082 121.058 162.929 120.876 166.22 119.569C166.481 119.465 166.769 119.465 167.004 119.595C167.265 119.7 167.448 119.909 167.552 120.17C170.269 127.355 170.582 132.869 168.493 136.108C167.343 137.911 165.437 138.956 163.164 139.113C155.85 139.557 152.089 134.959 144.958 116.721L139.524 101.305C135.554 90.0177 137.069 74.3667 166.899 63.8369C185.837 57.148 198.271 61.4069 203.887 76.4831C205.219 80.0627 206.42 83.2243 207.518 86.2029C209.268 90.8538 210.835 94.9821 212.428 99.4501C212.611 99.9727 212.35 100.574 211.801 100.757C211.279 100.939 210.678 100.678 210.495 100.129C208.902 95.6876 207.361 91.5593 205.611 86.9345C204.487 83.982 203.286 80.8205 201.954 77.2147C196.756 63.1837 185.497 59.4473 167.552 65.7704C151.958 71.2835 134.77 81.7872 141.405 100.652L146.838 116.042C154.048 134.462 157.208 137.467 163.033 137.127C164.183 137.049 165.75 136.631 166.795 135.063C168.414 132.555 168.153 127.904 166.011 121.895C161.753 123.358 158.854 122.783 157.13 121.999C155.197 121.111 153.734 119.543 153.055 117.609C152.585 116.303 152.272 114.265 153.421 112.044C155.04 108.856 159.141 106.27 165.567 104.362C167.787 104.049 169.381 107.733 173.691 118.367C178.654 130.674 186.177 149.251 193.099 149.277C193.673 149.277 194.117 149.721 194.117 150.296C194.039 150.767 193.569 151.237 193.02 151.237Z" fill="#27272A"/>
<path d="M191.661 171.77C191.557 171.77 191.452 171.744 191.321 171.717C190.799 171.534 190.512 170.96 190.695 170.437L197.643 149.9C197.826 149.377 198.4 149.09 198.923 149.273C199.445 149.456 199.732 150.031 199.55 150.553L192.601 171.09C192.471 171.482 192.079 171.77 191.661 171.77Z" fill="#27272A"/>
<path d="M184.987 116.382C180.573 116.382 178.065 107.551 174.878 96.3679C173.781 92.5009 172.632 88.5293 171.404 84.8975C170.647 82.7027 170.699 80.7692 171.561 79.1231C173.389 75.5957 178.431 74.1586 183.733 72.6432C188.853 71.18 194.156 69.6645 195.488 66.2939C195.697 65.7714 196.298 65.5101 196.82 65.7191C197.342 65.9282 197.604 66.5291 197.395 67.0517C195.697 71.3368 189.898 73.009 184.308 74.6028C179.632 75.9354 174.826 77.3202 173.389 80.0637C172.789 81.2133 172.789 82.572 173.363 84.2442C174.617 87.9284 175.766 91.926 176.864 95.8192C179.345 104.52 182.14 114.344 185.013 114.344H185.039C186.607 114.292 189.924 112.724 193.424 111.026C200.555 107.603 209.437 103.318 214.713 106.244C215.209 106.506 215.392 107.133 215.105 107.629C214.844 108.126 214.217 108.309 213.72 108.021C209.358 105.591 200.66 109.798 194.312 112.855C190.29 114.788 187.129 116.33 185.118 116.382C185.039 116.382 185.013 116.382 184.987 116.382Z" fill="#27272A"/>
<path d="M156.888 156.647C156.81 156.647 156.705 156.647 156.627 156.621C156.078 156.465 155.765 155.916 155.921 155.367L160.702 137.809C160.858 137.26 161.407 136.947 161.955 137.103C162.504 137.26 162.817 137.809 162.661 138.358L157.881 155.916C157.75 156.334 157.332 156.647 156.888 156.647Z" fill="#27272A"/>
<path d="M207.712 116.282C207.033 116.7 206.327 117.066 205.596 117.406C204.421 117.955 203.715 116.047 204.917 115.498C205.492 115.237 206.04 114.924 206.563 114.61C207.66 113.931 208.835 115.577 207.712 116.282Z" fill="#27272A"/>
<defs>
<filter id="filter0_f_805_1170" x="263.62" y="90.0967" width="80.3572" height="79.8374" filterUnits="userSpaceOnUse" color-interpolation-filters="sRGB">
<feFlood flood-opacity="0" result="BackgroundImageFix"/>
<feBlend mode="normal" in="SourceGraphic" in2="BackgroundImageFix" result="shape"/>
<feGaussianBlur stdDeviation="8" result="effect1_foregroundBlur_805_1170"/>
</filter>
<filter id="filter1_f_805_1170" x="0" y="4.81934" width="80.3572" height="79.8374" filterUnits="userSpaceOnUse" color-interpolation-filters="sRGB">
<feFlood flood-opacity="0" result="BackgroundImageFix"/>
<feBlend mode="normal" in="SourceGraphic" in2="BackgroundImageFix" result="shape"/>
<feGaussianBlur stdDeviation="8" result="effect1_foregroundBlur_805_1170"/>
</filter>
<filter id="filter2_f_805_1170" x="226.427" y="21.5352" width="110.947" height="107.444" filterUnits="userSpaceOnUse" color-interpolation-filters="sRGB">
<feFlood flood-opacity="0" result="BackgroundImageFix"/>
<feBlend mode="normal" in="SourceGraphic" in2="BackgroundImageFix" result="shape"/>
<feGaussianBlur stdDeviation="8" result="effect1_foregroundBlur_805_1170"/>
</filter>
<filter id="filter3_f_805_1170" x="45.8782" y="39.7769" width="100.689" height="100.688" filterUnits="userSpaceOnUse" color-interpolation-filters="sRGB">
<feFlood flood-opacity="0" result="BackgroundImageFix"/>
<feBlend mode="normal" in="SourceGraphic" in2="BackgroundImageFix" result="shape"/>
<feGaussianBlur stdDeviation="8" result="effect1_foregroundBlur_805_1170"/>
</filter>
<filter id="filter4_f_805_1170" x="281.822" y="177.441" width="92.3167" height="91.7964" filterUnits="userSpaceOnUse" color-interpolation-filters="sRGB">
<feFlood flood-opacity="0" result="BackgroundImageFix"/>
<feBlend mode="normal" in="SourceGraphic" in2="BackgroundImageFix" result="shape"/>
<feGaussianBlur stdDeviation="8" result="effect1_foregroundBlur_805_1170"/>
</filter>
</defs>
</svg>
