<svg xmlns="http://www.w3.org/2000/svg" fill="none" viewBox="0 0 751 550">
  <g filter="url(#a)">
    <ellipse cx="545.868" cy="140.406" fill="#FECACA" rx="39.8401" ry="40.4058"/>
  </g>
  <g filter="url(#b)">
    <ellipse cx="138.992" cy="336.788" fill="#FED7AA" rx="38.9924" ry="39.5369"/>
  </g>
  <g filter="url(#c)">
    <ellipse cx="610.72" cy="220.786" fill="#BFDBFE" rx="39.4162" ry="39.9713"/>
  </g>
  <path fill="#F87171" d="m559.631 200.625-78.92 32.212c8.322 26.406 25.511 49.35 50.545 62.606 12.585 6.68 26.329 10.212 40.074 10.632l-11.699-105.45Z"/>
  <path fill="#FBBF24" d="m127.718 331.135 9.345-5.736 8.424 11.507-8.902 5.736-8.867-11.507ZM240.507 481.443l47.372-151.827 43.11-6.4 19.235 159.8-21.622-.454-5.594-64.04-49.214.455-15.314 64.039-17.973-1.573Z"/>
  <path fill="#60A5FA" d="m452.846 380.374 4.331 10.912s24.556-7.135 30.491.35c5.047 6.4 5.9 17.417 5.9 17.417s-29.229 2.658-30.456 31.023c-1.228 28.364 20.77 8.149 36.731 1.224l2.592 5.7 15.382-3.777s-6.753-27.735-11.084-47.915c-4.298-20.18-24.352-28.819-53.887-14.934ZM613.307 221.276c-4.57-6.366-9.174-12.766-13.744-19.131-1.023-1.434-3.411-.035-2.353 1.434 4.57 6.365 9.174 12.765 13.744 19.131 1.023 1.433 3.411.035 2.353-1.434Z"/>
  <path fill="#60A5FA" d="m613.656 203.647-17.77 13.955c-1.364 1.084-.034 3.532 1.399 2.413 5.934-4.651 11.834-9.303 17.769-13.955 1.364-1.084 0-3.532-1.398-2.413Z"/>
  <path fill="#F87171" d="m549.844 124.109-12.175 20.215c-.921 1.539 1.432 2.938 2.353 1.434 4.058-6.75 8.117-13.465 12.175-20.215.955-1.574-1.432-2.973-2.353-1.434Z"/>
  <path fill="#27272A" d="M164.311 242.99h-.136c-.375-.035-.716-.245-.955-.525l-28.376-37.458c-.239-.28-.307-.665-.273-1.049.034-.385.239-.7.512-.945l64.869-51.728c.272-.244.648-.349 1.023-.279.375.035.682.244.921.524l26.329 34.73c.444.595.375 1.434-.205 1.924l-62.822 54.456c-.239.21-.58.35-.887.35Zm-26.466-38.613 26.671 35.185 60.708-52.637-24.693-32.562-62.686 50.014Z"/>
  <path fill="#27272A" d="M239.409 147.834c-.273-.35-.75-.524-1.194-.524l-37.584 3.707c-.511.035-.921.385-1.125.839-.205.455-.137 1.015.17 1.434l26.33 34.73c.273.35.648.56 1.091.56.068 0 .171 0 .239-.035.511-.105.921-.455 1.057-.979l11.289-38.403c.136-.489.034-.944-.273-1.329Zm-12.858 36.304L203.36 153.57l16.2-1.574 11.834 15.599-4.843 16.543Z"/>
  <path fill="#27272A" d="M158.378 235.17c-.375 0-.75-.175-1.023-.49-.511-.594-.443-1.468.137-1.993l60.333-53.861c.58-.525 1.432-.455 1.944.14.511.594.443 1.468-.137 1.993l-60.333 53.861c-.273.245-.614.35-.921.35ZM145.486 218.169c-.409 0-.818-.174-1.091-.559-.478-.595-.341-1.504.239-1.959l64.868-51.728c.614-.49 1.467-.35 1.91.245.478.594.341 1.504-.238 1.958l-64.869 51.729c-.239.209-.546.314-.819.314Z"/>
  <path fill="#27272A" d="M152.888 247.205c-.716 0-1.433-.035-2.149-.105-5.252-.595-9.925-3.218-13.199-7.485l-6.207-8.044c-3.24-4.197-4.707-9.478-4.059-14.794.614-5.352 3.24-10.108 7.401-13.396l.41-.314c.613-.49 1.466-.385 1.909.244.478.595.342 1.504-.238 1.959l-.41.315c-3.547 2.833-5.798 6.925-6.343 11.506-.546 4.582.716 9.094 3.513 12.731l6.207 8.044c2.797 3.638 6.821 5.911 11.323 6.436 4.502.489 8.902-.84 12.415-3.778.579-.489 1.432-.419 1.944.21.477.595.375 1.469-.205 1.959-3.547 2.938-7.844 4.512-12.312 4.512ZM406.407 549.981h-.17l-184.921-23.678c-.648-.07-1.16-.63-1.194-1.295l-6.753-85.688c-.068-.769.512-1.434 1.262-1.504.75-.07.819-3.847.887-3.078l7.264 88.906 182.193 23.329-12.176-262.452-190.992-26.266 9.107 115.242c.068.77-.512 1.434-1.262 1.504-.751.035-1.399-.524-1.467-1.294l-9.243-116.991c-.034-.419.137-.839.41-1.119.307-.28.716-.42 1.125-.385l193.788 26.651c.649.105 1.16.665 1.194 1.329l12.312 265.285c.034.419-.136.804-.443 1.084-.239.28-.58.42-.921.42Z"/>
  <path fill="#27272A" d="M406.399 549.965c-.648 0-1.228-.489-1.33-1.154-.137-.734.307-1.434 1.023-1.609l180.283-45.082-19.031-171.622c-.103-.77.443-1.469 1.193-1.539.785-.07 1.433.454 1.501 1.224l19.167 172.846c.069.7-.375 1.364-1.023 1.539l-17.701 4.442.41 21.125c0 .734-.512 1.329-1.228 1.434L406.569 550c-.068-.035-.102-.035-.17-.035Zm161.354-40.326-140.482 35.15 140.891-15.913-.409-19.237ZM266.685 477.953h-.102l-17.974-1.574c-.409-.035-.784-.28-1.023-.629-.238-.35-.307-.805-.17-1.225l47.407-151.826c.17-.525.579-.875 1.091-.98l43.109-6.4c.376-.035.751.035 1.024.28.307.245.477.559.511.944l19.27 159.801c.034.42-.068.805-.341 1.119-.273.315-.648.455-1.057.455l-21.657-.455c-.683 0-1.262-.559-1.331-1.294l-5.457-62.745-46.895.42-15.074 62.99c-.171.699-.717 1.119-1.331 1.119Zm71.384-3.218 18.826.385L338 318.327l-40.858 6.086-46.623 149.308 15.109 1.329 15.075-62.885c.136-.63.682-1.049 1.33-1.084l49.214-.455c.717 0 1.296.56 1.365 1.294l5.457 62.815Z"/>
  <path fill="#27272A" d="M478.637 449.729c-1.569 0-3.002-.35-4.264-1.154-3.342-2.099-4.774-7.03-4.433-15.004 1.125-25.637 24.351-31.163 30.32-32.177-.409-3.043-1.706-10.633-5.423-15.319-4.4-5.561-22.476-1.819-29.058.105-.682.21-1.399-.175-1.637-.84l-4.332-10.912c-.273-.699.034-1.504.682-1.819 16.371-7.694 31.139-8.988 41.644-3.637 7.332 3.777 12.244 10.527 14.188 19.551 4.263 19.936 10.982 47.601 11.05 47.88.102.35.034.735-.171 1.085-.204.314-.511.559-.852.629l-15.382 3.778c-.648.139-1.296-.175-1.569-.77l-2.046-4.477c-3.104 1.434-6.446 3.358-9.686 5.177-7.06 4.057-13.813 7.904-19.031 7.904Zm6.07-69.425c5.116 0 9.857.979 12.245 3.987 5.252 6.645 6.139 17.732 6.173 18.187.068.769-.512 1.434-1.228 1.504-1.16.105-28.035 2.903-29.195 29.693-.307 6.786.75 10.983 3.138 12.521 4.059 2.589 12.449-2.168 20.566-6.785 3.717-2.133 7.605-4.302 11.152-5.875.683-.28 1.467 0 1.774.699l2.149 4.687 12.96-3.183c-1.433-5.841-7.026-29.169-10.743-46.586-1.74-8.15-6.14-14.27-12.722-17.628-9.447-4.826-22.953-3.742-38.062 3.113l3.376 8.499c3.104-.874 11.153-2.833 18.417-2.833Z"/>
  <path fill="#60A5FA" d="M432.468 477.956c-.272 0-.545-.07-.784-.245-.341-.245-.546-.595-.58-1.015l-12.073-109.645c-.068-.665.307-1.295.955-1.504l24.181-7.905c.716-.245 1.5.175 1.705.91.239.734-.171 1.539-.887 1.748l-23.089 7.555 11.766 106.883 23.567-6.645c.716-.21 1.467.244 1.671.979.205.734-.239 1.504-.955 1.714l-25.101 7.1c-.137.069-.273.07-.376.07ZM546.845 440.537c-.648 0-1.194-.455-1.33-1.12-.171-.769.307-1.504 1.057-1.678l14.392-3.183-8.765-75.406c-.102-.769.443-1.469 1.194-1.574.75-.105 1.432.455 1.535 1.224l8.935 76.7c.068.735-.375 1.399-1.057 1.539l-15.62 3.428c-.137.07-.239.07-.341.07Z"/>
  <path fill="#F87171" d="M451.977 493.763c-.614 0-1.16-.419-1.33-1.049-.171-.734.239-1.504.989-1.714l102.692-26.895c.75-.21 1.467.244 1.671 1.014.171.734-.238 1.504-.989 1.714l-102.692 26.895c-.102 0-.205.035-.341.035Z"/>
  <path fill="#60A5FA" d="M365.282 526.403c-.443 0-.887-.21-1.126-.63-.409-.629-.238-1.504.376-1.958l17.769-12.207-17.974-18.257c-.546-.559-.546-1.434 0-1.993.546-.56 1.398-.56 1.944 0l19.168 19.446c.307.28.443.699.409 1.119-.034.42-.273.805-.614 1.014l-19.168 13.151c-.238.21-.511.315-.784.315Z"/>
  <path fill="#27272A" d="M388.95 282.332c-.034-.7-.511-1.259-1.193-1.364l-26.159-3.603c-.409-.069-.818.07-1.091.35-.307.28-.478.7-.444 1.084l3.854 92.265c.034.559.375 1.049.887 1.259.17.07.307.105.477.105.376 0 .751-.14.989-.455l15.041-16.438 7.571 12.101c.341.525.955.769 1.569.595.58-.175.989-.735.955-1.399l-2.456-84.5ZM485.05 437.062c-1.365 0-2.592-.315-3.547-1.084-1.399-1.12-2.013-2.624-1.842-4.372.648-6.226 12.073-14.48 23.09-19.901.375-.175.784-.175 1.159 0s.648.525.75.909l2.934 11.367c.136.525-.035 1.119-.478 1.469-2.694 2.204-14.699 11.612-22.066 11.612Zm17.428-22.069c-11.119 5.7-19.645 12.835-20.054 16.928-.069.769.17 1.329.818 1.853 3.138 2.483 14.222-4.127 21.521-9.933l-2.285-8.848ZM285.577 402.587c-.409 0-.818-.175-1.057-.524-.273-.35-.375-.805-.273-1.225l16.03-65.543c.136-.56.58-.945 1.126-1.05l25.681-4.127c.375-.07.785.035 1.092.315.306.245.477.629.511 1.049l2.217 68.377c0 .385-.136.735-.375 1.014-.239.28-.58.42-.955.455l-43.928 1.259h-.069Zm17.156-65.719-15.382 62.851 40.756-1.189-2.114-65.404-23.26 3.742ZM394.134 284.683c-.545 0-1.057-.349-1.262-.874-.272-.735.069-1.539.751-1.819l162.035-66.102c.41-.175.853-.14 1.194.105.375.21.614.594.648 1.049l5.048 45.432c.102.77-.444 1.469-1.194 1.539-.75.07-1.432-.454-1.501-1.224l-4.843-43.614-160.364 65.438c-.171.035-.341.07-.512.07Z"/>
  <path fill="#60A5FA" d="M263.899 341.15c-.238 0-.477-.07-.682-.175l-35.401-20.845c-.444-.28-.716-.77-.682-1.294.034-.525.341-1.015.818-1.225l35.402-15.458c.682-.315 1.5.035 1.807.734.307.7-.034 1.539-.716 1.854l-32.878 14.339 33.015 19.446c.648.385.886 1.26.511 1.924-.273.455-.716.7-1.194.7Z"/>
  <path fill="#27272A" d="M395.611 274.75c-.75 0-1.364-.63-1.364-1.399 0-.77.614-1.399 1.364-1.399 3.82 0 6.889-1.05 8.39-2.868.887-1.049 1.194-2.378.921-3.952-.614-3.743-8.356-5.421-11.016-5.701-.682-.07-1.228-.665-1.228-1.399V239.88c0-.769.614-1.399 1.364-1.399.751 0 1.365.63 1.365 1.399v16.893c3.239.524 11.288 2.378 12.175 7.869.375 2.378-.137 4.547-1.535 6.225-1.978 2.484-5.798 3.883-10.436 3.883ZM409.226 236.001v3.987c0 5.106 7.741 5.106 7.741 0v-3.952c0-5.107-7.741-5.142-7.741-.035ZM357.517 236.001v3.987c0 5.106 7.742 5.106 7.742 0v-3.952c0-5.107-7.742-5.142-7.742-.035ZM361.715 217.597c-3.137.489-6.207 1.154-9.174 2.273-2.319.874-.58 4.406 1.739 3.532 2.661-.979 5.457-1.504 8.254-1.923 2.456-.385 1.637-4.267-.819-3.882ZM418.634 218.403c-2.353-.315-4.775-.21-7.094-.7-2.422-.525-3.649 3.218-1.228 3.742 2.66.56 5.355.525 8.049.91 2.49.349 2.728-3.638.273-3.952Z"/>
  <path fill="#27272A" d="M484.59 229.899c-5.832-11.052-17.291-17.522-29.296-16.123-.137-13.78-2.456-30.778-18.111-38.927-2.114-3.568-4.672-6.786-7.639-9.653-9.004-12.137-25.307-18.082-49.249-18.082-24.829 0-42.018 5.561-52.113 17.172-17.769 2.798-31.207 16.788-33.935 35.71-24.011-7.45-47.919 3.777-64.699 21.824-8.833 9.478-17.189 24.167-14.665 36.723l112.651 15.494c.034-.035.034-.07.034-.07 0-.105.034-.244.034-.349.341-.245.58-.665.58-1.12.034-6.925-1.774-12.416-1.876-12.66-.205-.595-.682-.98-1.364-.945-6.821.28-12.21-1.294-15.518-4.581-3.036-3.008-3.513-6.471-3.513-8.255 0-2.028.546-5.001 3.138-7.519 4.195-4.092 12.516-5.911 24.112-5.316.546.035 1.535-.49 2.524-.84 18.554-8.324 26.261-54.281 26.261-54.281 8.083 7.66 53.001 23.014 73.362 25.917.068 3.007.102 5.945.17 8.813.375 19.411.478 38.787.034 53.092-.034.77 1.842-.629 1.808-.385-.068.98 4.195-1.713 9.447-3.847l41.78-17.033c-.273-5.036-1.501-10.037-3.957-14.759Z"/>
  <path fill="#27272A" d="M360.414 253.22c-2.626 0-5.286-.63-7.742-1.889-6.514-3.322-10.266-10.143-10.334-18.677 0-.769.614-1.399 1.364-1.399.751 0 1.365.63 1.365 1.399.034 7.45 3.24 13.326 8.799 16.159 4.741 2.413 10.368 2.064 14.256-.944 4.468-3.428 6.139-9.618 4.809-17.418-.136-.77.375-1.504 1.092-1.644.75-.105 1.466.385 1.602 1.119 2.081 11.997-2.762 17.768-5.832 20.146-2.66 2.099-5.968 3.148-9.379 3.148ZM415.224 250.961c-2.285 0-4.57-.559-6.719-1.678-6.07-3.148-9.549-10.108-9.549-19.097 0-.769.614-1.399 1.364-1.399.75 0 1.364.63 1.364 1.399 0 7.87 2.933 13.92 8.049 16.578 4.025 2.099 8.799 1.749 12.415-.979 4.399-3.288 6.275-9.443 5.116-16.823-.137-.769.375-1.504 1.125-1.609.75-.104 1.432.385 1.569 1.155 1.33 8.463-.955 15.598-6.207 19.55-2.524 1.959-5.525 2.903-8.527 2.903Z"/>
  <path fill="#27272A" d="M374.808 239.376c-.477 0-.955-.28-1.193-.735-.376-.664-.137-1.539.545-1.923.58-.315 14.325-7.904 26.807-1.819.682.315.989 1.154.648 1.854-.341.699-1.125 1.014-1.842.664-11.186-5.456-24.18 1.679-24.283 1.749-.238.175-.477.21-.682.21ZM684.257 377.76c-15.859-94.607-48.873-112.654-82.16-118.04-44.985-7.31-77.659 11.681-97.065 56.484-10.3 23.783-9.311 29.239-6.957 31.478 2.319 2.238 6.173.559 8.867-.91 6.003-3.252 7.913-8.638 9.754-13.85.989-2.833 2.047-5.771 3.752-8.394 0-.105 0-.244.034-.384.375-1.155.751-2.344 1.057-3.533 0-.035.035-.105.035-.14-.546-.349-1.296-.28-1.774.245-3.001 3.463-4.4 7.415-5.73 11.227-1.807 5.141-3.376 9.548-8.458 12.311-4.093 2.239-5.354 1.679-5.696 1.329-.989-.944-2.216-5.596 7.606-28.294 18.826-43.474 50.511-61.941 94.132-54.841 32.298 5.246 64.323 22.908 79.909 115.767 7.469 44.628 2.149 78.973-15.825 102.162-24.113 31.092-66.608 37.003-96.519 38.752-.75.035-1.33.699-1.296 1.469.034.734.648 1.329 1.364 1.329h.069c30.422-1.784 73.702-7.834 98.497-39.802 18.519-23.817 24.01-58.932 16.404-104.365Z"/>
  <path fill="#27272A" d="M531.257 342.704c-.102 0-.205 0-.307-.035-7.503-1.749-11.835-4.687-13.267-9.024-2.285-6.89 2.626-16.963 16.984-34.8.478-.594 1.331-.699 1.944-.175.58.49.648 1.364.171 1.994-13.472 16.718-18.417 26.336-16.507 32.107 1.091 3.323 4.809 5.666 11.289 7.205.75.175 1.194.909 1.023 1.679-.17.594-.716 1.049-1.33 1.049Z"/>
  <path fill="#27272A" d="M543.637 348.179h-.102c-7.946-.7-12.858-3.498-14.563-8.359-3.99-11.123 10.505-27.771 16.916-34.381.546-.56 1.399-.56 1.944 0 .546.559.546 1.434 0 1.993-12.414 12.836-18.655 24.868-16.302 31.443 1.33 3.708 5.457 5.911 12.244 6.506.75.07 1.296.734 1.262 1.504-.103.734-.682 1.294-1.399 1.294Z"/>
  <path fill="#27272A" d="M582.009 449.701h-.307c-.751-.035-1.33-.7-1.296-1.469.034-.769.716-1.364 1.432-1.329 1.023.07 24.795.839 26.978-33.996 2.251-35.604-4.502-65.578-18.963-84.359-1.944-2.553-4.877-4.092-8.049-4.267-3.206-.175-6.344 1.084-8.595 3.427-5.661 5.911-9.686 9.583-12.005 10.877-1.364.77-2.148 1.539-2.251 2.169-.136.944 1.092 2.343 2.217 3.602.989 1.085 1.978 2.239 2.558 3.498.921 2.028.034 4.512-2.148 6.225-3.138 2.414-9.107 3.218-15.621-2.483-10.573-9.268-3.751-20.425 7.537-38.857.41-.665 1.262-.839 1.876-.455.648.42.819 1.294.444 1.924-12.005 19.586-16.507 27.805-8.083 35.22 5.286 4.651 9.856 4.197 12.175 2.378 1.126-.874 1.672-2.029 1.33-2.798-.375-.874-1.261-1.854-2.08-2.763-1.535-1.714-3.274-3.637-2.899-5.946.239-1.574 1.432-2.938 3.615-4.197 1.433-.804 4.57-3.287 11.391-10.387 2.797-2.938 6.719-4.477 10.675-4.267 3.957.21 7.606 2.168 10.062 5.351 14.904 19.341 21.827 50.014 19.542 86.283-2.217 35.5-26.5 36.619-29.535 36.619ZM500.05 309.361c-1.91 0-3.922-.524-5.866-1.888-1.842-1.295-2.081-2.903-1.979-4.058.955-10.422 39.188-27.84 43.52-29.799.682-.315 3.581-1.888 3.888-1.154.307.7-2.081 3.428-2.797 3.742-23.397 10.493-41.439 22.315-41.882 27.491-.034.42.034.91.818 1.469 4.332 3.043 8.936.525 12.654-1.504 1.159-.629 2.183-1.189 3.103-1.539.717-.245 1.501.14 1.74.875.239.734-.137 1.539-.853 1.783-.716.245-1.637.77-2.728 1.364-2.558 1.33-5.969 3.218-9.618 3.218Z"/>
  <path fill="#27272A" d="M628.287 359.747c-8.697 0-17.223-1.924-24.147-5.876-.648-.385-.886-1.224-.511-1.924.375-.664 1.194-.909 1.876-.559 14.699 8.429 38.198 6.925 52.352-3.358 5.832-4.232 12.414-11.647 10.538-22.943-.136-.77.376-1.504 1.126-1.609.75-.105 1.467.384 1.569 1.154 1.637 9.933-2.49 19.061-11.664 25.706-8.561 6.226-19.986 9.409-31.139 9.409ZM219.562 510.057c-.239 0-.478-.07-.717-.21-21.452-13.115-34.923-31.197-40.073-53.826-6.856-29.973 3.069-60.227 14.597-78.554 1.773-2.833 3.24-6.26 4.672-9.548 2.626-6.12 5.116-11.891 9.447-14.339.648-.385 1.501-.14 1.876.559.375.665.102 1.539-.546 1.889-3.546 1.993-5.832 7.345-8.253 13.011-1.467 3.427-2.967 6.96-4.877 9.967-11.221 17.838-20.873 47.286-14.222 76.386 4.979 21.859 18.042 39.346 38.812 52.042.648.385.853 1.259.477 1.924-.272.454-.716.699-1.193.699Z"/>
  <path fill="#27272A" d="M215.606 451.75c-.511 0-.955-.279-1.228-.769-4.229-8.289-2.455-14.55.614-17.628 3.07-3.078 7.674-3.602 11.698-1.329 7.128 3.987 10.778 3.428 11.528 2.099 1.023-1.889-1.637-8.115-12.721-14.515-4.741-2.763-9.106-3.323-12.995-1.714-5.729 2.378-10.436 9.478-13.608 20.531-.204.734-.989 1.154-1.705.944-.716-.21-1.125-1.014-.921-1.749 3.411-11.926 8.663-19.656 15.211-22.349 4.707-1.959 9.857-1.329 15.348 1.854 11.834 6.89 15.893 14.444 13.778 18.327-1.5 2.798-6.309 4.022-15.211-.98-2.967-1.678-6.309-1.329-8.492.875-2.353 2.378-3.615 7.38-.102 14.34.341.699.102 1.539-.58 1.888-.205.105-.409.175-.614.175Z"/>
  <path fill="#27272A" d="M191.972 427.446c-.137 0-.273-.035-.409-.07-.717-.245-1.126-1.014-.921-1.749 3.069-10.212 8.526-17.557 15.791-21.264 6.377-3.253 13.915-3.498 21.248-.735 11.425 4.302 17.325 8.359 17.973 12.451.205 1.329-.034 3.288-2.353 5.246-4.059 3.393-10.027 3.253-10.3 3.218-.75-.035-1.364-.664-1.33-1.434.034-.769.648-1.294 1.398-1.364.034 0 5.253.105 8.493-2.588 1.603-1.329 1.432-2.273 1.364-2.588-.205-1.364-2.251-5.037-16.235-10.283-6.616-2.483-13.403-2.273-19.099.63-6.582 3.357-11.562 10.107-14.392 19.586-.103.559-.648.944-1.228.944Z"/>
  <path fill="#27272A" d="M187.775 417.059c-.205 0-.41-.035-.58-.14-.682-.315-.989-1.154-.648-1.854 13.335-29.1 23.772-27.456 33.901-25.882 9.584 1.504 23.806 6.226 24.181 13.221.273 5.456-4.468 7.904-6.992 8.429-.75.14-1.466-.35-1.603-1.084-.17-.77.307-1.504 1.058-1.644.204-.035 5.047-1.154 4.808-5.526-.204-4.337-11.425-8.954-21.759-10.563-9.618-1.504-18.622-2.903-31.104 24.273-.273.49-.751.77-1.262.77Z"/>
  <path fill="#27272A" d="M185.355 398.054c-.205 0-.409-.035-.58-.14-.682-.315-.989-1.154-.648-1.854 12.005-26.195 23.772-23.852 33.219-21.964 1.091.21 2.149.42 3.172.595 9.481 1.469 23.737 6.225 24.078 13.22.273 5.456-4.467 7.905-6.991 8.429-.751.14-1.467-.314-1.603-1.084-.171-.769.307-1.504 1.057-1.644.205-.035 5.048-1.154 4.809-5.526-.205-4.337-11.425-8.953-21.759-10.562-1.058-.175-2.149-.385-3.275-.595-8.969-1.783-19.099-3.847-30.217 20.391-.239.419-.75.734-1.262.734Z"/>
  <defs>
    <filter id="a" width="279.68" height="280.812" x="406.028" y="0" color-interpolation-filters="sRGB" filterUnits="userSpaceOnUse">
      <feFlood flood-opacity="0" result="BackgroundImageFix"/>
      <feBlend in="SourceGraphic" in2="BackgroundImageFix" result="shape"/>
      <feGaussianBlur result="effect1_foregroundBlur_805_1744" stdDeviation="50"/>
    </filter>
    <filter id="b" width="277.985" height="279.074" x="0" y="197.251" color-interpolation-filters="sRGB" filterUnits="userSpaceOnUse">
      <feFlood flood-opacity="0" result="BackgroundImageFix"/>
      <feBlend in="SourceGraphic" in2="BackgroundImageFix" result="shape"/>
      <feGaussianBlur result="effect1_foregroundBlur_805_1744" stdDeviation="50"/>
    </filter>
    <filter id="c" width="278.832" height="279.943" x="471.303" y="80.8145" color-interpolation-filters="sRGB" filterUnits="userSpaceOnUse">
      <feFlood flood-opacity="0" result="BackgroundImageFix"/>
      <feBlend in="SourceGraphic" in2="BackgroundImageFix" result="shape"/>
      <feGaussianBlur result="effect1_foregroundBlur_805_1744" stdDeviation="50"/>
    </filter>
  </defs>
</svg>
