<svg xmlns="http://www.w3.org/2000/svg" fill="none" viewBox="0 0 533 408">
  <g filter="url(#a)" opacity=".25">
    <circle cx="409" cy="47" r="31" fill="#FECACA"/>
  </g>
  <g filter="url(#b)" opacity=".25">
    <ellipse cx="46" cy="219.5" fill="#FED7AA" rx="30" ry="30.5"/>
  </g>
  <g filter="url(#c)" opacity=".25">
    <ellipse cx="459" cy="108.5" fill="#BFDBFE" rx="30" ry="30.5"/>
  </g>
  <path fill="#F87171" d="M419.773 98.0527 349.929 126.56c7.364 23.37 22.577 43.675 44.731 55.406 11.138 5.912 23.302 9.039 35.466 9.41l-10.353-93.3233Z"/>
  <path fill="#FBBF24" d="m37.5298 213.554 8.2703-5.076 7.4554 10.183-7.8779 5.076-7.8478-10.183ZM137.348 346.576l41.925-134.366 38.152-5.665 17.023 141.424-19.136-.403-4.95-56.674-43.555.402-13.552 56.675-15.907-1.393Z"/>
  <path fill="#60A5FA" d="m325.268 257.13 3.833 9.658s21.732-6.315 26.984.309c4.467 5.664 5.222 15.414 5.222 15.414s-25.867 2.353-26.954 27.455c-1.087 25.103 18.382 7.212 32.508 1.084l2.293 5.045 13.613-3.343s-5.976-24.545-9.809-42.405c-3.804-17.86-21.551-25.505-47.69-13.217ZM467.276 116.328c-4.044-5.633-8.119-11.297-12.164-16.9305-.905-1.269-3.018-.0309-2.082 1.2695 4.044 5.633 8.119 11.297 12.163 16.931.906 1.269 3.019.03 2.083-1.27Z"/>
  <path fill="#60A5FA" d="m467.584 100.727-15.726 12.35c-1.207.96-.03 3.127 1.238 2.136 5.252-4.117 10.474-8.233 15.726-12.35 1.207-.959 0-3.1262-1.238-2.136Z"/>
  <path fill="#F87171" d="m411.111 30.3363-10.775 17.8905c-.815 1.3619 1.268 2.6 2.082 1.2691 3.592-5.9739 7.184-11.9168 10.776-17.8906.845-1.3928-1.268-2.6309-2.083-1.269Z"/>
  <path fill="#27272A" d="M69.9152 135.545h-.1207c-.332-.03-.6339-.216-.8452-.464l-25.1125-33.15c-.2113-.248-.2717-.588-.2415-.929.0302-.34.2113-.619.4528-.835l57.4089-45.7795c.241-.2166.573-.3095.905-.2476.332.031.604.2167.815.4643l23.302 30.736c.392.5262.332 1.2691-.181 1.7024L70.7 135.236c-.2113.186-.5131.309-.7848.309Zm-23.4223-34.171 23.6034 31.138 53.7267-46.5837-21.853-28.8169-55.4771 44.2626Z"/>
  <path fill="#27272A" d="M136.377 51.3332c-.242-.3095-.664-.4643-1.057-.4643l-33.262 3.281c-.452.0309-.815.3405-.996.7429-.181.4023-.12.8976.151 1.269l23.302 30.7361c.241.3096.573.4953.966.4953.06 0 .151 0 .211-.031.453-.0928.815-.4024.936-.8667l9.99-33.9861c.121-.4333.03-.8357-.241-1.1762Zm-11.379 32.129-20.525-27.0528 14.337-1.3928 10.474 13.8049-4.286 14.6407Z"/>
  <path fill="#27272A" d="M64.6647 128.625c-.332 0-.664-.154-.9055-.433-.4527-.526-.3924-1.3.1208-1.764l53.395-47.6675c.513-.4643 1.267-.4023 1.72.1239.453.5262.393 1.3-.121 1.7643L65.4797 128.316c-.2415.217-.5433.309-.815.309ZM53.2552 113.58c-.3622 0-.7243-.155-.9658-.496-.4226-.526-.3019-1.331.2113-1.733l57.4083-45.7792c.544-.4333 1.298-.3095 1.691.2167.422.5262.301 1.3309-.212 1.7333L53.9797 113.301c-.2113.186-.483.279-.7245.279Z"/>
  <path fill="#27272A" d="M59.8055 139.276c-.6339 0-1.2677-.031-1.9016-.093-4.6482-.526-8.7834-2.848-11.681-6.624l-5.4934-7.119c-2.8674-3.714-4.1653-8.388-3.5918-13.093.5433-4.736 2.8674-8.945 6.5498-11.855l.3622-.278c.5433-.4335 1.2979-.3407 1.6903.216.4225.527.3018 1.331-.2113 1.734l-.3622.278c-3.1391 2.508-5.1312 6.129-5.6141 10.184-.483 4.055.6338 8.047 3.1089 11.267l5.4934 7.119c2.475 3.219 6.0367 5.231 10.0209 5.695 3.9842.433 7.8779-.743 10.9868-3.343.5131-.433 1.2677-.371 1.7204.186.4226.526.3321 1.3-.1811 1.733-3.139 2.6-6.9422 3.993-10.8962 3.993ZM284.17 407.232h-.151l-163.655-20.955c-.573-.062-1.026-.557-1.056-1.145l-5.977-75.834c-.06-.681.453-1.269 1.117-1.331.664-.062.725-3.405.785-2.724l6.429 78.682 161.24 20.645-10.775-232.269-169.028-23.246 8.059 101.99c.061.681-.452 1.269-1.117 1.331-.664.031-1.237-.465-1.297-1.146l-8.18-103.536c-.03-.372.121-.743.362-.991.272-.248.634-.371.996-.34l171.502 23.586c.574.092 1.027.588 1.057 1.176l10.896 234.776c.03.371-.121.712-.392.96-.212.247-.513.371-.815.371Z"/>
  <path fill="#27272A" d="M284.162 407.219c-.573 0-1.086-.434-1.177-1.022-.12-.65.272-1.269.906-1.423l159.55-39.899-16.843-151.885c-.09-.681.393-1.3 1.057-1.362.694-.062 1.268.402 1.328 1.083l16.963 152.969c.06.619-.332 1.207-.905 1.362l-15.666 3.931.363 18.696c0 .65-.453 1.176-1.087 1.269L284.313 407.25c-.06-.031-.09-.031-.151-.031Zm142.799-35.689-124.326 31.108 124.688-14.084-.362-17.024ZM160.516 343.488h-.09l-15.907-1.393c-.362-.031-.694-.248-.905-.557-.212-.31-.272-.712-.151-1.083l41.955-134.367c.151-.464.513-.774.966-.867l38.151-5.664c.332-.031.664.031.906.248.272.216.422.495.453.835l17.053 141.424c.03.372-.06.712-.302.991-.241.278-.573.402-.935.402l-19.167-.402c-.603 0-1.117-.496-1.177-1.146l-4.829-55.529-41.502.371-13.342 55.746c-.15.619-.633.991-1.177.991Zm63.174-2.848 16.661.341-16.721-138.762-36.16 5.386-41.261 132.138 13.372 1.176 13.341-55.653c.12-.558.603-.929 1.177-.96l43.555-.402c.633 0 1.147.495 1.207 1.145l4.829 55.591Z"/>
  <path fill="#27272A" d="M348.093 318.51c-1.389 0-2.656-.31-3.773-1.022-2.958-1.857-4.226-6.221-3.924-13.278.996-22.689 21.551-27.579 26.833-28.477-.362-2.693-1.509-9.41-4.799-13.557-3.894-4.922-19.891-1.61-25.716.093-.604.185-1.238-.155-1.449-.743l-3.834-9.657c-.241-.619.031-1.331.604-1.61 14.488-6.81 27.558-7.955 36.854-3.219 6.49 3.343 10.836 9.317 12.557 17.302 3.773 17.643 9.719 42.127 9.779 42.375.091.309.031.65-.151.959-.181.279-.452.495-.754.557l-13.613 3.343c-.574.124-1.147-.155-1.388-.681l-1.811-3.962c-2.747 1.269-5.705 2.972-8.573 4.581-6.248 3.591-12.224 6.996-16.842 6.996Zm5.373-61.441c4.527 0 8.723.866 10.835 3.528 4.649 5.881 5.434 15.693 5.464 16.096.06.681-.453 1.269-1.087 1.331-1.026.092-24.811 2.569-25.837 26.278-.272 6.005.664 9.719 2.777 11.081 3.592 2.291 11.017-1.919 18.201-6.004 3.29-1.889 6.731-3.808 9.87-5.2.603-.248 1.298 0 1.569.619l1.902 4.147 11.47-2.816c-1.268-5.17-6.218-25.815-9.508-41.229-1.54-7.212-5.433-12.629-11.259-15.6-8.361-4.272-20.313-3.312-33.685 2.754l2.988 7.522c2.747-.774 9.87-2.507 16.3-2.507Z"/>
  <path fill="#60A5FA" d="M307.234 343.49c-.241 0-.483-.062-.694-.217-.302-.216-.483-.526-.513-.897l-10.685-97.037c-.061-.588.271-1.145.845-1.331l21.4-6.995c.634-.217 1.328.155 1.509.805.211.65-.151 1.362-.785 1.548l-20.434 6.685 10.413 94.591 20.857-5.881c.634-.185 1.298.217 1.479.867.181.65-.211 1.331-.845 1.517l-22.215 6.283c-.121.062-.241.062-.332.062ZM408.457 310.374c-.574 0-1.057-.402-1.177-.99-.151-.681.271-1.331.935-1.486l12.737-2.816-7.756-66.734c-.091-.681.392-1.3 1.056-1.393.664-.093 1.268.402 1.358 1.083l7.908 67.879c.06.65-.332 1.238-.936 1.362l-13.823 3.034c-.121.061-.212.061-.302.061Z"/>
  <path fill="#F87171" d="M324.499 357.48c-.543 0-1.026-.372-1.177-.929-.151-.65.211-1.331.875-1.516l90.883-23.803c.664-.186 1.298.217 1.479.898.151.65-.212 1.331-.876 1.516l-90.882 23.803c-.091 0-.181.031-.302.031Z"/>
  <path fill="#60A5FA" d="M247.774 386.366c-.392 0-.785-.186-.996-.557-.362-.557-.211-1.331.332-1.734l15.726-10.802-15.907-16.158c-.483-.495-.483-1.269 0-1.764.483-.495 1.238-.495 1.72 0l16.964 17.21c.271.247.392.619.362.99-.03.372-.242.712-.543.898l-16.964 11.638c-.211.186-.452.279-.694.279Z"/>
  <path fill="#27272A" d="M268.721 170.363c-.03-.619-.453-1.114-1.057-1.207l-23.15-3.188c-.362-.062-.724.062-.966.31-.272.247-.423.619-.392.959l3.41 81.654c.031.495.332.928.785 1.114.151.062.272.093.423.093.332 0 .664-.124.875-.402l13.311-14.548 6.7 10.709c.302.465.846.681 1.389.527.513-.155.875-.65.845-1.239l-2.173-74.782ZM353.768 307.299c-1.207 0-2.294-.278-3.139-.959-1.237-.991-1.781-2.322-1.63-3.87.574-5.509 10.685-12.814 20.435-17.612.332-.155.694-.155 1.026 0 .332.155.573.465.664.805l2.596 10.06c.12.464-.031.99-.423 1.3-2.384 1.95-13.009 10.276-19.529 10.276Zm15.424-19.531c-9.84 5.045-17.386 11.36-17.748 14.981-.06.681.151 1.176.725 1.641 2.777 2.197 12.586-3.653 19.045-8.791l-2.022-7.831ZM177.236 276.789c-.362 0-.725-.154-.936-.464-.241-.31-.332-.712-.241-1.083l14.186-58.007c.121-.495.513-.835.996-.928l22.728-3.653c.332-.062.694.031.966.279.272.217.423.557.453.928l1.962 60.514c0 .34-.121.65-.332.898-.212.247-.513.371-.846.402l-38.876 1.114h-.06Zm15.182-58.161-13.613 55.623 36.07-1.052-1.872-57.883-20.585 3.312ZM273.308 172.444c-.482 0-.935-.309-1.116-.773-.242-.65.06-1.362.664-1.61l143.401-58.5c.362-.155.755-.124 1.056.092.332.186.544.527.574.929l4.467 40.208c.091.68-.392 1.3-1.056 1.361-.664.062-1.268-.402-1.328-1.083l-4.287-38.598-141.922 57.913c-.151.031-.302.061-.453.061Z"/>
  <path fill="#60A5FA" d="M158.051 222.417c-.212 0-.423-.062-.604-.155l-31.33-18.448c-.393-.247-.634-.68-.604-1.145.03-.464.302-.897.725-1.083l31.33-13.681c.604-.279 1.328.031 1.6.65.271.619-.031 1.362-.634 1.64l-29.097 12.691 29.217 17.21c.574.34.785 1.114.453 1.702-.241.402-.634.619-1.056.619Z"/>
  <path fill="#27272A" d="M274.615 163.653c-.664 0-1.207-.557-1.207-1.238 0-.681.543-1.238 1.207-1.238 3.381 0 6.097-.929 7.425-2.538.785-.929 1.057-2.105.815-3.498-.543-3.312-7.394-4.797-9.749-5.045-.603-.062-1.086-.588-1.086-1.238v-16.064c0-.681.543-1.238 1.207-1.238s1.207.557 1.207 1.238v14.95c2.868.464 9.991 2.104 10.775 6.964.332 2.105-.12 4.024-1.358 5.509-1.75 2.198-5.131 3.436-9.236 3.436ZM286.664 129.36v3.529c0 4.519 6.852 4.519 6.852 0v-3.498c0-4.519-6.852-4.55-6.852-.031ZM240.902 129.36v3.529c0 4.519 6.852 4.519 6.852 0v-3.498c0-4.519-6.852-4.55-6.852-.031ZM244.618 113.073c-2.777.433-5.494 1.021-8.12 2.012-2.052.773-.513 3.899 1.54 3.126 2.354-.867 4.829-1.331 7.304-1.703 2.173-.34 1.449-3.776-.724-3.435ZM294.99 113.786c-2.082-.278-4.225-.186-6.278-.619-2.143-.464-3.229 2.848-1.086 3.312 2.354.495 4.739.464 7.123.805 2.203.309 2.415-3.219.241-3.498Z"/>
  <path fill="#27272A" d="M353.362 123.96c-5.162-9.781-15.303-15.507-25.928-14.269-.121-12.1952-2.173-27.2382-16.027-34.4502-1.872-3.1572-4.135-6.0048-6.761-8.5429-7.969-10.7406-22.396-16.0026-43.585-16.0026-21.974 0-37.186 4.9215-46.12 15.1978-15.726 2.4762-27.618 14.8573-30.033 31.6027-21.249-6.5929-42.408 3.3432-57.258 19.3142-7.817 8.388-15.212 21.389-12.979 32.501l99.696 13.712c.03-.031.03-.062.03-.062 0-.093.03-.217.03-.31.302-.216.514-.588.514-.99.03-6.129-1.57-10.988-1.661-11.205-.181-.526-.603-.867-1.207-.836-6.037.248-10.806-1.145-13.733-4.055-2.687-2.662-3.109-5.726-3.109-7.304 0-1.796.483-4.427 2.777-6.655 3.712-3.622 11.077-5.231 21.339-4.705.483.031 1.359-.433 2.234-.743 16.42-7.367 23.241-48.0386 23.241-48.0386 7.154 6.7786 46.905 20.3669 64.925 22.9356.06 2.662.09 5.262.151 7.8.332 17.179.422 34.327.03 46.987-.03.681 1.63-.557 1.6-.341-.061.867 3.712-1.517 8.36-3.405l36.975-15.074c-.241-4.457-1.328-8.883-3.501-13.062Z"/>
  <path fill="#27272A" d="M243.466 144.6c-2.324 0-4.678-.558-6.851-1.672-5.766-2.94-9.086-8.976-9.146-16.529 0-.681.543-1.238 1.207-1.238s1.208.557 1.208 1.238c.03 6.593 2.867 11.793 7.787 14.3 4.196 2.136 9.176 1.827 12.617-.835 3.954-3.034 5.433-8.512 4.256-15.415-.121-.681.332-1.331.965-1.455.665-.093 1.298.341 1.419.991 1.841 10.617-2.445 15.724-5.161 17.829-2.355 1.857-5.282 2.786-8.301 2.786ZM291.973 142.6c-2.022 0-4.045-.495-5.946-1.485-5.373-2.786-8.451-8.946-8.451-16.9 0-.681.543-1.238 1.207-1.238s1.207.557 1.207 1.238c0 6.964 2.596 12.319 7.123 14.671 3.562 1.857 7.788 1.548 10.987-.866 3.894-2.91 5.554-8.358 4.528-14.889-.121-.681.332-1.331.996-1.423.664-.093 1.267.34 1.388 1.021 1.177 7.49-.845 13.805-5.493 17.302-2.234 1.734-4.89 2.569-7.546 2.569Z"/>
  <path fill="#27272A" d="M256.205 132.347c-.423 0-.845-.247-1.057-.65-.332-.588-.12-1.362.483-1.702.514-.279 12.677-6.995 23.724-1.61.604.279.876 1.022.574 1.641-.302.619-.996.898-1.63.588-9.9-4.829-21.4 1.486-21.49 1.548-.212.154-.423.185-.604.185ZM530.067 254.817c-14.035-83.727-43.253-99.698-72.712-104.465-39.812-6.469-68.728 10.338-85.902 49.989-9.115 21.047-8.24 25.876-6.157 27.857 2.052 1.981 5.463.495 7.847-.805 5.312-2.878 7.003-7.645 8.633-12.257.875-2.507 1.811-5.107 3.32-7.429 0-.093 0-.216.03-.34.332-1.022.664-2.074.936-3.126 0-.031.03-.093.03-.124-.483-.31-1.147-.248-1.57.216-2.656 3.065-3.893 6.562-5.07 9.936-1.6 4.55-2.989 8.45-7.486 10.896-3.622 1.981-4.739 1.485-5.041 1.176-.875-.836-1.961-4.953 6.731-25.041 16.662-38.474 44.702-54.817 83.307-48.534 28.583 4.643 56.926 20.274 70.719 102.454 6.611 39.495 1.902 69.891-14.005 90.413-21.339 27.517-58.948 32.748-85.419 34.295-.664.031-1.177.62-1.147 1.301.03.65.574 1.176 1.208 1.176h.06c26.924-1.579 65.226-6.934 87.17-35.225 16.389-21.078 21.249-52.155 14.518-92.363Z"/>
  <path fill="#27272A" d="M394.662 223.793c-.091 0-.181 0-.272-.031-6.64-1.548-10.474-4.148-11.741-7.986-2.022-6.098 2.324-15.012 15.031-30.798.423-.526 1.177-.619 1.72-.155.514.433.574 1.207.151 1.764-11.922 14.796-16.299 23.308-14.608 28.415.966 2.941 4.256 5.014 9.99 6.376.664.155 1.057.805.906 1.486-.151.526-.634.929-1.177.929Z"/>
  <path fill="#27272A" d="M405.618 228.638h-.09c-7.033-.619-11.379-3.095-12.888-7.398-3.532-9.843 9.296-24.577 14.971-30.427.482-.495 1.237-.495 1.72 0 .483.495.483 1.269 0 1.764-10.987 11.36-16.51 22.008-14.428 27.827 1.178 3.281 4.83 5.231 10.836 5.758.664.062 1.147.65 1.117 1.331-.091.65-.604 1.145-1.238 1.145Z"/>
  <path fill="#27272A" d="M439.577 318.485h-.272c-.664-.031-1.177-.619-1.147-1.3.03-.681.634-1.207 1.268-1.176.905.061 21.943.742 23.875-30.087 1.992-31.509-3.984-58.036-16.782-74.658-1.72-2.259-4.316-3.621-7.123-3.776-2.837-.155-5.614.96-7.606 3.033-5.011 5.231-8.572 8.482-10.625 9.627-1.207.681-1.901 1.362-1.992 1.919-.121.836.966 2.074 1.962 3.188.875.96 1.751 1.981 2.264 3.095.815 1.796.03 3.993-1.902 5.51-2.777 2.136-8.059 2.848-13.824-2.198-9.357-8.202-3.32-18.076 6.671-34.388.362-.588 1.116-.743 1.66-.403.573.372.724 1.146.392 1.703-10.624 17.333-14.609 24.607-7.153 31.169 4.678 4.117 8.723 3.714 10.775 2.105.996-.774 1.479-1.795 1.177-2.476-.332-.774-1.117-1.641-1.841-2.446-1.358-1.516-2.898-3.219-2.566-5.262.212-1.392 1.268-2.6 3.2-3.714 1.268-.712 4.044-2.909 10.081-9.193 2.475-2.6 5.946-3.962 9.448-3.776 3.501.186 6.73 1.919 8.904 4.736 13.19 17.117 19.317 44.262 17.295 76.36-1.962 31.417-23.453 32.408-26.139 32.408ZM367.043 194.284c-1.69 0-3.471-.464-5.191-1.671-1.63-1.146-1.841-2.569-1.751-3.591.845-9.224 34.681-24.639 38.515-26.372.603-.279 3.169-1.672 3.441-1.021.271.619-1.842 3.033-2.475 3.312-20.707 9.286-36.674 19.748-37.066 24.329-.03.371.03.805.724 1.3 3.834 2.693 7.908.464 11.198-1.331 1.027-.557 1.932-1.053 2.747-1.362.634-.217 1.328.124 1.54.774.211.65-.121 1.362-.755 1.578-.634.217-1.449.681-2.415 1.208-2.264 1.176-5.282 2.847-8.512 2.847Z"/>
  <path fill="#27272A" d="M480.533 238.875c-7.696 0-15.242-1.702-21.369-5.2-.574-.34-.785-1.083-.453-1.702.332-.588 1.056-.805 1.66-.495 13.009 7.459 33.805 6.128 46.331-2.972 5.162-3.745 10.987-10.307 9.327-20.305-.121-.681.332-1.331.996-1.424.664-.092 1.298.341 1.389 1.022 1.448 8.79-2.204 16.869-10.323 22.75-7.576 5.51-17.688 8.326-27.558 8.326ZM118.812 371.9c-.211 0-.423-.062-.634-.186-18.9852-11.607-30.9076-27.609-35.4653-47.636-6.0668-26.526 2.7165-53.3 12.9185-69.52 1.5695-2.507 2.8674-5.54 4.1351-8.45 2.3237-5.416 4.5277-10.524 8.3607-12.69.573-.341 1.328-.124 1.66.495.332.588.091 1.362-.483 1.671-3.139 1.765-5.161 6.5-7.304 11.515-1.298 3.033-2.6261 6.159-4.3164 8.821-9.9303 15.786-18.4721 41.848-12.5864 67.601 4.4068 19.345 15.9668 34.822 34.3488 46.058.573.34.754 1.114.422 1.702-.241.402-.634.619-1.056.619Z"/>
  <path fill="#27272A" d="M115.311 320.298c-.453 0-.845-.247-1.086-.681-3.743-7.336-2.174-12.876.543-15.6 2.716-2.724 6.791-3.188 10.353-1.176 6.308 3.528 9.538 3.033 10.202 1.857.905-1.672-1.449-7.181-11.259-12.846-4.195-2.445-8.059-2.94-11.499-1.516-5.071 2.104-9.237 8.388-12.044 18.169-.181.65-.8749 1.022-1.5088.836-.6339-.186-.996-.898-.8149-1.548 3.0187-10.555 7.6667-17.396 13.4617-19.779 4.165-1.733 8.723-1.176 13.583 1.641 10.473 6.097 14.065 12.783 12.194 16.219-1.328 2.476-5.584 3.56-13.462-.867-2.626-1.485-5.584-1.176-7.516.774-2.082 2.105-3.199 6.531-.09 12.691.301.619.09 1.362-.513 1.672-.182.092-.363.154-.544.154Z"/>
  <path fill="#27272A" d="M94.3949 298.789c-.1207 0-.2415-.031-.3622-.062-.6338-.216-.996-.897-.8149-1.547 2.7165-9.038 7.5462-15.538 13.9752-18.819 5.644-2.879 12.315-3.096 18.804-.65 10.112 3.807 15.333 7.397 15.907 11.019.181 1.176-.03 2.909-2.083 4.643-3.592 3.002-8.874 2.878-9.115 2.847-.664-.031-1.208-.588-1.177-1.269.03-.681.573-1.145 1.237-1.207.03 0 4.648.093 7.516-2.291 1.418-1.176 1.268-2.011 1.207-2.29-.181-1.207-1.992-4.457-14.367-9.1-5.856-2.198-11.862-2.012-16.903.557-5.825 2.972-10.2322 8.945-12.7375 17.334-.0905.495-.5735.835-1.0866.835Z"/>
  <path fill="#27272A" d="M90.6805 289.597c-.1811 0-.3622-.031-.5131-.124-.6037-.279-.8753-1.022-.5735-1.641 11.8021-25.753 21.0381-24.298 30.0021-22.905 8.482 1.331 21.068 5.509 21.4 11.7.242 4.829-3.954 6.996-6.187 7.46-.664.124-1.298-.31-1.419-.96-.151-.681.272-1.331.936-1.454.181-.031 4.467-1.022 4.256-4.891-.181-3.838-10.112-7.924-19.257-9.348-8.512-1.331-16.481-2.569-27.5277 21.482-.2414.433-.664.681-1.1168.681Z"/>
  <path fill="#27272A" d="M88.5391 272.777c-.1811 0-.3623-.03-.5132-.123-.6036-.279-.8753-1.022-.5735-1.641 10.6246-23.183 21.0376-21.109 29.3986-19.438.966.186 1.902.371 2.807.526 8.391 1.3 21.008 5.51 21.309 11.7.242 4.829-3.954 6.996-6.187 7.46-.664.124-1.298-.279-1.419-.96-.151-.681.272-1.331.936-1.454.181-.031 4.467-1.022 4.256-4.891-.181-3.838-10.112-7.924-19.257-9.348-.936-.154-1.902-.34-2.898-.526-7.938-1.578-16.9024-3.405-26.7422 18.045-.2113.372-.664.65-1.1167.65Z"/>
  <defs>
    <filter id="a" width="94" height="94" x="362" y="0" color-interpolation-filters="sRGB" filterUnits="userSpaceOnUse">
      <feFlood flood-opacity="0" result="BackgroundImageFix"/>
      <feBlend in="SourceGraphic" in2="BackgroundImageFix" result="shape"/>
      <feGaussianBlur result="effect1_foregroundBlur_805_1744" stdDeviation="8"/>
    </filter>
    <filter id="b" width="92" height="93" x="0" y="173" color-interpolation-filters="sRGB" filterUnits="userSpaceOnUse">
      <feFlood flood-opacity="0" result="BackgroundImageFix"/>
      <feBlend in="SourceGraphic" in2="BackgroundImageFix" result="shape"/>
      <feGaussianBlur result="effect1_foregroundBlur_805_1744" stdDeviation="8"/>
    </filter>
    <filter id="c" width="92" height="93" x="413" y="62" color-interpolation-filters="sRGB" filterUnits="userSpaceOnUse">
      <feFlood flood-opacity="0" result="BackgroundImageFix"/>
      <feBlend in="SourceGraphic" in2="BackgroundImageFix" result="shape"/>
      <feGaussianBlur result="effect1_foregroundBlur_805_1744" stdDeviation="8"/>
    </filter>
  </defs>
</svg>
