<svg xmlns="http://www.w3.org/2000/svg" fill="none" viewBox="0 0 711 516">
  <g filter="url(#a)">
    <ellipse cx="599.112" cy="194.684" fill="#FECACA" rx="36.177" ry="35.7922"/>
  </g>
  <g filter="url(#b)">
    <ellipse cx="434.012" cy="121.946" fill="#FECACA" rx="30.4041" ry="30.0191"/>
  </g>
  <g filter="url(#c)">
    <ellipse cx="289.303" cy="118.102" fill="#FECACA" rx="30.4041" ry="30.0191"/>
  </g>
  <g filter="url(#d)">
    <ellipse cx="575.25" cy="203.153" fill="#FED7AA" rx="29.2494" ry="28.8646"/>
  </g>
  <g filter="url(#e)">
    <ellipse cx="114.965" cy="192.374" fill="#FED7AA" rx="29.2494" ry="28.8646"/>
  </g>
  <g filter="url(#f)">
    <ellipse cx="103.803" cy="242.028" fill="#BFDBFE" rx="28.0948" ry="27.7099"/>
  </g>
  <g filter="url(#g)">
    <ellipse cx="403.219" cy="103.477" fill="#BFDBFE" rx="28.0948" ry="27.7099"/>
  </g>
  <path fill="#F87171" d="M296.731 128.882c-5.924-5.886-11.847-11.773-17.734-17.696-1.316-1.316-3.364.732-2.047 2.048 5.923 5.886 11.846 11.773 17.733 17.696 1.316 1.316 3.364-.731 2.048-2.048Z"/>
  <path fill="#60A5FA" d="M414.543 96.4173c-3.474 4.0217-6.947 8.0067-10.421 12.0287-1.243 1.426.878 3.474 2.084 2.048 3.474-4.022 6.947-8.007 10.421-12.0292 1.243-1.3894-.878-3.4734-2.084-2.0475Z"/>
  <path fill="#F87171" d="M446.14 117.879c-8.629 3.913-17.222 7.861-25.851 11.773-1.718.805-.219 3.291 1.499 2.523 8.629-3.912 17.222-7.861 25.851-11.773 1.755-.804.256-3.29-1.499-2.523Z"/>
  <path fill="#FBBF24" d="M425.877 339.587c-24.315 3.4-22.377 39.706 4.497 39.523 30.494-.219 25.558-43.764-4.497-39.523Z"/>
  <path fill="#F87171" d="m281.999 361.268 4.278 12.76 12.249-9.762-16.527-2.998Z"/>
  <path fill="#60A5FA" d="m89.5254 225.149 12.6146 31.407 20.585-25.74-33.1996-5.667Z"/>
  <path fill="#F87171" d="m595.646 161.604-28.337 35.647 35.064 31.334 34.736-31.334-41.463-35.647Z"/>
  <path fill="#FBBF24" d="M578.72 188.332h-18.099l-2.889 21.279 17.002 5.63 3.986-26.909ZM126.603 174.987c-.805 5.631-1.609 11.225-2.414 16.855-.255 1.828 2.523 2.633 2.816.768.804-5.63 1.609-11.224 2.413-16.855.256-1.828-2.559-2.632-2.815-.768Z"/>
  <path fill="#60A5FA" d="M585.441 145.774c-.292-1.829-3.108-1.061-2.815.767.402 2.413.804 4.827 1.206 7.24.293 1.828 3.108 1.06 2.816-.768-.402-2.413-.805-4.826-1.207-7.239ZM645.477 216.96c-4.424.403-8.848.805-13.236 1.207-1.864.183-1.864 3.071 0 2.888 4.425-.402 8.849-.804 13.236-1.206 1.829-.146 1.865-3.035 0-2.889Z"/>
  <path fill="#FBBF24" d="M107.296 200.215c-2.413-1.609-4.827-3.218-7.24-4.79-1.5721-1.023-3.0346 1.463-1.4624 2.523 2.4134 1.609 4.8264 3.217 7.2394 4.79 1.573 1.023 3.035-1.499 1.463-2.523Z"/>
  <path fill="#60A5FA" d="M252.601 135.024c-40.22 10.895-76.967 31.772-106.949 60.729-1.353 1.316.694 3.364 2.047 2.047 29.654-28.591 65.925-49.175 105.67-59.961 1.792-.512 1.024-3.291-.768-2.815ZM540.651 148.407c-15.503-13.125-33.493-22.302-53.274-27.055-1.828-.439-2.596 2.376-.767 2.815 19.269 4.643 36.856 13.491 51.957 26.288 1.426 1.206 3.51-.841 2.084-2.048Z"/>
  <path fill="#27272A" d="M479.891 509.015c-.768 0-1.426-.622-1.463-1.426l-5.302-185.953c-.036-.804.622-1.462 1.426-1.499.768 0 1.463.622 1.5 1.426l5.301 185.953c.037.804-.621 1.462-1.425 1.499h-.037ZM245.8 516.001c-.804 0-1.462-.658-1.462-1.463v-28.043c0-.804.658-1.463 1.462-1.463.805 0 1.463.659 1.463 1.463v28.043c0 .841-.658 1.463-1.463 1.463ZM334.505 408.107h-.11l-41.281-3.437c-.402-.036-.768-.219-.987-.512-.256-.292-.366-.694-.329-1.097l2.596-23.509c.073-.731.695-1.28 1.426-1.28h38.685c.804 0 1.462.659 1.462 1.463v26.946c0 .402-.183.804-.475 1.06-.293.22-.658.366-.987.366Zm-39.709-6.216 38.246 3.181v-23.911H297.1l-2.304 20.73ZM438.455 369.094c-14.589 0-22.012-10.347-22.707-19.999-.694-9.47 4.717-20.512 18.209-22.413 9.434-1.353 17.661 1.865 22.56 8.739 4.753 6.654 5.521 15.794 1.938 22.814-3.547 6.947-10.604 10.822-19.818 10.896-.036-.037-.109-.037-.182-.037Zm-4.096-39.523c-11.664 1.645-16.307 11.151-15.722 19.341.621 8.628 7.02 17.294 19.818 17.294h.219c8.081-.074 14.223-3.364 17.258-9.287 3.108-6.033 2.413-14.003-1.718-19.78-2.523-3.547-8.447-9.177-19.855-7.568Z"/>
  <path fill="#27272A" d="M239.736 365.146c-1.024-7.313-4.424-17.733-.293-25.922 5.887-11.627 15.906-24.46 19.672-20 6.179 7.276 23.218 113.122 20.073 143.14-3.144 30.017-32.286 45.226-32.286 45.226l-1.06-21.059s14.15-13.235 14.918-39.011c.768-25.777-15.064-98.315-15.064-98.315l-5.96 15.941ZM491.112 460.059c-2.157 10.31-6.728 18.72-11.92 25.41-.183-2.888-.365-5.813-.548-8.701-.987-14.954-5.412-148.954-3.583-153.414-2.743-14.003 6.654 2.486 11.407 13.126 4.022 8.994 8.849 20.694 8.154 32.211.768 35.501 0 74.623-3.51 91.368Z"/>
  <path fill="#27272A" d="M220.611 414.392c-.805 0-1.463-.658-1.463-1.462l-.073-110.527c0-8.372 6.545-15.1 14.882-15.319 35.796-.914 35.942-.731 36.564.037.292.365.402.841.292 1.279-.183.768-.987 1.28-1.755 1.061-.036 0-.073-.037-.11-.037-.987-.073-6.545-.183-34.918.585-6.764.183-12.066 5.631-12.066 12.394l.073 110.527c.036.804-.622 1.462-1.426 1.462ZM484.752 353.663c-.804 0-1.462-.658-1.462-1.463v-52.502c0-6.837-5.558-12.395-12.396-12.395-.804 0-1.462-.658-1.462-1.462 0-.804.658-1.463 1.462-1.463 8.447 0 15.284 6.874 15.284 15.283v52.503c0 .841-.622 1.499-1.426 1.499ZM226.971 515.996c-.804 0-1.462-.658-1.462-1.462V503.09c0-.804.658-1.463 1.462-1.463.805 0 1.463.659 1.463 1.463v11.444c0 .841-.658 1.462-1.463 1.462ZM448.007 285.879c-1.389-21.973-18.867-19.231-18.867-19.231-4.863-13.126-17.441-14.771-17.441-14.771-1.06-16.051-9.068-32.65-43.877-30.858-34.809 1.791-49.91 16.672-48.703 39.889-14.516.183-19.708 8.957-19.635 14.734-2.815-6.435-3.583-14.113-3.656-22.961-.439-39.231 18.501-52.1 90.423-52.795 59.965-.585 65.852 12.285 67.57 41.754 1.134 20.182 1.28 34.624-5.814 44.239Z"/>
  <path fill="#27272A" d="M389.645 302.805c-81.574 0-94.92-14.771-95.285-50.089-.183-16.965 3.217-28.116 11.078-36.123 12.213-12.468 35.614-17.733 80.77-18.135v1.462-1.462c60.184-.548 67.241 12.687 69.033 43.106 1.243 21.572 1.389 37.622-8.118 47.713-8.958 9.47-26.143 13.528-57.478 13.528Zm-3.4-101.459c-44.316.403-67.095 5.412-78.722 17.258-7.277 7.422-10.458 17.915-10.275 34.075.366 32.101 9.58 47.201 92.397 47.201 30.458 0 47.021-3.765 55.358-12.613 8.739-9.251 8.556-24.716 7.349-45.556-1.572-26.91-5.265-40.913-66.107-40.365Z"/>
  <path fill="#27272A" d="M334.469 280.467c-.182 0-.402-.036-.585-.109-.731-.329-1.06-1.17-.731-1.901 5.156-11.81 18.063-40.803 18.063-40.803.329-.732 1.17-1.061 1.864-.768.403.146 39.636 16.087 58.357 13.199.804-.11 1.535.438 1.645 1.206.11.805-.402 1.536-1.207 1.645-17.733 2.743-51.409-10.017-58.575-12.833-2.56 5.74-12.98 29.177-17.514 39.523-.22.512-.732.841-1.317.841Z"/>
  <path fill="#27272A" d="M317.874 291.767c-.695 0-1.316-.512-1.426-1.207-.475-3.035.22-5.777 2.011-7.934 2.852-3.364 8.264-5.045 16.015-5.045.805 0 1.463.658 1.463 1.462 0 .804-.658 1.463-1.463 1.463-6.801 0-11.554 1.389-13.821 4.021-1.28 1.499-1.718 3.364-1.353 5.594.11.805-.402 1.536-1.206 1.682-.074-.036-.147-.036-.22-.036ZM380.395 296.151c-.804 0-1.462-.658-1.462-1.462 0-.804.658-1.462 1.462-1.462 2.706 0 4.937-.732 5.997-1.938.585-.695.768-1.536.621-2.56-.402-2.303-5.484-3.583-7.897-3.839-.732-.073-1.28-.694-1.28-1.425v-13.309c0-.804.658-1.462 1.462-1.462.805 0 1.463.658 1.463 1.462v12.029c2.706.475 8.483 1.974 9.141 6.069.329 1.865-.11 3.583-1.243 4.899-1.682 1.938-4.607 2.998-8.264 2.998ZM360.071 262.81c-2.377.256-4.681.658-6.984 1.352-1.792.549-.585 3.181 1.207 2.633 2.011-.622 4.131-.914 6.252-1.134 1.865-.219 1.389-3.071-.475-2.851ZM402.042 263.905c-1.499-.987-3.144-1.681-4.57-2.778-1.463-1.134-3.511.95-2.011 2.084 1.608 1.243 3.473 2.084 5.155 3.217 1.572 1.024 2.962-1.536 1.426-2.523Z"/>
  <path fill="#27272A" d="M413.67 300.978c-.805 0-1.463-.658-1.463-1.426-.11-13.674-.475-25.3-1.974-47.566-1.426-21.243-15.284-30.895-42.342-29.506-18.721.951-32.103 5.74-39.781 14.259-5.522 6.143-8.081 14.223-7.569 24.094.036.805-.585 1.5-1.39 1.536-.877 0-1.499-.585-1.535-1.389-.549-10.64 2.23-19.451 8.3-26.179 8.227-9.103 22.267-14.222 41.792-15.209 28.594-1.463 43.877 9.36 45.377 32.211 1.499 22.266 1.864 34.368 1.974 47.749.073.768-.548 1.426-1.389 1.426.036 0 0 0 0 0Z"/>
  <path fill="#27272A" d="M250.407 339.663c-.22 0-.439-.036-.622-.146-.731-.329-1.024-1.206-.695-1.938l.914-1.901c5.595-11.553 22.597-46.653 21.537-78.9-1.024-30.42-.732-51.333 11.59-64.276 13.237-13.894 39.051-18.903 102.343-19.89 52.616-.987 82.525 2.742 86.108 91.259.22 5.667.402 10.932.549 15.831.585 18.756.987 32.321 4.314 43.216.22.768-.183 1.572-.951 1.828-.767.22-1.572-.183-1.828-.95-3.437-11.261-3.839-24.972-4.424-43.984-.146-4.9-.329-10.165-.548-15.832-3.657-90.015-35.285-89.393-83.147-88.479-62.378.95-87.68 5.74-100.295 18.975-11.554 12.102-11.773 32.504-10.786 62.192 1.097 32.942-16.162 68.554-21.829 80.253l-.914 1.902c-.256.548-.768.84-1.316.84Z"/>
  <path fill="#27272A" d="m299.482 275.678-1.463-.037c-.036-3.51 1.499-7.166 4.315-10.054 2.669-2.742 7.751-6.033 16.783-6.143.731 0 1.462.622 1.462 1.426 0 .805-.622 1.463-1.426 1.463-8.044.109-12.432 2.925-14.735 5.265-2.231 2.266-3.51 5.265-3.474 8.007l-1.462.073ZM446.653 288.11c0 .11 0 .183.037.293.877-.841 1.828-1.646 2.815-2.377v-.219c-.475-7.751-2.962-13.455-7.349-16.965-4.498-3.62-9.69-3.839-11.993-3.729-5.375-12.834-17.697-14.625-18.209-14.698-.804-.11-1.535.439-1.645 1.243-.11.804.439 1.536 1.243 1.645.475.073 11.774 1.755 16.307 13.857.256.658.878 1.024 1.573.914.073 0 6.106-.877 10.932 3.035 3.693 2.998 5.814 7.97 6.253 14.88 0 .695.036 1.39.036 2.121ZM357.47 292.056c-2.011 0-4.095-.475-5.996-1.426-5.046-2.522-7.971-7.641-7.971-14.076 0-.804.658-1.462 1.462-1.462.805 0 1.463.658 1.463 1.462.037 5.302 2.34 9.47 6.362 11.48 3.437 1.719 7.459 1.426 10.275-.658 3.217-2.413 4.424-6.8 3.437-12.358-.146-.804.402-1.535 1.17-1.681.804-.147 1.536.402 1.682 1.17 1.609 9.03-2.157 13.381-4.571 15.173-2.084 1.572-4.68 2.376-7.313 2.376ZM398.642 290.413c-1.792 0-3.583-.402-5.229-1.279-4.716-2.377-7.386-7.642-7.386-14.369 0-.805.659-1.463 1.463-1.463s1.462.658 1.462 1.463c0 5.594 2.121 9.908 5.814 11.773 2.889 1.462 6.289 1.206 8.885-.658 3.181-2.304 4.534-6.655 3.693-11.919-.109-.805.403-1.536 1.207-1.682.804-.11 1.536.402 1.682 1.206 1.024 6.362-.731 11.737-4.863 14.735-2.048 1.462-4.351 2.193-6.728 2.193Z"/>
  <path fill="#27272A" d="M368.256 281.928c-.512 0-1.024-.256-1.28-.768-.402-.694-.109-1.572.585-1.974.439-.256 10.97-5.886 20.513-1.353.731.329 1.024 1.207.695 1.938-.33.731-1.207 1.024-1.938.695-8.227-3.912-17.77 1.206-17.88 1.279-.219.11-.475.183-.695.183ZM392.859 275.314l-.292 2.888c-.402 3.73 5.375 4.315 5.777.622l.293-2.888c.365-3.73-5.412-4.351-5.778-.622ZM353.703 276.228l-.292 2.888c-.403 3.729 5.375 4.314 5.777.622l.292-2.889c.402-3.729-5.375-4.351-5.777-.621ZM197.868 429.823c-1.975 0-4.059-.219-6.289-.731-14.114-3.108-18.867-26.873-24.389-54.368-1.535-7.714-3.144-15.685-5.009-23.436-.329-1.279-.621-2.486-.914-3.766-3.4-14.039-6.764-27.348-11.079-35.611-12.066-23.29-33.456-38.646-41.537-40.328-1.206-.256-1.755-.109-1.864-.036-.183.439-.805 3.108 7.386 11.517 3.729 3.802 4.607 9.433 2.303 14.332-1.828 3.912-2.523 7.495-2.047 10.713.109.804-.439 1.535-1.207 1.645-.804.11-1.536-.439-1.645-1.207-.549-3.802.219-7.97 2.303-12.394 1.792-3.802 1.097-8.153-1.755-11.078-6.728-6.91-9.324-11.737-7.934-14.771.292-.622 1.097-1.719 3.144-1.792h.146c8.337 0 32.396 17.148 45.303 42.046 4.461 8.556 7.898 22.047 11.335 36.27.293 1.243.585 2.486.914 3.729 1.865 7.824 3.474 15.831 5.046 23.582 5.082 25.411 9.872 49.395 22.158 52.101 23.291 5.155 32.432-21.535 42.963-52.393 4.168-12.139 8.446-24.716 13.93-36.306.33-.731 1.207-1.024 1.938-.695.732.329 1.024 1.207.695 1.938-5.411 11.407-9.689 23.912-13.785 35.977-9.689 28.262-18.83 55.062-40.11 55.062Z"/>
  <path fill="#27272A" d="M93.2551 305.072c-.1828 0-.3656-.037-.5484-.11-8.1538-3.437-30.6773-11.298-37.0394-6.618-1.2066.914-1.7185 2.304-1.5357 4.278.0731.804-.5119 1.499-1.3163 1.572-.8044.073-1.4991-.512-1.5723-1.316-.3656-3.766 1.2432-5.85 2.7058-6.874 5.6308-4.131 19.0133-.987 28.8124 2.194-3.1445-1.426-6.4718-2.596-9.47-3.656-6.2159-2.157-10.7499-3.729-11.7005-6.654-.256-.768-.3657-2.011.6581-3.51 5.9965-8.812 41.3172 4.716 51.9942 9.104.731.292 1.097 1.133.804 1.901-.292.731-1.17 1.097-1.901.804-25.5217-10.42-45.4857-14.588-48.484-10.128-.4022.585-.329.841-.2925.951.5119 1.536 5.4846 3.291 9.8723 4.826 6.8375 2.377 15.3935 5.375 20.1468 10.859.4388.512.4753 1.243.0731 1.792-.2925.365-.7312.585-1.2066.585Z"/>
  <path fill="#27272A" d="M86.2375 309.607c-2.2669-.585-5.0092-1.462-7.9344-2.34-11.2982-3.509-24.0956-7.495-28.1543-2.815-1.8282 2.084-1.6453 5.338.5485 9.945 0 .037.0366.037.0366.073.8409-.036 1.6819 0 2.4863.073.256-.402.2925-.95.0732-1.389-1.6089-3.327-1.9379-5.704-.9873-6.801 2.8155-3.254 16.1979.951 25.0829 3.693 2.9617.914 5.7406 1.792 8.0807 2.413.7678.183 1.5722-.256 1.7551-1.024.2559-.84-.1829-1.645-.9873-1.828Z"/>
  <path fill="#27272A" d="M188.58 515.999c-4.973 0-10.201-.512-15.723-1.609-54.553-10.932-64.316-86.615-68.996-122.958-.439-3.437-.841-6.471-1.207-8.994-.694-4.607-1.499-8.994-2.34-12.98-.182-1.023-.4019-2.011-.6578-2.998-3.949-17.403-9.1045-28.993-14.1869-31.882-5.7771-3.29-13.0534-5.192-19.4886-6.873-8.9948-2.34-16.0882-4.205-17.5508-9.068-.4388-1.462-.8775-3.583.5119-5.082 2.6326-2.815 9.4701-1.426 30.7869 3.364.7679.183 1.2798.95 1.097 1.718-.1829.768-.9507 1.28-1.7185 1.097-14.7719-3.327-26.3993-5.96-28.0081-4.241-.256.292-.2194 1.097.1462 2.267.9873 3.29 8.0441 5.155 15.5032 7.093 6.5815 1.718 14.0772 3.656 20.1834 7.166 7.9344 4.497 13.1631 23.07 15.5761 33.71.256.987.512 2.084.695 3.144.877 4.022 1.682 8.446 2.377 13.126.365 2.559.767 5.594 1.206 9.067 4.607 35.685 14.187 109.979 66.693 120.509 57.077 11.48 84.097-44.643 84.353-45.228.329-.731 1.207-1.023 1.938-.694.732.329 1.024 1.206.695 1.938-.293.511-23.365 48.408-71.885 48.408Z"/>
  <path fill="#27272A" d="M101.049 366.021c.292 1.024.475 2.048.695 3.071 11.554 2.121 23.547 1.792 35.064-1.243 10.312-2.742 20.879-8.446 26.875-16.928-.329-1.28-.622-2.523-.914-3.766-6.216 11.115-21.024 17.257-33.566 19.378-9.433 1.609-18.94 1.389-28.154-.512ZM209.386 512.854c-.622 0-1.207-.402-1.39-1.024-2.779-9.067-12.359-18.207-24.937-23.765-15.832-7.019-33.419-7.092-48.191-.219-.731.329-1.572.037-1.938-.695-.329-.731-.036-1.572.695-1.937 15.54-7.239 33.968-7.203 50.604.182 13.346 5.923 23.511 15.722 26.546 25.593.219.768-.183 1.573-.951 1.829-.146 0-.292.036-.438.036ZM525.992 411.505c-22.011 0-32.907-33.71-41.061-58.901l-.549-1.682c-3.985-12.431-7.422-23.18-11.078-27.97-.476-.621-.366-1.535.256-2.047.621-.476 1.535-.366 2.047.256 3.949 5.191 7.496 16.123 11.554 28.81l.549 1.682c10.676 33.052 22.084 62.228 44.096 56.049 23.547-6.617 29.068-46.47 33.968-81.642l.11-.841c.219-1.316.365-2.559.548-3.839 2.011-14.515 4.132-28.262 7.715-37.22 10.457-26.178 32.944-45.665 41.135-46.287 2.084-.146 2.925.841 3.29 1.462 1.719 2.889-.438 8.007-6.581 15.612-2.486 3.072-2.742 7.422-.658 10.859 2.596 4.278 3.802 8.409 3.583 12.285-.037.804-.731 1.426-1.536 1.389-.804-.036-1.426-.731-1.389-1.535.146-3.291-.914-6.874-3.181-10.64-2.706-4.46-2.34-10.164.877-14.186 7.459-9.286 6.582-11.919 6.326-12.321-.073-.037-.622-.146-1.828.219-7.898 2.486-27.679 19.853-37.405 44.203-3.474 8.666-5.558 22.23-7.569 36.526-.183 1.279-.366 2.522-.548 3.839l-.11.804c-5.009 36.05-10.677 76.926-36.052 84.019-2.231.804-4.425 1.097-6.509 1.097Z"/>
  <path fill="#27272A" d="M632.719 273.009c-.403 0-.805-.182-1.097-.475-.439-.512-.476-1.243-.11-1.791 4.205-5.923 12.395-9.726 18.977-12.76 4.241-1.938 9.031-4.168 9.36-5.74.037-.11.073-.366-.365-.915-3.438-4.131-22.89 1.975-47.278 14.808-.695.365-1.572.11-1.974-.622-.366-.694-.11-1.572.621-1.974 10.202-5.375 44.023-22.302 50.861-14.113 1.133 1.353 1.17 2.596.987 3.4-.658 2.962-5.009 4.973-10.969 7.752-2.889 1.352-6.106 2.815-9.105 4.57 9.434-4.132 22.487-8.592 28.484-5.009 1.536.914 3.364 2.778 3.364 6.581 0 .804-.658 1.462-1.463 1.462-.804 0-1.462-.658-1.462-1.462 0-1.974-.622-3.327-1.938-4.095-6.765-4.022-28.447 5.996-36.199 10.201-.219.146-.438.182-.694.182Z"/>
  <path fill="#27272A" d="M640.8 279.628c-.585 0-1.133-.366-1.353-.951-.292-.768.11-1.572.878-1.865 2.194-.804 4.863-1.937 7.678-3.107 10.897-4.607 23.255-9.836 27.753-5.558 2.011 1.901 2.157 5.155.402 9.945-.293.768-1.097 1.133-1.865.878-.768-.256-1.133-1.097-.877-1.865 1.279-3.474 1.389-5.85.329-6.874-3.108-2.961-16.052 2.523-24.608 6.143-2.852 1.206-5.558 2.34-7.788 3.181-.22.036-.403.073-.549.073Z"/>
  <path fill="#27272A" d="M540.07 495.631c-41.061 0-61.171-28.481-61.39-28.81-.439-.658-.293-1.572.365-2.011.658-.439 1.572-.293 2.011.366.256.365 25.631 36.159 77.808 25.593 54.59-11.042 63.621-90.308 68.448-132.902.292-2.56.548-4.973.841-7.276.256-2.267.402-4.534.548-6.8.147-2.194.293-4.351.512-6.472.073-1.024.22-2.12.402-3.217 1.353-10.786 4.754-29.762 12.213-35.026 5.74-4.059 12.98-6.728 19.379-9.104 7.239-2.669 14.077-5.192 14.735-8.556.219-1.206.219-2.011-.073-2.267-1.755-1.572-13.09 2.194-27.46 6.947-.768.256-1.572-.146-1.828-.914s.146-1.572.914-1.828c20.732-6.837 27.423-8.921 30.312-6.362 1.535 1.353 1.316 3.51 1.023 5.009-.95 4.973-7.861 7.532-16.6 10.713-6.215 2.303-13.272 4.899-18.72 8.738-4.79 3.364-8.812 15.429-11.006 33.052-.183 1.06-.293 2.084-.366 3.071-.256 2.121-.365 4.205-.512 6.362-.146 2.303-.292 4.607-.585 6.947-.256 2.303-.548 4.716-.841 7.239-4.936 43.325-14.113 123.944-70.751 135.388-6.91 1.535-13.346 2.12-19.379 2.12Z"/>
  <path fill="#27272A" d="M631.076 334.434c-.183 1.06-.293 2.084-.366 3.144-11.298 3.254-23.255 4.095-34.992 2.194-10.53-1.719-21.572-6.362-28.373-14.223.219-1.316.365-2.559.548-3.839 7.276 10.457 22.597 15.137 35.285 16.014 9.47.622 18.903-.548 27.898-3.29ZM523.323 494.281c-.183 0-.329-.037-.512-.074-.768-.292-1.133-1.096-.877-1.864 11.335-30.932 56.857-43.216 80.843-36.087.768.22 1.207 1.024.987 1.792-.219.768-1.023 1.206-1.791.987-22.963-6.801-66.511 4.863-77.297 34.331-.219.549-.768.915-1.353.915ZM381.015 74.8067c-6.655-6.4714-21.098-12.7235-52.141-5.7402-.475.1097-.877.4388-1.023.9141-.183.4753-.11.9872.182 1.3528l6.216 8.5189c.366.5118.988.7312 1.573.5484 13.199-3.9487 24.461-3.4734 31.737 1.3162 4.461 2.925 7.167 7.4586 7.825 13.1257 1.682 14.3324-25.595 18.2074-25.851 18.2444-.731.11-1.28.768-1.243 1.499l1.206 24.277c.037.768.695 1.389 1.463 1.389h5.302c.402 0 .768-.146 1.06-.438.256-.293.439-.659.402-1.061l-.548-17.367c5.485-1.206 27.057-6.873 30.275-23.326 1.755-9.2135-.512-17.4765-6.435-23.2533ZM357.288 145.334h-7.276c-.695 0-1.28.476-1.426 1.134l-2.048 9.14c-.073.402 0 .804.22 1.133.219.33.585.549.987.622l9.287 1.426h.219c.33 0 .695-.11.951-.366.329-.292.512-.694.512-1.097V146.76c.037-.767-.622-1.426-1.426-1.426Z"/>
  <defs>
    <filter id="a" width="222.354" height="221.584" x="487.935" y="83.8921" color-interpolation-filters="sRGB" filterUnits="userSpaceOnUse">
      <feFlood flood-opacity="0" result="BackgroundImageFix"/>
      <feBlend in="SourceGraphic" in2="BackgroundImageFix" result="shape"/>
      <feGaussianBlur result="effect1_foregroundBlur_805_970" stdDeviation="37.5"/>
    </filter>
    <filter id="b" width="210.809" height="210.038" x="328.608" y="16.9272" color-interpolation-filters="sRGB" filterUnits="userSpaceOnUse">
      <feFlood flood-opacity="0" result="BackgroundImageFix"/>
      <feBlend in="SourceGraphic" in2="BackgroundImageFix" result="shape"/>
      <feGaussianBlur result="effect1_foregroundBlur_805_970" stdDeviation="37.5"/>
    </filter>
    <filter id="c" width="210.809" height="210.038" x="183.899" y="13.0825" color-interpolation-filters="sRGB" filterUnits="userSpaceOnUse">
      <feFlood flood-opacity="0" result="BackgroundImageFix"/>
      <feBlend in="SourceGraphic" in2="BackgroundImageFix" result="shape"/>
      <feGaussianBlur result="effect1_foregroundBlur_805_970" stdDeviation="37.5"/>
    </filter>
    <filter id="d" width="208.499" height="207.729" x="471.001" y="99.2883" color-interpolation-filters="sRGB" filterUnits="userSpaceOnUse">
      <feFlood flood-opacity="0" result="BackgroundImageFix"/>
      <feBlend in="SourceGraphic" in2="BackgroundImageFix" result="shape"/>
      <feGaussianBlur result="effect1_foregroundBlur_805_970" stdDeviation="37.5"/>
    </filter>
    <filter id="e" width="208.499" height="207.729" x="10.7158" y="88.5093" color-interpolation-filters="sRGB" filterUnits="userSpaceOnUse">
      <feFlood flood-opacity="0" result="BackgroundImageFix"/>
      <feBlend in="SourceGraphic" in2="BackgroundImageFix" result="shape"/>
      <feGaussianBlur result="effect1_foregroundBlur_805_970" stdDeviation="37.5"/>
    </filter>
    <filter id="f" width="206.189" height="205.42" x=".708008" y="139.318" color-interpolation-filters="sRGB" filterUnits="userSpaceOnUse">
      <feFlood flood-opacity="0" result="BackgroundImageFix"/>
      <feBlend in="SourceGraphic" in2="BackgroundImageFix" result="shape"/>
      <feGaussianBlur result="effect1_foregroundBlur_805_970" stdDeviation="37.5"/>
    </filter>
    <filter id="g" width="206.189" height="205.42" x="300.124" y=".766846" color-interpolation-filters="sRGB" filterUnits="userSpaceOnUse">
      <feFlood flood-opacity="0" result="BackgroundImageFix"/>
      <feBlend in="SourceGraphic" in2="BackgroundImageFix" result="shape"/>
      <feGaussianBlur result="effect1_foregroundBlur_805_970" stdDeviation="37.5"/>
    </filter>
  </defs>
</svg>
