<svg xmlns="http://www.w3.org/2000/svg" fill="none" viewBox="0 0 300 224">
  <g filter="url(#a)" opacity=".35">
    <ellipse cx="262.381" cy="72.5654" fill="#FECACA" rx="17.0268" ry="16.8456"/>
  </g>
  <g filter="url(#b)" opacity=".35">
    <ellipse cx="184.678" cy="38.331" fill="#FECACA" rx="14.3097" ry="14.1285"/>
  </g>
  <g filter="url(#c)" opacity=".35">
    <ellipse cx="116.57" cy="36.5217" fill="#FECACA" rx="14.3097" ry="14.1285"/>
  </g>
  <g filter="url(#d)" opacity=".35">
    <ellipse cx="251.151" cy="76.5513" fill="#FED7AA" rx="13.7663" ry="13.5851"/>
  </g>
  <g filter="url(#e)" opacity=".35">
    <ellipse cx="34.5175" cy="71.4781" fill="#FED7AA" rx="13.7663" ry="13.5851"/>
  </g>
  <g filter="url(#f)" opacity=".35">
    <ellipse cx="29.2634" cy="94.8477" fill="#BFDBFE" rx="13.2229" ry="13.0417"/>
  </g>
  <g filter="url(#g)" opacity=".35">
    <ellipse cx="170.184" cy="29.6384" fill="#BFDBFE" rx="13.2229" ry="13.0417"/>
  </g>
  <path fill="#F87171" d="M120.066 41.5952c-2.788-2.7704-5.576-5.5409-8.346-8.3286-.62-.6194-1.583.3442-.964.9637 2.788 2.7704 5.576 5.5409 8.346 8.3286.62.6194 1.584-.3442.964-.9637Z"/>
  <path fill="#60A5FA" d="M175.514 26.3156c-1.634 1.8929-3.269 3.7686-4.904 5.6614-.585.6711.413 1.6348.981.9637 1.635-1.8929 3.269-3.7685 4.904-5.6614.585-.6539-.413-1.6348-.981-.9637Z"/>
  <path fill="#F87171" d="M190.386 36.4169c-4.061 1.8412-8.106 3.6996-12.167 5.5409-.809.3785-.103 1.5487.706 1.1873 4.061-1.8412 8.105-3.6997 12.166-5.5409.826-.3786.121-1.5487-.705-1.1873Z"/>
  <path fill="#FBBF24" d="M180.849 140.764c-11.444 1.6-10.532 18.688 2.117 18.602 14.352-.104 12.029-20.598-2.117-18.602Z"/>
  <path fill="#F87171" d="m113.133 150.968 2.014 6.005 5.765-4.594-7.779-1.411Z"/>
  <path fill="#60A5FA" d="m22.5449 86.9033 5.9371 14.7817 9.6886-12.1145-15.6257-2.6672Z"/>
  <path fill="#F87171" d="m260.751 56.9958-13.336 16.7776 16.503 14.7472 16.348-14.7472-19.515-16.7776Z"/>
  <path fill="#FBBF24" d="M252.785 69.5751h-8.519l-1.359 10.015 8.002 2.6499 1.876-12.6649ZM39.9956 63.2946c-.3786 2.6501-.7572 5.2828-1.1358 7.9329-.1205.8603 1.1874 1.2389 1.3251.3613.3786-2.65.7572-5.2828 1.1358-7.9328.1204-.8604-1.2047-1.239-1.3251-.3614Z"/>
  <path fill="#60A5FA" d="M255.948 49.5452c-.137-.8604-1.462-.499-1.325.3614.19 1.1357.379 2.2714.568 3.4072.138.8604 1.463.499 1.325-.3614-.189-1.1358-.378-2.2715-.568-3.4072ZM284.205 83.0495c-2.083.1893-4.165.3786-6.23.5679-.878.086-.878 1.4454 0 1.3594 2.082-.1893 4.165-.3786 6.23-.5679.86-.0688.877-1.4282 0-1.3594Z"/>
  <path fill="#FBBF24" d="M30.9087 75.1681c-1.1358-.7572-2.2715-1.5143-3.4073-2.2543-.74-.4818-1.4284.6884-.6884 1.1874 1.1358.7571 2.2716 1.5142 3.4074 2.2542.74.4818 1.4283-.7055.6883-1.1873Z"/>
  <path fill="#60A5FA" d="M99.2973 44.486c-18.9298 5.1279-36.2248 14.9536-50.336 28.5822-.6368.6195.3269 1.5831.9637.9636C63.8814 60.5753 80.9526 50.8873 99.6587 45.811c.8433-.241.4823-1.5487-.3614-1.325ZM234.868 50.7847c-7.297-6.1776-15.764-10.4968-25.074-12.7338-.86-.2065-1.221 1.1185-.361 1.325 9.069 2.1854 17.347 6.3497 24.454 12.3724.671.5679 1.652-.3957.981-.9636Z"/>
  <path fill="#27272A" d="M206.269 220.505c-.361 0-.671-.292-.688-.671l-2.496-87.519c-.017-.378.293-.688.672-.705.361 0 .688.292.705.671l2.495 87.519c.018.378-.292.688-.671.705h-.017ZM96.0942 223.793c-.3786 0-.6883-.31-.6883-.688v-13.199c0-.379.3097-.688.6883-.688.3786 0 .6884.309.6884.688v13.199c0 .395-.3098.688-.6884.688ZM137.843 173.013h-.051l-19.429-1.618c-.19-.017-.362-.103-.465-.241-.12-.137-.172-.327-.155-.516l1.222-11.065c.034-.344.327-.602.671-.602h18.207c.379 0 .689.31.689.688v12.683c0 .189-.086.378-.224.499-.138.103-.31.172-.465.172Zm-18.689-2.926 18.001 1.498v-11.254h-16.916l-1.085 9.756ZM186.767 154.651c-6.866 0-10.36-4.87-10.687-9.413-.327-4.456 2.22-9.653 8.57-10.548 4.44-.637 8.312.878 10.618 4.113 2.237 3.132 2.599 7.433.912 10.737-1.669 3.27-4.99 5.094-9.327 5.128-.017-.017-.051-.017-.086-.017Zm-1.927-18.602c-5.49.775-7.675 5.249-7.4 9.103.292 4.061 3.304 8.14 9.327 8.14h.103c3.804-.035 6.695-1.583 8.123-4.371 1.463-2.839 1.136-6.591-.809-9.31-1.187-1.669-3.975-4.319-9.344-3.562Z"/>
  <path fill="#27272A" d="M93.2408 152.793c-.4818-3.441-2.0823-8.346-.1376-12.2 2.7706-5.472 7.4858-11.512 9.2588-9.413 2.908 3.424 10.927 53.241 9.447 67.369-1.48 14.127-15.1952 21.286-15.1952 21.286l-.4991-9.912s6.6603-6.229 7.0213-18.361c.361-12.131-7.0901-46.272-7.0901-46.272l-2.8051 7.503ZM211.551 197.464c-1.015 4.853-3.166 8.81-5.61 11.959-.086-1.359-.172-2.736-.258-4.095-.464-7.038-2.547-70.105-1.686-72.205-1.291-6.59 3.132 1.171 5.369 6.178 1.893 4.233 4.164 9.74 3.838 15.16.361 16.709 0 35.122-1.653 43.003Z"/>
  <path fill="#27272A" d="M84.2397 175.971c-.3786 0-.6883-.31-.6883-.688l-.0344-52.02c0-3.94 3.0803-7.107 7.004-7.21 16.847-.43 16.916-.344 17.209.017.137.173.189.396.138.603-.087.361-.465.602-.827.499-.017 0-.034-.017-.051-.017-.465-.035-3.081-.086-16.4346.275-3.1837.086-5.6789 2.65-5.6789 5.833l.0344 52.02c.0172.378-.2926.688-.6712.688ZM208.558 147.389c-.378 0-.688-.31-.688-.689v-24.71c0-3.218-2.616-5.834-5.834-5.834-.379 0-.688-.309-.688-.688 0-.378.309-.688.688-.688 3.975 0 7.193 3.235 7.193 7.193v24.71c0 .396-.292.706-.671.706ZM87.233 223.791c-.3786 0-.6883-.31-.6883-.688v-5.386c0-.379.3097-.689.6883-.689.3786 0 .6884.31.6884.689v5.386c0 .395-.3098.688-.6884.688ZM191.263 115.486c-.653-10.342-8.879-9.051-8.879-9.051-2.289-6.178-8.209-6.9521-8.209-6.9521-.499-7.5543-4.268-15.3667-20.651-14.5235-16.383.8432-23.49 7.8468-22.922 18.7736-6.832.086-9.276 4.216-9.241 6.935-1.325-3.029-1.687-6.642-1.721-10.8066-.207-18.464 8.708-24.5212 42.558-24.8481 28.222-.2754 30.993 5.7818 31.802 19.6514.533 9.4983.602 16.2963-2.737 20.8213Z"/>
  <path fill="#27272A" d="M163.795 123.452c-38.393 0-44.674-6.952-44.847-23.5744-.086-7.9845 1.515-13.2329 5.215-17.0014 5.748-5.8679 16.761-8.3458 38.014-8.5351v.6883-.6883c28.326-.2581 31.647 5.9711 32.49 20.2881.585 10.1528.654 17.7068-3.82 22.4558-4.216 4.457-12.304 6.367-27.052 6.367Zm-1.601-47.7515c-20.857.1893-31.578 2.5468-37.05 8.1221-3.425 3.4932-4.922 8.4319-4.836 16.0378.172 15.1086 4.509 22.2156 43.487 22.2156 14.335 0 22.13-1.773 26.054-5.937 4.113-4.354 4.027-11.633 3.459-21.441-.74-12.665-2.478-19.2556-31.114-18.9975Z"/>
  <path fill="#27272A" d="M137.826 112.939c-.086 0-.189-.017-.275-.052-.344-.155-.499-.55-.344-.895 2.426-5.558 8.501-19.2035 8.501-19.2035.155-.3442.551-.499.878-.3614.189.0689 18.654 7.5715 27.465 6.2121.379-.0517.723.2065.774.5678.052.3786-.189.7228-.567.7744-8.347 1.2906-24.196-4.715-27.569-6.04-1.205 2.7017-6.109 13.7316-8.243 18.6016-.103.241-.344.396-.62.396Z"/>
  <path fill="#27272A" d="M130.017 118.257c-.327 0-.62-.241-.672-.568-.223-1.428.104-2.719.947-3.734 1.342-1.583 3.889-2.375 7.537-2.375.379 0 .689.31.689.689 0 .378-.31.688-.689.688-3.2 0-5.438.654-6.505 1.893-.602.705-.808 1.583-.636 2.633.051.378-.19.722-.568.791-.035-.017-.069-.017-.103-.017ZM159.442 120.321c-.379 0-.689-.31-.689-.689 0-.378.31-.688.689-.688 1.273 0 2.323-.344 2.822-.912.275-.327.361-.723.292-1.205-.189-1.084-2.581-1.686-3.717-1.806-.344-.035-.602-.327-.602-.672v-6.263c0-.379.31-.688.688-.688.379 0 .689.309.689.688v5.661c1.273.224 3.992.929 4.302 2.857.155.877-.052 1.686-.585 2.306-.792.912-2.169 1.411-3.889 1.411ZM149.876 104.628c-1.119.121-2.203.31-3.287.637-.843.258-.275 1.497.568 1.239.946-.293 1.945-.43 2.943-.534.877-.103.654-1.445-.224-1.342ZM169.63 105.144c-.706-.465-1.48-.792-2.151-1.308-.689-.533-1.652.448-.947.981.757.585 1.635.981 2.427 1.514.74.482 1.394-.722.671-1.187Z"/>
  <path fill="#27272A" d="M175.102 122.592c-.378 0-.688-.309-.688-.671-.052-6.435-.224-11.907-.929-22.387-.671-9.9978-7.194-14.5407-19.928-13.8868-8.811.4474-15.11 2.7017-18.723 6.7111-2.599 2.8909-3.804 6.6938-3.563 11.3397.018.379-.275.706-.654.723-.413 0-.705-.275-.722-.654-.259-5.0074 1.049-9.1545 3.906-12.3207 3.872-4.2848 10.48-6.6939 19.67-7.1585 13.457-.6883 20.651 4.4052 21.356 15.1601.706 10.4791.878 16.1751.929 22.4731.035.362-.258.671-.654.671 0 0 .018 0 0 0Z"/>
  <path fill="#27272A" d="M98.2624 140.8c-.1032 0-.2065-.018-.2925-.069-.3442-.155-.4819-.568-.327-.912l.4302-.895c2.6329-5.438 10.6349-21.957 10.1359-37.135-.482-14.3166-.344-24.1595 5.455-30.2511 6.23-6.539 18.379-8.8965 48.168-9.3611 24.764-.4646 38.84 1.2906 40.527 42.9512.103 2.667.189 5.145.258 7.451.275 8.827.465 15.211 2.031 20.339.103.362-.086.74-.448.861-.361.103-.74-.086-.86-.448-1.618-5.3-1.807-11.753-2.082-20.701-.069-2.306-.155-4.783-.259-7.451-1.72-42.3655-16.606-42.073-39.133-41.6428-29.358.4474-41.266 2.7017-47.204 8.9309-5.438 5.6958-5.541 15.2978-5.076 29.2709.516 15.504-7.606 32.265-10.2738 37.771l-.4303.895c-.1204.258-.3613.396-.6195.396Z"/>
  <path fill="#27272A" d="m121.36 110.685-.689-.018c-.017-1.652.706-3.372 2.031-4.732 1.256-1.29 3.648-2.839 7.899-2.891.344 0 .688.293.688.671 0 .379-.292.689-.671.689-3.786.051-5.851 1.376-6.935 2.478-1.05 1.067-1.652 2.478-1.635 3.768l-.688.035ZM190.626 116.536c0 .052 0 .086.018.138.413-.396.86-.775 1.325-1.119v-.103c-.224-3.648-1.394-6.333-3.459-7.985-2.117-1.703-4.561-1.806-5.645-1.755-2.53-6.0398-8.329-6.883-8.57-6.9174-.378-.0516-.723.2065-.774.5851-.052.3786.206.7223.585.7743.224.034 5.541.826 7.675 6.522.12.31.413.482.74.43.034 0 2.874-.413 5.145 1.428 1.738 1.411 2.737 3.752 2.943 7.004 0 .327.017.654.017.998ZM148.652 118.393c-.946 0-1.927-.223-2.822-.671-2.375-1.187-3.752-3.596-3.752-6.625 0-.378.31-.688.689-.688.378 0 .688.31.688.688.017 2.495 1.101 4.457 2.994 5.403 1.618.809 3.511.671 4.836-.309 1.514-1.136 2.082-3.201 1.618-5.817-.069-.378.189-.722.55-.791.379-.069.723.189.792.55.757 4.251-1.015 6.299-2.151 7.142-.981.74-2.203 1.118-3.442 1.118ZM168.029 117.62c-.843 0-1.686-.189-2.461-.602-2.22-1.119-3.476-3.597-3.476-6.763 0-.378.31-.688.688-.688.379 0 .689.31.689.688 0 2.633.998 4.664 2.736 5.541 1.36.688 2.96.568 4.182-.31 1.497-1.084 2.134-3.131 1.738-5.609-.052-.379.189-.723.568-.792.378-.052.723.189.791.568.482 2.994-.344 5.524-2.288 6.935-.964.688-2.048 1.032-3.167 1.032Z"/>
  <path fill="#27272A" d="M153.728 113.627c-.241 0-.482-.121-.602-.362-.19-.327-.052-.74.275-.929.207-.12 5.163-2.77 9.654-.637.344.155.482.568.327.912-.155.344-.568.482-.912.327-3.872-1.841-8.363.568-8.415.603-.103.051-.224.086-.327.086ZM165.308 110.513l-.137 1.36c-.19 1.755 2.529 2.03 2.719.292l.137-1.359c.172-1.755-2.547-2.048-2.719-.293ZM146.879 110.944l-.138 1.359c-.189 1.755 2.53 2.031 2.719.293l.138-1.36c.189-1.755-2.53-2.047-2.719-.292ZM73.5354 183.234c-.9293 0-1.9102-.104-2.96-.345-6.6426-1.462-8.8798-12.647-11.4783-25.588-.7228-3.63-1.48-7.382-2.3576-11.03-.1549-.602-.2926-1.17-.4303-1.772-1.6004-6.608-3.1836-12.872-5.2143-16.761-5.6789-10.961-15.7461-18.188-19.5493-18.98-.5679-.12-.826-.052-.8776-.017-.0861.206-.3786 1.462 3.4762 5.42 1.7553 1.79 2.1683 4.44 1.0841 6.746-.8604 1.841-1.1874 3.527-.9637 5.042.0517.378-.2065.722-.5679.774-.3786.052-.7227-.207-.7744-.568-.2581-1.79.1033-3.751 1.0842-5.833.8432-1.79.5163-3.838-.826-5.214-3.1665-3.253-4.3883-5.524-3.7344-6.952.1377-.293.5163-.809 1.48-.844h.0688c3.9237 0 15.2471 8.071 21.3219 19.79 2.0995 4.026 3.7171 10.376 5.3347 17.07.1377.585.2754 1.17.4302 1.755.8777 3.682 1.6349 7.451 2.3749 11.099 2.392 11.96 4.6464 23.248 10.4286 24.521 10.962 2.427 15.2643-10.135 20.2204-24.659 1.9619-5.713 3.9753-11.632 6.5566-17.087.1549-.344.5679-.482.9121-.327.3442.155.4818.568.327.912-2.5469 5.369-4.5604 11.254-6.4878 16.933-4.5603 13.301-8.8626 25.915-18.8781 25.915Z"/>
  <path fill="#27272A" d="M24.2994 124.519c-.0861 0-.1721-.017-.2582-.051-3.8375-1.618-14.43822-5.318-17.43257-3.115-.5679.43-.80882 1.084-.72278 2.013.03442.379-.24092.706-.61952.74-.3786.035-.70557-.241-.73998-.619-.17209-1.773.5851-2.753 1.27346-3.235 2.65017-1.945 8.94859-.465 13.56059 1.032-1.4799-.671-3.0459-1.222-4.4571-1.721-2.9255-1.015-5.0594-1.755-5.50683-3.131-.12046-.362-.17209-.947.30976-1.652 2.82227-4.147 19.44607 2.219 24.47107 4.284.3442.138.5163.534.3786.895-.1377.344-.5507.516-.8949.379-12.0118-4.904-21.4079-6.866-22.819-4.767-.1893.276-.1549.396-.1377.448.241.722 2.5814 1.548 4.6465 2.271 3.218 1.119 7.2449 2.53 9.4821 5.111.2065.241.2237.585.0344.843-.1377.172-.3442.275-.5679.275Z"/>
  <path fill="#27272A" d="M20.9965 126.654c-1.0669-.276-2.3576-.689-3.7343-1.102-5.3175-1.651-11.34066-3.527-13.25085-1.325-.86045.981-.7744 2.513.25813 4.681 0 .017.01721.017.01721.034.39581-.017.79161 0 1.17021.035.12046-.189.13767-.448.03442-.654-.7572-1.566-.91208-2.684-.46464-3.201 1.32508-1.531 7.62352.448 11.80532 1.738 1.3939.43 2.7018.843 3.8031 1.136.3614.086.74-.12.8261-.482.1204-.396-.0861-.774-.4647-.86Z"/>
  <path fill="#27272A" d="M69.1641 223.792c-2.3404 0-4.8013-.241-7.3998-.757-25.6757-5.145-30.2705-40.766-32.4732-57.87-.2065-1.618-.3958-3.046-.5679-4.233-.327-2.169-.7056-4.234-1.1014-6.109-.086-.482-.1893-.947-.3098-1.411-1.8585-8.191-4.285-13.646-6.677-15.006-2.719-1.548-6.1436-2.443-9.1724-3.235-4.23338-1.101-7.57191-1.979-8.26027-4.267-.2065-.689-.41301-1.687.24093-2.392 1.23904-1.325 4.45711-.671 14.48994 1.583.3614.086.6023.447.5162.809-.086.361-.4474.602-.8088.516-6.9524-1.566-12.42482-2.805-13.18201-1.996-.12047.138-.10326.516.06883 1.067.46464 1.548 3.78596 2.426 7.29658 3.338 3.0976.809 6.6254 1.721 9.4993 3.373 3.7344 2.116 6.1952 10.858 7.331 15.866.1205.464.241.98.327 1.479.413 1.893.7916 3.975 1.1186 6.178.1721 1.205.3614 2.633.5679 4.268 2.1683 16.795 6.677 51.761 31.389 56.717 26.8632 5.403 39.5802-21.011 39.7012-21.286.155-.344.568-.482.912-.327.344.155.482.568.327.912-.138.241-10.9966 22.783-33.8329 22.783Z"/>
  <path fill="#27272A" d="M27.967 153.205c.1377.482.2238.964.327 1.446 5.438.998 11.0825.843 16.5034-.585 4.8529-1.291 9.8262-3.975 12.6485-7.968-.1549-.602-.2925-1.187-.4302-1.772-2.9255 5.231-9.8951 8.122-15.7978 9.12-4.4399.757-8.9142.654-13.2509-.241ZM78.9567 222.312c-.2926 0-.5679-.189-.654-.482-1.3079-4.267-5.8166-8.569-11.7364-11.185-7.4515-3.303-15.729-3.338-22.6814-.103-.3441.155-.74.017-.912-.327-.1549-.344-.0172-.74.3269-.912 7.3138-3.407 15.9871-3.39 23.8171.086 6.2813 2.788 11.0654 7.4 12.4937 12.046.1033.361-.086.74-.4474.86-.0689 0-.1377.017-.2065.017ZM227.968 174.612c-10.36 0-15.488-15.866-19.326-27.722l-.258-.791c-1.875-5.851-3.493-10.91-5.214-13.164-.224-.293-.172-.723.12-.964.293-.224.723-.172.964.121 1.859 2.443 3.528 7.588 5.438 13.559l.258.792c5.025 15.556 10.394 29.288 20.754 26.379 11.083-3.114 13.681-21.871 15.987-38.425l.052-.395c.103-.62.172-1.205.258-1.807.947-6.832 1.945-13.302 3.631-17.518 4.922-12.321 15.505-21.4924 19.36-21.7849.981-.0688 1.377.3958 1.549.6883.809 1.3594-.207 3.7685-3.098 7.3476-1.17 1.446-1.29 3.493-.309 5.111 1.221 2.013 1.789 3.958 1.686 5.782-.017.378-.344.671-.723.654-.378-.018-.671-.345-.654-.723.069-1.549-.43-3.235-1.497-5.008-1.273-2.099-1.101-4.783.413-6.676 3.511-4.371 3.098-5.61 2.977-5.7993-.034-.0172-.292-.0688-.86.1033-3.717 1.1701-13.027 9.344-17.605 20.804-1.635 4.078-2.616 10.463-3.562 17.191-.086.602-.172 1.187-.258 1.807l-.052.378c-2.357 16.967-5.025 36.206-16.968 39.544-1.05.378-2.082.516-3.063.516Z"/>
  <path fill="#27272A" d="M278.198 109.429c-.189 0-.378-.086-.516-.224-.206-.241-.224-.585-.052-.843 1.98-2.788 5.834-4.577 8.932-6.005 1.996-.912 4.251-1.962 4.405-2.702.018-.0516.035-.172-.172-.4302-1.617-1.9444-10.772.9292-22.251 6.9692-.327.172-.74.052-.929-.293-.172-.327-.052-.74.292-.929 4.802-2.529 20.72-10.4965 23.938-6.642.534.6367.551 1.2218.465 1.6003-.31 1.3937-2.358 2.3407-5.163 3.6477-1.359.637-2.874 1.325-4.285 2.151 4.44-1.944 10.583-4.043 13.406-2.357.723.43 1.583 1.308 1.583 3.097 0 .379-.31.689-.688.689-.379 0-.689-.31-.689-.689 0-.929-.292-1.566-.912-1.927-3.183-1.893-13.388 2.822-17.037 4.801-.103.069-.206.086-.327.086Z"/>
  <path fill="#27272A" d="M282.003 112.544c-.275 0-.534-.172-.637-.448-.137-.361.052-.739.413-.877 1.033-.379 2.289-.912 3.614-1.463 5.128-2.168 10.945-4.629 13.062-2.615.946.894 1.015 2.426.189 4.68-.138.362-.516.534-.878.413-.361-.12-.533-.516-.413-.877.603-1.635.654-2.754.155-3.236-1.462-1.393-7.554 1.188-11.581 2.891-1.343.568-2.616 1.102-3.666 1.497-.103.018-.189.035-.258.035Z"/>
  <path fill="#27272A" d="M234.594 214.206c-19.326 0-28.791-13.404-28.894-13.559-.206-.31-.138-.74.172-.947.31-.206.74-.137.947.172.12.172 12.063 17.019 36.62 12.046 25.693-5.197 29.944-42.503 32.215-62.551.138-1.204.258-2.34.396-3.424.12-1.067.189-2.134.258-3.201.069-1.032.138-2.047.241-3.045.034-.482.103-.998.189-1.515.637-5.076 2.237-14.007 5.748-16.485 2.702-1.91 6.109-3.166 9.121-4.285 3.407-1.256 6.625-2.443 6.935-4.026.103-.568.103-.947-.035-1.067-.826-.74-6.16 1.032-12.923 3.269-.362.121-.74-.068-.861-.43-.12-.361.069-.74.43-.86 9.758-3.218 12.907-4.199 14.267-2.994.722.636.619 1.652.481 2.357-.447 2.34-3.7 3.545-7.812 5.042-2.926 1.084-6.247 2.306-8.811 4.113-2.255 1.583-4.148 7.261-5.18 15.556-.086.499-.138.98-.172 1.445-.121.998-.172 1.979-.241 2.994-.069 1.084-.138 2.168-.276 3.27-.12 1.084-.258 2.22-.395 3.407-2.324 20.391-6.643 58.334-33.3 63.72-3.252.723-6.281.998-9.12.998Z"/>
  <path fill="#27272A" d="M277.425 138.339c-.086.499-.137.98-.172 1.479-5.317 1.532-10.945 1.928-16.469 1.033-4.956-.809-10.153-2.994-13.354-6.694.103-.619.172-1.205.258-1.807 3.425 4.922 10.635 7.124 16.607 7.537 4.457.293 8.897-.258 13.13-1.548ZM226.712 213.571c-.086 0-.155-.017-.241-.035-.362-.137-.534-.516-.413-.877 5.335-14.558 26.76-20.34 38.049-16.984.361.103.568.481.465.843-.104.361-.482.568-.844.464-10.807-3.2-31.303 2.289-36.38 16.159-.103.258-.361.43-.636.43ZM159.734 16.1449c-3.132-3.0458-9.93-5.9883-24.54-2.7016-.224.0516-.413.2065-.482.4302-.086.2237-.051.4646.086.6367l2.926 4.0094c.172.2409.465.3441.74.2581 6.212-1.8584 11.513-1.6347 14.937.6195 2.1 1.3766 3.373 3.5104 3.683 6.1776.791 6.7455-12.046 8.5695-12.167 8.5867-.344.0516-.602.3614-.585.7055l.568 11.4261c.017.3613.327.6538.688.6538h2.496c.189 0 .361-.0688.499-.2064.12-.1377.206-.3098.189-.4991l-.258-8.1737c2.581-.5679 12.734-3.2351 14.249-10.9786.826-4.3364-.241-8.2254-3.029-10.9442ZM148.567 49.3389h-3.424c-.327 0-.603.2237-.672.5334l-.963 4.3018c-.035.1893 0 .3786.103.5335.103.1548.275.2581.465.2925l4.371.6711h.103c.155 0 .327-.0516.447-.1721.155-.1376.241-.3269.241-.5162v-4.973c.017-.3613-.292-.671-.671-.671Z"/>
  <defs>
    <filter id="a" width="66.0535" height="65.6913" x="229.355" y="39.7198" color-interpolation-filters="sRGB" filterUnits="userSpaceOnUse">
      <feFlood flood-opacity="0" result="BackgroundImageFix"/>
      <feBlend in="SourceGraphic" in2="BackgroundImageFix" result="shape"/>
      <feGaussianBlur result="effect1_foregroundBlur_446_1280" stdDeviation="8"/>
    </filter>
    <filter id="b" width="60.6194" height="60.2571" x="154.368" y="8.2025" color-interpolation-filters="sRGB" filterUnits="userSpaceOnUse">
      <feFlood flood-opacity="0" result="BackgroundImageFix"/>
      <feBlend in="SourceGraphic" in2="BackgroundImageFix" result="shape"/>
      <feGaussianBlur result="effect1_foregroundBlur_446_1280" stdDeviation="8"/>
    </filter>
    <filter id="c" width="60.6194" height="60.2571" x="86.26" y="6.39311" color-interpolation-filters="sRGB" filterUnits="userSpaceOnUse">
      <feFlood flood-opacity="0" result="BackgroundImageFix"/>
      <feBlend in="SourceGraphic" in2="BackgroundImageFix" result="shape"/>
      <feGaussianBlur result="effect1_foregroundBlur_446_1280" stdDeviation="8"/>
    </filter>
    <filter id="d" width="59.5326" height="59.1703" x="221.385" y="46.9661" color-interpolation-filters="sRGB" filterUnits="userSpaceOnUse">
      <feFlood flood-opacity="0" result="BackgroundImageFix"/>
      <feBlend in="SourceGraphic" in2="BackgroundImageFix" result="shape"/>
      <feGaussianBlur result="effect1_foregroundBlur_446_1280" stdDeviation="8"/>
    </filter>
    <filter id="e" width="59.5326" height="59.1703" x="4.75122" y="41.8929" color-interpolation-filters="sRGB" filterUnits="userSpaceOnUse">
      <feFlood flood-opacity="0" result="BackgroundImageFix"/>
      <feBlend in="SourceGraphic" in2="BackgroundImageFix" result="shape"/>
      <feGaussianBlur result="effect1_foregroundBlur_446_1280" stdDeviation="8"/>
    </filter>
    <filter id="f" width="58.4457" height="58.0834" x=".0405273" y="65.806" color-interpolation-filters="sRGB" filterUnits="userSpaceOnUse">
      <feFlood flood-opacity="0" result="BackgroundImageFix"/>
      <feBlend in="SourceGraphic" in2="BackgroundImageFix" result="shape"/>
      <feGaussianBlur result="effect1_foregroundBlur_446_1280" stdDeviation="8"/>
    </filter>
    <filter id="g" width="58.4457" height="58.0834" x="140.961" y=".596741" color-interpolation-filters="sRGB" filterUnits="userSpaceOnUse">
      <feFlood flood-opacity="0" result="BackgroundImageFix"/>
      <feBlend in="SourceGraphic" in2="BackgroundImageFix" result="shape"/>
      <feGaussianBlur result="effect1_foregroundBlur_446_1280" stdDeviation="8"/>
    </filter>
  </defs>
</svg>
