<?xml version="1.0" encoding="iso-8859-1"?>
<!-- Generator: Adobe Illustrator 19.0.0, SVG Export Plug-In . SVG Version: 6.00 Build 0)  -->
<svg version="1.1" id="Layer_1" xmlns="http://www.w3.org/2000/svg" xmlns:xlink="http://www.w3.org/1999/xlink" x="0px" y="0px"
	 viewBox="0 0 512 512" style="enable-background:new 0 0 512 512;" xml:space="preserve">
<path style="fill:#FFDC64;" d="M203.034,119.172h-52.966c-9.75,0-17.655,7.904-17.655,17.655v17.655h88.276v-17.655
	C220.69,127.076,212.785,119.172,203.034,119.172z"/>
<g>
	<path style="fill:#F5DCB4;" d="M503.172,454.621H8.828c-4.879,0-8.828-3.953-8.828-8.828s3.948-8.828,8.828-8.828h494.345
		c4.879,0,8.828,3.953,8.828,8.828S508.052,454.621,503.172,454.621z"/>
	<path style="fill:#F5DCB4;" d="M423.724,233.931H88.276c-4.879,0-8.828-3.953-8.828-8.828c0-4.875,3.948-8.828,8.828-8.828h335.448
		c4.879,0,8.828,3.953,8.828,8.828C432.552,229.978,428.604,233.931,423.724,233.931z"/>
</g>
<path style="fill:#D5DCED;" d="M220.69,216.276h-88.276c-4.875,0-8.828-3.953-8.828-8.828v-52.966c0-4.875,3.953-8.828,8.828-8.828
	h88.276c4.875,0,8.828,3.953,8.828,8.828v52.966C229.517,212.323,225.565,216.276,220.69,216.276z"/>
<circle style="fill:#FFFFFF;" cx="176.552" cy="180.966" r="11.034"/>
<path style="fill:#D29B6E;" d="M176.552,136.828L176.552,136.828c-7.313,0-13.241-5.929-13.241-13.241v-13.241h26.483v13.241
	C189.793,130.899,183.864,136.828,176.552,136.828z"/>
<path style="fill:#F0C087;" d="M178.067,119.172h-3.029c-4.682,0-9.173-1.86-12.484-5.171l-7.313-7.313
	c-3.311-3.311-5.171-7.801-5.171-12.484v-19.17c0-9.751,7.904-17.655,17.655-17.655h17.655c9.751,0,17.655,7.904,17.655,17.655
	v19.17c0,4.682-1.86,9.173-5.171,12.484l-7.313,7.313C187.24,117.312,182.749,119.172,178.067,119.172z"/>
<g>
	<path style="fill:#694B4B;" d="M185.379,57.379h-17.655c-9.751,0-17.655,7.904-17.655,17.655v8.828c0,0,26.483,0,52.966-8.828l0,0
		C203.034,65.283,195.13,57.379,185.379,57.379z"/>
	<rect x="308.966" y="83.862" style="fill:#694B4B;" width="52.966" height="44.138"/>
</g>
<path style="fill:#00C3FF;" d="M353.103,119.172h-35.31c-9.751,0-17.655,7.904-17.655,17.655v17.655h70.621v-17.655
	C370.759,127.076,362.855,119.172,353.103,119.172z"/>
<path style="fill:#D5DCED;" d="M379.586,216.276H291.31c-4.875,0-8.828-3.953-8.828-8.828v-52.966c0-4.875,3.953-8.828,8.828-8.828
	h88.276c4.875,0,8.828,3.953,8.828,8.828v52.966C388.414,212.323,384.461,216.276,379.586,216.276z"/>
<circle style="fill:#FFFFFF;" cx="335.448" cy="180.966" r="11.034"/>
<path style="fill:#D29B6E;" d="M335.448,136.828L335.448,136.828c-7.313,0-13.241-5.929-13.241-13.241v-13.241h26.483v13.241
	C348.69,130.899,342.761,136.828,335.448,136.828z"/>
<path style="fill:#F0C087;" d="M323.305,115.857l-9.167-9.167c-3.311-3.311-5.171-7.801-5.171-12.484v-19.17
	c0-9.751,7.904-17.655,17.655-17.655h17.655c9.751,0,17.655,7.904,17.655,17.655v19.17c0,4.682-1.86,9.173-5.171,12.484
	l-9.167,9.167C340.885,122.563,330.012,122.563,323.305,115.857z"/>
<g>
	<path style="fill:#694B4B;" d="M344.276,57.379h-17.655c-9.751,0-17.655,7.904-17.655,17.655v8.828c0,0,26.483,0,52.966-8.828l0,0
		C361.931,65.283,354.027,57.379,344.276,57.379z"/>
	<rect x="229.517" y="304.552" style="fill:#694B4B;" width="52.966" height="44.138"/>
</g>
<path style="fill:#FF5050;" d="M273.655,339.862h-35.31c-9.751,0-17.655,7.904-17.655,17.655v17.655h70.621v-17.655
	C291.31,347.766,283.406,339.862,273.655,339.862z"/>
<path style="fill:#D5DCED;" d="M300.138,436.966h-88.276c-4.875,0-8.828-3.953-8.828-8.828v-52.966c0-4.875,3.953-8.828,8.828-8.828
	h88.276c4.875,0,8.828,3.953,8.828,8.828v52.966C308.966,433.013,305.013,436.966,300.138,436.966z"/>
<circle style="fill:#FFFFFF;" cx="256" cy="401.655" r="11.034"/>
<path style="fill:#D29B6E;" d="M256,357.517L256,357.517c-7.313,0-13.241-5.929-13.241-13.241v-13.241h26.483v13.241
	C269.241,351.588,263.313,357.517,256,357.517z"/>
<path style="fill:#F0C087;" d="M243.857,336.546l-9.167-9.167c-3.311-3.311-5.171-7.801-5.171-12.484v-19.17
	c0-9.751,7.904-17.655,17.655-17.655h17.655c9.751,0,17.655,7.904,17.655,17.655v19.17c0,4.682-1.86,9.173-5.171,12.484
	l-9.167,9.167C261.437,343.253,250.563,343.253,243.857,336.546z"/>
<path style="fill:#694B4B;" d="M264.828,278.069h-17.655c-9.751,0-17.655,7.904-17.655,17.655v8.828c0,0,26.483,0,52.966-8.828l0,0
	C282.483,285.973,274.579,278.069,264.828,278.069z"/>
<path style="fill:#5B5D6E;" d="M123.586,339.862H70.621c-9.75,0-17.655,7.904-17.655,17.655v17.655h88.276v-17.655
	C141.241,347.766,133.336,339.862,123.586,339.862z"/>
<path style="fill:#D5DCED;" d="M141.241,436.966H52.966c-4.875,0-8.828-3.953-8.828-8.828v-52.966c0-4.875,3.953-8.828,8.828-8.828
	h88.276c4.875,0,8.828,3.953,8.828,8.828v52.966C150.069,433.013,146.116,436.966,141.241,436.966z"/>
<circle style="fill:#FFFFFF;" cx="97.103" cy="401.655" r="11.034"/>
<path style="fill:#D29B6E;" d="M97.103,357.517L97.103,357.517c-7.313,0-13.241-5.929-13.241-13.241v-13.241h26.483v13.241
	C110.345,351.588,104.416,357.517,97.103,357.517z"/>
<path style="fill:#F0C087;" d="M98.618,339.862H95.59c-4.682,0-9.173-1.86-12.484-5.171l-7.313-7.313
	c-3.311-3.311-5.171-7.801-5.171-12.484v-19.17c0-9.751,7.904-17.655,17.655-17.655h17.655c9.751,0,17.655,7.904,17.655,17.655
	v19.17c0,4.682-1.86,9.173-5.171,12.484l-7.313,7.313C107.791,338.002,103.3,339.862,98.618,339.862z"/>
<path style="fill:#694B4B;" d="M105.931,278.069H88.276c-9.751,0-17.655,7.904-17.655,17.655v8.828c0,0,26.483,0,52.966-8.828l0,0
	C123.586,285.973,115.682,278.069,105.931,278.069z"/>
<path style="fill:#A0FFB4;" d="M441.379,339.862h-52.966c-9.75,0-17.655,7.904-17.655,17.655v17.655h88.276v-17.655
	C459.034,347.766,451.129,339.862,441.379,339.862z"/>
<path style="fill:#D5DCED;" d="M459.034,436.966h-88.276c-4.875,0-8.828-3.953-8.828-8.828v-52.966c0-4.875,3.953-8.828,8.828-8.828
	h88.276c4.875,0,8.828,3.953,8.828,8.828v52.966C467.862,433.013,463.91,436.966,459.034,436.966z"/>
<circle style="fill:#FFFFFF;" cx="414.897" cy="401.655" r="11.034"/>
<path style="fill:#D29B6E;" d="M414.897,357.517L414.897,357.517c-7.313,0-13.241-5.929-13.241-13.241v-13.241h26.483v13.241
	C428.138,351.588,422.209,357.517,414.897,357.517z"/>
<path style="fill:#F0C087;" d="M416.412,339.862h-3.029c-4.682,0-9.173-1.86-12.484-5.171l-7.313-7.313
	c-3.311-3.311-5.171-7.801-5.171-12.484v-19.17c0-9.751,7.904-17.655,17.655-17.655h17.655c9.751,0,17.655,7.904,17.655,17.655
	v19.17c0,4.682-1.86,9.173-5.171,12.484l-7.313,7.313C425.585,338.002,421.094,339.862,416.412,339.862z"/>
<path style="fill:#694B4B;" d="M423.724,278.069h-17.655c-9.751,0-17.655,7.904-17.655,17.655v8.828c0,0,26.483,0,52.966-8.828l0,0
	C441.379,285.973,433.475,278.069,423.724,278.069z"/>
<g>
</g>
<g>
</g>
<g>
</g>
<g>
</g>
<g>
</g>
<g>
</g>
<g>
</g>
<g>
</g>
<g>
</g>
<g>
</g>
<g>
</g>
<g>
</g>
<g>
</g>
<g>
</g>
<g>
</g>
</svg>
