<?xml version="1.0" encoding="iso-8859-1"?>
<!-- Generator: Adobe Illustrator 19.0.0, SVG Export Plug-In . SVG Version: 6.00 Build 0)  -->
<svg version="1.1" id="Layer_1" xmlns="http://www.w3.org/2000/svg" xmlns:xlink="http://www.w3.org/1999/xlink" x="0px" y="0px"
	 viewBox="0 0 512 512" style="enable-background:new 0 0 512 512;" xml:space="preserve">
<path style="fill:#5B5D6E;" d="M509.457,170.89c-3.39-3.39-8.882-3.39-12.272,0c-9.831,9.834-22.907,15.25-36.814,15.25
	c-13.915,0-26.992-5.415-36.822-15.25c-20.297-20.301-20.297-53.33,0-73.636c3.39-3.39,3.39-8.885,0-12.272
	c-3.39-3.39-8.882-3.39-12.272,0c-27.068,27.072-27.068,71.115,0,98.178c11.037,11.042,25.154,17.841,40.407,19.735v35.749h17.356
	v-35.747c15.254-1.892,29.375-8.692,40.415-19.737C512.847,179.771,512.847,174.275,509.457,170.89z"/>
<rect x="86.78" y="186.576" style="fill:#AFB9D2;" width="52.068" height="52.068"/>
<g>
	<path style="fill:#707487;" d="M43.543,254.377L8.831,436.614c-0.898,4.708,2.194,9.25,6.898,10.148
		c0.551,0.102,1.102,0.153,1.636,0.153c4.085,0,7.72-2.894,8.517-7.055l34.712-182.237L43.543,254.377z"/>
	<path style="fill:#707487;" d="M459.779,254.377l-17.051,3.246L477.44,439.86c0.796,4.161,4.432,7.055,8.517,7.055
		c0.534,0,1.085-0.051,1.636-0.153c4.703-0.898,7.797-5.441,6.899-10.148L459.779,254.377z"/>
</g>
<g>
	<polygon style="fill:#464655;" points="38.274,282.034 55.944,282.034 60.593,257.623 43.543,254.377 	"/>
	<polygon style="fill:#464655;" points="459.779,254.377 442.729,257.623 447.378,282.034 465.048,282.034 	"/>
</g>
<path style="fill:#EBC9A0;" d="M494.644,264.678H8.678C3.886,264.678,0,260.792,0,256v-17.356c0-4.792,3.886-8.678,8.678-8.678
	h485.966c4.792,0,8.678,3.886,8.678,8.678V256C503.322,260.792,499.436,264.678,494.644,264.678z"/>
<path style="fill:#5B5D6E;" d="M208.271,186.576H17.356V82.44c0-9.586,7.77-17.356,17.356-17.356h156.203
	c9.586,0,17.356,7.77,17.356,17.356V186.576z"/>
<path style="fill:#FF5050;" d="M377.492,229.966H247.322c-2.396,0-4.339-1.943-4.339-4.339v-17.356c0-2.396,1.943-4.339,4.339-4.339
	h130.169c2.396,0,4.339,1.943,4.339,4.339v17.356C381.831,228.023,379.888,229.966,377.492,229.966z"/>
<path style="fill:#FFDC64;" d="M360.136,203.932h-95.458c-2.396,0-4.339-1.943-4.339-4.339v-17.356c0-2.396,1.943-4.339,4.339-4.339
	h95.458c2.396,0,4.339,1.943,4.339,4.339v17.356C364.475,201.989,362.532,203.932,360.136,203.932z"/>
<path style="fill:#00C3FF;" d="M360.136,177.898H247.322c-2.396,0-4.339-1.943-4.339-4.339v-17.356c0-2.396,1.943-4.339,4.339-4.339
	h112.814c2.396,0,4.339,1.943,4.339,4.339v17.356C364.475,175.955,362.532,177.898,360.136,177.898z"/>
<path style="fill:#7DF5A5;" d="M342.78,151.864h-78.102c-2.396,0-4.339-1.943-4.339-4.339v-17.356c0-2.396,1.943-4.339,4.339-4.339
	h78.102c2.396,0,4.339,1.943,4.339,4.339v17.356C347.119,149.921,345.176,151.864,342.78,151.864z"/>
<circle style="fill:#00C3FF;" cx="460.366" cy="134.074" r="39.051"/>
<path style="fill:#C7CFE2;" d="M208.271,186.576v-8.678H17.356v8.678c0,9.585,7.771,17.356,17.356,17.356h156.203
	C200.5,203.932,208.271,196.161,208.271,186.576z"/>
<path style="fill:#464655;" d="M182.237,160.542H43.39c-4.792,0-8.678-3.886-8.678-8.678V91.118c0-4.792,3.886-8.678,8.678-8.678
	h138.847c4.792,0,8.678,3.886,8.678,8.678v60.746C190.915,156.657,187.03,160.542,182.237,160.542z"/>
<path style="fill:#00AAF0;" d="M481.627,151.864c-21.567,0-39.051-17.484-39.051-39.051c0-5.258,1.072-10.258,2.956-14.837
	c-14.201,5.844-24.215,19.786-24.215,36.095c0,21.567,17.484,39.051,39.051,39.051c16.309,0,30.25-10.012,36.095-24.214
	C491.884,150.792,486.885,151.864,481.627,151.864z"/>
<g>
</g>
<g>
</g>
<g>
</g>
<g>
</g>
<g>
</g>
<g>
</g>
<g>
</g>
<g>
</g>
<g>
</g>
<g>
</g>
<g>
</g>
<g>
</g>
<g>
</g>
<g>
</g>
<g>
</g>
</svg>
